<svg width="186" height="52" viewBox="0 0 186 52" fill="none" xmlns="http://www.w3.org/2000/svg">
<path d="M184.967 46.0034C184.967 48.7745 182.599 51.0192 179.67 51.0192H6.33671C3.40935 51.0192 1.0332 48.7745 1.0332 46.0034V6.00382C1.0332 3.23398 3.40935 0.981445 6.33671 0.981445H179.669C182.599 0.981445 184.965 3.23398 184.965 6.00382L184.967 46.0034Z" fill="#252525"/>
<path d="M179.111 1.04163C182.301 1.04163 184.896 3.4905 184.896 6.5V45.5C184.896 48.5095 182.301 50.9584 179.111 50.9584H6.88889C3.69933 50.9584 1.10394 48.5095 1.10394 45.5V6.5C1.10394 3.4905 3.69933 1.04163 6.88889 1.04163H179.111ZM179.111 2.74817e-06H6.88889C3.10172 2.74817e-06 0 2.92663 0 6.5V45.5C0 49.0734 3.10172 52 6.88889 52H179.111C182.898 52 186 49.0734 186 45.5V6.5C186 2.92663 182.898 2.74817e-06 179.111 2.74817e-06Z" fill="#A6A6A6"/>
<path d="M41.5093 25.7191C41.4694 21.5292 45.1453 19.4908 45.3134 19.3959C43.2315 16.532 40.0048 16.1407 38.8709 16.1095C36.1608 15.8404 33.532 17.6396 32.1514 17.6396C30.7434 17.6396 28.6174 16.1355 26.3262 16.1797C23.3778 16.2226 20.6194 17.8333 19.1066 20.3345C15.9846 25.4344 18.313 32.9289 21.3042 37.0512C22.8005 39.0701 24.5489 41.3243 26.8374 41.245C29.0762 41.1579 29.9126 39.8982 32.6144 39.8982C35.2914 39.8982 36.0767 41.245 38.4107 41.1943C40.8135 41.1579 42.3263 39.1663 43.7702 37.1292C45.4994 34.8152 46.1938 32.5363 46.2213 32.4193C46.1648 32.4011 41.5548 30.741 41.5093 25.7191Z" fill="white"/>
<path d="M37.1004 13.3977C38.3046 11.9768 39.1285 10.0437 38.8998 8.08203C37.1569 8.15483 34.9773 9.21953 33.7221 10.6092C32.6116 11.8338 31.6196 13.841 31.8759 15.7286C33.8337 15.8664 35.8439 14.7965 37.1004 13.3977Z" fill="white"/>
<path d="M73.911 40.9557H70.782L69.0681 35.874H63.1106L61.4779 40.9557H58.4316L64.334 23.6553H67.9796L73.911 40.9557ZM68.5514 33.742L67.0014 29.2245C66.8375 28.763 66.5302 27.6762 66.0769 25.9654H66.0218C65.8413 26.7012 65.5506 27.788 65.1511 29.2245L63.6286 33.742H68.5514V33.742Z" fill="white"/>
<path d="M89.0895 34.5647C89.0895 36.6863 88.4819 38.3633 87.2667 39.5944C86.1782 40.6903 84.8266 41.2376 83.2132 41.2376C81.4717 41.2376 80.2207 40.6474 79.4588 39.467H79.4037V46.0385H76.4663V32.5874C76.4663 31.2536 76.4291 29.8847 76.3574 28.4807H78.9408L79.1047 30.458H79.1598C80.1394 28.9682 81.626 28.2246 83.6211 28.2246C85.1807 28.2246 86.4827 28.8057 87.5243 29.9692C88.5687 31.134 89.0895 32.6654 89.0895 34.5647ZM86.0969 34.6661C86.0969 33.4519 85.8076 32.4509 85.2262 31.6631C84.591 30.8415 83.7382 30.4307 82.669 30.4307C81.9443 30.4307 81.2857 30.6595 80.6974 31.1106C80.1077 31.5656 79.722 32.1597 79.5415 32.8955C79.4505 33.2387 79.4051 33.5195 79.4051 33.7405V35.8205C79.4051 36.7279 79.6999 37.4936 80.2896 38.1189C80.8793 38.7442 81.6453 39.0562 82.5877 39.0562C83.6941 39.0562 84.5552 38.6532 85.1711 37.8498C85.7883 37.0451 86.0969 35.9843 86.0969 34.6661Z" fill="white"/>
<path d="M104.296 34.5647C104.296 36.6863 103.688 38.3633 102.472 39.5944C101.385 40.6903 100.033 41.2376 98.4199 41.2376C96.6784 41.2376 95.4273 40.6474 94.6668 39.467H94.6117V46.0385H91.6743V32.5874C91.6743 31.2536 91.6371 29.8847 91.5654 28.4807H94.1488L94.3127 30.458H94.3678C95.346 28.9682 96.8327 28.2246 98.8291 28.2246C100.387 28.2246 101.689 28.8057 102.734 29.9692C103.774 31.134 104.296 32.6654 104.296 34.5647ZM101.304 34.6661C101.304 33.4519 101.013 32.4509 100.431 31.6631C99.7963 30.8415 98.9462 30.4307 97.8757 30.4307C97.1496 30.4307 96.4924 30.6595 95.9027 31.1106C95.313 31.5656 94.9286 32.1597 94.7481 32.8955C94.6585 33.2387 94.6117 33.5195 94.6117 33.7405V35.8205C94.6117 36.7279 94.9065 37.4936 95.4935 38.1189C96.0832 38.7429 96.8492 39.0562 97.7944 39.0562C98.9007 39.0562 99.7618 38.6532 100.378 37.8498C100.995 37.0451 101.304 35.9843 101.304 34.6661Z" fill="white"/>
<path d="M121.299 36.1037C121.299 37.5753 120.757 38.7726 119.67 39.6969C118.476 40.707 116.813 41.2114 114.676 41.2114C112.703 41.2114 111.121 40.8526 109.924 40.1337L110.604 37.8236C111.894 38.5594 113.309 38.9286 114.851 38.9286C115.957 38.9286 116.818 38.692 117.437 38.2214C118.053 37.7508 118.36 37.119 118.36 36.3312C118.36 35.6292 118.106 35.0377 117.598 34.558C117.092 34.0783 116.248 33.6324 115.068 33.2203C111.858 32.0906 110.255 30.4357 110.255 28.2595C110.255 26.8373 110.817 25.6712 111.942 24.7638C113.064 23.8551 114.56 23.4014 116.431 23.4014C118.1 23.4014 119.486 23.6757 120.592 24.223L119.858 26.4824C118.824 25.952 117.656 25.6868 116.348 25.6868C115.315 25.6868 114.508 25.9273 113.929 26.4057C113.44 26.8334 113.195 27.3547 113.195 27.9722C113.195 28.656 113.474 29.2215 114.036 29.6661C114.526 30.0769 115.414 30.5215 116.704 31.0012C118.281 31.6005 119.44 32.3012 120.186 33.1046C120.928 33.9054 121.299 34.9077 121.299 36.1037Z" fill="white"/>
<path d="M131.01 30.5604H127.772V36.6171C127.772 38.1576 128.342 38.9272 129.486 38.9272C130.011 38.9272 130.446 38.8843 130.791 38.7985L130.872 40.9032C130.293 41.1073 129.531 41.21 128.588 41.21C127.428 41.21 126.521 40.8759 125.866 40.209C125.215 39.5408 124.887 38.4202 124.887 36.8459V30.5578H122.958V28.4778H124.887V26.1937L127.772 25.3721V28.4778H131.01V30.5604Z" fill="white"/>
<path d="M145.619 34.6151C145.619 36.5326 145.037 38.1069 143.877 39.338C142.661 40.6055 141.046 41.2373 139.033 41.2373C137.093 41.2373 135.548 40.6302 134.397 39.416C133.245 38.2018 132.669 36.6691 132.669 34.8218C132.669 32.8887 133.261 31.3053 134.45 30.0742C135.637 28.8418 137.238 28.2256 139.251 28.2256C141.19 28.2256 142.752 28.8327 143.93 30.0482C145.057 31.2273 145.619 32.7496 145.619 34.6151ZM142.571 34.7048C142.571 33.5543 142.311 32.5676 141.783 31.7447C141.167 30.7489 140.287 30.2523 139.146 30.2523C137.965 30.2523 137.068 30.7502 136.452 31.7447C135.925 32.5689 135.664 33.5712 135.664 34.7568C135.664 35.9073 135.925 36.894 136.452 37.7156C137.087 38.7114 137.975 39.208 139.12 39.208C140.241 39.208 141.122 38.701 141.757 37.6896C142.298 36.8511 142.571 35.854 142.571 34.7048Z" fill="white"/>
<path d="M155.166 30.9182C154.876 30.8675 154.566 30.8415 154.24 30.8415C153.207 30.8415 152.408 31.2094 151.846 31.9465C151.357 32.5965 151.112 33.4181 151.112 34.41V40.9555H148.175L148.203 32.4093C148.203 30.9715 148.166 29.6624 148.093 28.482H150.651L150.759 30.8688H150.84C151.15 30.0485 151.639 29.3881 152.309 28.8928C152.963 28.4469 153.67 28.2246 154.432 28.2246C154.703 28.2246 154.949 28.2428 155.166 28.2753V30.9182Z" fill="white"/>
<path d="M168.304 34.1279C168.304 34.6245 168.27 35.0431 168.197 35.385H159.385C159.419 36.6174 159.845 37.5599 160.663 38.2099C161.406 38.791 162.366 39.0822 163.546 39.0822C164.85 39.0822 166.041 38.8859 167.111 38.492L167.571 40.416C166.32 40.9308 164.843 41.1869 163.139 41.1869C161.089 41.1869 159.48 40.6175 158.309 39.48C157.14 38.3425 156.555 36.815 156.555 34.8988C156.555 33.0177 157.099 31.4512 158.189 30.2019C159.33 28.8681 160.871 28.2012 162.811 28.2012C164.717 28.2012 166.159 28.8681 167.139 30.2019C167.914 31.2614 168.304 32.5718 168.304 34.1279ZM165.503 33.409C165.523 32.5874 165.331 31.8776 164.933 31.2783C164.425 30.5074 163.643 30.1226 162.592 30.1226C161.632 30.1226 160.851 30.4983 160.254 31.2523C159.765 31.8516 159.474 32.5705 159.385 33.4077H165.503V33.409Z" fill="white"/>
<path d="M67.58 13.0113C67.58 14.5414 67.0936 15.6932 66.1223 16.4667C65.2226 17.1804 63.944 17.5379 62.2879 17.5379C61.4668 17.5379 60.7641 17.5041 60.1758 17.4365V9.07621C60.9432 8.95921 61.7699 8.89941 62.6627 8.89941C64.2402 8.89941 65.4293 9.22311 66.2311 9.87051C67.1294 10.6024 67.58 11.6489 67.58 13.0113ZM66.0575 13.049C66.0575 12.0571 65.7792 11.2966 65.2226 10.7662C64.666 10.2371 63.8531 9.97191 62.7825 9.97191C62.3279 9.97191 61.9407 10.0005 61.6197 10.0603V16.416C61.7974 16.442 62.1226 16.4537 62.5952 16.4537C63.7001 16.4537 64.553 16.1638 65.1537 15.584C65.7544 15.0042 66.0575 14.1592 66.0575 13.049Z" fill="white"/>
<path d="M75.6522 14.3472C75.6522 15.2897 75.367 16.0619 74.7966 16.6677C74.1987 17.2904 73.4064 17.6011 72.4172 17.6011C71.4638 17.6011 70.7046 17.3034 70.1384 16.7054C69.5735 16.1087 69.291 15.356 69.291 14.4486C69.291 13.4996 69.5817 12.7209 70.1659 12.1164C70.7501 11.5119 71.5354 11.209 72.5247 11.209C73.4781 11.209 74.2441 11.5067 74.8242 12.1034C75.3753 12.6832 75.6522 13.432 75.6522 14.3472ZM74.1546 14.3914C74.1546 13.8259 74.0251 13.341 73.7674 12.9367C73.4643 12.4479 73.0331 12.2035 72.4723 12.2035C71.8923 12.2035 71.4514 12.4479 71.1483 12.9367C70.8892 13.341 70.7611 13.8337 70.7611 14.4161C70.7611 14.9816 70.8906 15.4665 71.1483 15.8708C71.461 16.3596 71.8964 16.604 72.4585 16.604C73.0096 16.604 73.4423 16.3557 73.7536 15.8578C74.0209 15.4457 74.1546 14.9569 74.1546 14.3914Z" fill="white"/>
<path d="M86.4766 11.334L84.4444 17.4622H83.1217L82.2799 14.8011C82.0664 14.1368 81.8928 13.4764 81.7577 12.8212H81.7316C81.6062 13.4946 81.4326 14.1537 81.2094 14.8011L80.3152 17.4622H78.9774L77.0664 11.334H78.5503L79.2846 14.2473C79.4624 14.9363 79.6084 15.5928 79.7255 16.2142H79.7517C79.8592 15.702 80.0369 15.0494 80.2876 14.2603L81.2094 11.3353H82.386L83.2692 14.1979C83.4827 14.896 83.6563 15.5681 83.79 16.2155H83.8299C83.9277 15.585 84.0752 14.9129 84.2708 14.1979L85.0589 11.3353H86.4766V11.334Z" fill="white"/>
<path d="M93.9615 17.462H92.5176V13.952C92.5176 12.8704 92.0822 12.3296 91.2087 12.3296C90.7802 12.3296 90.4344 12.4778 90.1657 12.7755C89.8998 13.0732 89.7648 13.4242 89.7648 13.8259V17.4607H88.3209V13.0849C88.3209 12.5467 88.303 11.963 88.2686 11.3312H89.5375L89.605 12.2893H89.645C89.813 11.9916 90.0638 11.7459 90.3931 11.5496C90.7844 11.3208 91.2225 11.2051 91.702 11.2051C92.3082 11.2051 92.8125 11.3897 93.2134 11.7602C93.7121 12.2139 93.9615 12.8912 93.9615 13.7908V17.462V17.462Z" fill="white"/>
<path d="M97.9435 17.4626H96.501V8.52246H97.9435V17.4626Z" fill="white"/>
<path d="M106.444 14.3472C106.444 15.2897 106.159 16.0619 105.589 16.6677C104.991 17.2904 104.197 17.6011 103.209 17.6011C102.254 17.6011 101.495 17.3034 100.93 16.7054C100.365 16.1087 100.083 15.356 100.083 14.4486C100.083 13.4996 100.374 12.7209 100.958 12.1164C101.542 11.5119 102.327 11.209 103.315 11.209C104.27 11.209 105.035 11.5067 105.616 12.1034C106.167 12.6832 106.444 13.432 106.444 14.3472ZM104.945 14.3914C104.945 13.8259 104.816 13.341 104.558 12.9367C104.256 12.4479 103.824 12.2035 103.264 12.2035C102.683 12.2035 102.242 12.4479 101.94 12.9367C101.681 13.341 101.553 13.8337 101.553 14.4161C101.553 14.9816 101.683 15.4665 101.94 15.8708C102.253 16.3596 102.688 16.604 103.251 16.604C103.802 16.604 104.233 16.3557 104.544 15.8578C104.813 15.4457 104.945 14.9569 104.945 14.3914Z" fill="white"/>
<path d="M113.433 17.462H112.136L112.029 16.7561H111.989C111.545 17.319 110.913 17.6011 110.091 17.6011C109.478 17.6011 108.982 17.4152 108.609 17.046C108.27 16.7106 108.101 16.2933 108.101 15.798C108.101 15.0492 108.431 14.4785 109.097 14.0833C109.761 13.6881 110.695 13.4944 111.898 13.5035V13.3891C111.898 12.5818 111.449 12.1788 110.549 12.1788C109.908 12.1788 109.343 12.3309 108.856 12.6325L108.562 11.7381C109.166 11.3858 109.911 11.209 110.79 11.209C112.487 11.209 113.339 12.054 113.339 13.744V16.0008C113.339 16.6131 113.371 17.1006 113.433 17.462ZM111.934 15.356V14.4109C110.341 14.3849 109.545 14.797 109.545 15.6459C109.545 15.9657 109.635 16.2049 109.821 16.3648C110.007 16.5247 110.244 16.604 110.527 16.604C110.844 16.604 111.14 16.5091 111.41 16.3206C111.681 16.1308 111.848 15.8903 111.91 15.5952C111.925 15.5289 111.934 15.4483 111.934 15.356Z" fill="white"/>
<path d="M121.637 17.4626H120.356L120.289 16.4785H120.249C119.839 17.2273 119.142 17.6017 118.163 17.6017C117.38 17.6017 116.728 17.3118 116.212 16.732C115.695 16.1522 115.438 15.3995 115.438 14.4752C115.438 13.4833 115.717 12.6799 116.279 12.0663C116.824 11.4943 117.49 11.2083 118.284 11.2083C119.156 11.2083 119.766 11.4852 120.114 12.0403H120.141V8.52246H121.587V15.8116C121.587 16.4083 121.603 16.9582 121.637 17.4626ZM120.141 14.8782V13.8564C120.141 13.6796 120.127 13.5366 120.101 13.4274C120.02 13.0998 119.845 12.8242 119.579 12.6019C119.31 12.3796 118.987 12.2678 118.613 12.2678C118.075 12.2678 117.653 12.4693 117.343 12.8736C117.036 13.2779 116.88 13.794 116.88 14.4245C116.88 15.0303 117.027 15.5217 117.324 15.9C117.636 16.303 118.058 16.5045 118.586 16.5045C119.06 16.5045 119.439 16.3368 119.727 16.0001C120.005 15.6894 120.141 15.315 120.141 14.8782Z" fill="white"/>
<path d="M133.986 14.3472C133.986 15.2897 133.701 16.0619 133.131 16.6677C132.533 17.2904 131.742 17.6011 130.751 17.6011C129.799 17.6011 129.04 17.3034 128.472 16.7054C127.907 16.1087 127.625 15.356 127.625 14.4486C127.625 13.4996 127.916 12.7209 128.5 12.1164C129.084 11.5119 129.869 11.209 130.86 11.209C131.812 11.209 132.579 11.5067 133.158 12.1034C133.709 12.6832 133.986 13.432 133.986 14.3472ZM132.49 14.3914C132.49 13.8259 132.36 13.341 132.103 12.9367C131.798 12.4479 131.368 12.2035 130.806 12.2035C130.228 12.2035 129.787 12.4479 129.482 12.9367C129.223 13.341 129.095 13.8337 129.095 14.4161C129.095 14.9816 129.225 15.4665 129.482 15.8708C129.795 16.3596 130.23 16.604 130.793 16.604C131.344 16.604 131.778 16.3557 132.089 15.8578C132.355 15.4457 132.49 14.9569 132.49 14.3914Z" fill="white"/>
<path d="M141.75 17.462H140.308V13.952C140.308 12.8704 139.872 12.3296 138.997 12.3296C138.569 12.3296 138.223 12.4778 137.956 12.7755C137.689 13.0732 137.555 13.4242 137.555 13.8259V17.4607H136.11V13.0849C136.11 12.5467 136.093 11.963 136.059 11.3312H137.326L137.394 12.2893H137.434C137.603 11.9916 137.854 11.7459 138.182 11.5496C138.574 11.3208 139.011 11.2051 139.492 11.2051C140.097 11.2051 140.601 11.3897 141.002 11.7602C141.502 12.2139 141.75 12.8912 141.75 13.7908V17.462V17.462Z" fill="white"/>
<path d="M151.467 12.3553H149.877V15.3323C149.877 16.0889 150.16 16.4672 150.719 16.4672C150.978 16.4672 151.193 16.4464 151.363 16.4035L151.4 17.437C151.115 17.5384 150.74 17.5891 150.278 17.5891C149.708 17.5891 149.264 17.4253 148.943 17.0977C148.621 16.7701 148.461 16.2189 148.461 15.4454V12.3553H147.512V11.3348H148.461V10.2116L149.876 9.80859V11.3335H151.466V12.3553H151.467Z" fill="white"/>
<path d="M159.111 17.4626H157.666V13.9786C157.666 12.8801 157.231 12.3302 156.359 12.3302C155.689 12.3302 155.232 12.6487 154.981 13.2857C154.938 13.4196 154.913 13.5834 154.913 13.7758V17.4613H153.471V8.52246H154.913V12.2158H154.941C155.395 11.5437 156.047 11.2083 156.892 11.2083C157.49 11.2083 157.984 11.3929 158.377 11.7634C158.866 12.2249 159.111 12.9113 159.111 13.8187V17.4626V17.4626Z" fill="white"/>
<path d="M166.996 14.108C166.996 14.3524 166.977 14.5578 166.942 14.7255H162.612C162.631 15.3313 162.838 15.7928 163.239 16.1126C163.605 16.3986 164.078 16.5416 164.656 16.5416C165.297 16.5416 165.881 16.4454 166.408 16.2517L166.634 17.1981C166.018 17.4503 165.293 17.5764 164.454 17.5764C163.448 17.5764 162.656 17.2969 162.083 16.7379C161.507 16.1789 161.222 15.4288 161.222 14.4876C161.222 13.5633 161.488 12.7937 162.024 12.1801C162.583 11.5249 163.339 11.1973 164.294 11.1973C165.228 11.1973 165.938 11.5249 166.417 12.1801C166.804 12.7001 166.996 13.3436 166.996 14.108ZM165.618 13.7557C165.629 13.3514 165.534 13.003 165.338 12.7092C165.088 12.3309 164.706 12.1411 164.189 12.1411C163.718 12.1411 163.334 12.3257 163.04 12.6962C162.801 12.9913 162.659 13.3436 162.612 13.7557H165.618Z" fill="white"/>
</svg>
