<svg width="20" height="21" viewBox="0 0 20 21" fill="none" xmlns="http://www.w3.org/2000/svg">
<path fill-rule="evenodd" clip-rule="evenodd" d="M9.99992 5.08245e-05C7.06104 0.00818275 4.66797 2.19069 4.61278 4.91305C4.60949 4.9407 4.60774 4.9685 4.60752 4.9963V5.82901H1.91131C1.41499 5.82901 1.01258 6.20181 1.01258 6.66172V13.3234C0.976812 14.3601 1.0174 15.3978 1.13391 16.4294C1.0976 17.3533 1.47785 18.2495 2.18361 18.9031C2.88937 19.5566 3.85678 19.9085 4.85392 19.8743C5.66456 19.9869 6.48518 20.024 7.30372 19.985L12.6961 19.9851C13.516 20.0241 14.338 19.9865 15.1497 19.8726C16.1468 19.9064 17.1141 19.554 17.8194 18.9002C18.5248 18.2463 18.9047 17.3499 18.8677 16.4261C18.9832 15.3956 19.0231 14.3589 18.9873 13.3234V6.66172C18.9873 6.20181 18.5849 5.82901 18.0885 5.82901H15.3923V4.9963C15.3926 4.96484 15.3908 4.93343 15.387 4.90223C15.3251 2.18423 12.9341 0.00843687 10 0L9.99992 5.08245e-05ZM9.99994 1.66553C10.9544 1.66268 11.8706 2.01266 12.5454 2.63795C13.2203 3.2632 13.5981 4.11212 13.5949 4.99636V5.82907H6.405V4.99636C6.40182 4.11207 6.77965 3.2632 7.45447 2.6379C8.12929 2.01266 9.04558 1.66263 9.99994 1.66553V1.66553ZM2.81004 7.49463H4.60751V9.16005C4.60301 9.45762 4.7702 9.73477 5.04601 9.88709C5.32193 10.0395 5.66455 10.0438 5.94486 9.89863C6.22516 9.75342 6.40059 9.48065 6.40498 9.18312C6.40498 9.1759 6.40498 9.16757 6.40498 9.16005V7.49463H13.5949V9.16005C13.5904 9.45762 13.7575 9.73477 14.0334 9.88709C14.3093 10.0395 14.6519 10.0438 14.9322 9.89863C15.2125 9.75342 15.3879 9.48065 15.3923 9.18312C15.3923 9.1759 15.3923 9.16757 15.3923 9.16005V7.49463H17.1898V13.3236C17.2231 14.2963 17.1868 15.2699 17.0811 16.2381C17.1646 16.7824 16.967 17.3314 16.5476 17.7203C16.1282 18.1092 15.5358 18.2927 14.9483 18.2158C14.2035 18.324 13.4486 18.3589 12.696 18.3198H7.30371C6.55297 18.3595 5.79993 18.3257 5.05687 18.2191C4.46949 18.2965 3.87695 18.1134 3.45721 17.7248C3.03746 17.3363 2.83933 16.7874 2.92238 16.2431C2.81497 15.2734 2.77745 14.298 2.81004 13.3236V7.49463V7.49463Z" fill="#252525"/>
</svg>
