<svg width="40" height="40" viewBox="0 0 40 40" fill="none" xmlns="http://www.w3.org/2000/svg">
<circle cx="20" cy="20" r="19.5" stroke="#40AB39"/>
<path fill-rule="evenodd" clip-rule="evenodd" d="M19.5372 11.5C17.4269 11.5063 15.7085 13.1978 15.6689 15.3076C15.6666 15.3291 15.6653 15.3506 15.6651 15.3721V16.0175H13.7291C13.3727 16.0175 13.0837 16.3064 13.0837 16.6628V21.8257C13.0581 22.6291 13.0872 23.4334 13.1709 24.2328C13.1448 24.9489 13.4178 25.6434 13.9246 26.1499C14.4314 26.6564 15.1261 26.9291 15.8421 26.9026C16.4242 26.9899 17.0134 27.0186 17.6012 26.9884L21.4733 26.9885C22.062 27.0187 22.6523 26.9896 23.2351 26.9013C23.9511 26.9275 24.6457 26.6544 25.1522 26.1477C25.6587 25.6409 25.9314 24.9462 25.9049 24.2302C25.9878 23.4316 26.0165 22.6282 25.9907 21.8257V16.6628C25.9907 16.3064 25.7018 16.0175 25.3454 16.0175H23.4093V15.3721C23.4095 15.3478 23.4082 15.3234 23.4055 15.2992C23.3611 13.1928 21.6442 11.5065 19.5373 11.5L19.5372 11.5ZM19.5373 12.7907C20.2226 12.7885 20.8805 13.0598 21.3651 13.5444C21.8497 14.0289 22.1209 14.6869 22.1187 15.3721V16.0175H16.9559V15.3721C16.9536 14.6868 17.2249 14.0289 17.7094 13.5443C18.194 13.0598 18.852 12.7885 19.5373 12.7907ZM14.3745 17.3082H15.6652V18.5989C15.6619 18.8295 15.782 19.0443 15.98 19.1624C16.1782 19.2805 16.4242 19.2839 16.6255 19.1713C16.8267 19.0588 16.9527 18.8474 16.9559 18.6168C16.9559 18.6112 16.9559 18.6048 16.9559 18.5989V17.3082H22.1187V18.5989C22.1154 18.8295 22.2355 19.0443 22.4335 19.1624C22.6317 19.2805 22.8777 19.2839 23.079 19.1713C23.2802 19.0588 23.4062 18.8474 23.4094 18.6168C23.4094 18.6112 23.4094 18.6048 23.4094 18.5989V17.3082H24.7001V21.8257C24.724 22.5795 24.6979 23.3341 24.622 24.0844C24.6819 24.5063 24.5401 24.9317 24.2389 25.2331C23.9378 25.5345 23.5124 25.6767 23.0905 25.6171C22.5557 25.701 22.0136 25.728 21.4732 25.6978H17.6012C17.0621 25.7285 16.5214 25.7023 15.9878 25.6197C15.5661 25.6797 15.1406 25.5378 14.8392 25.2367C14.5378 24.9355 14.3955 24.5102 14.4551 24.0883C14.378 23.3368 14.3511 22.5809 14.3745 21.8257V17.3082Z" fill="#40AB39"/>
</svg>
