<svg width="18" height="18" viewBox="0 0 18 18" fill="none" xmlns="http://www.w3.org/2000/svg">
<path d="M11.7207 14.6633C11.8996 14.45 12 14.1615 12 13.8607C12 13.56 11.8996 13.2715 11.7207 13.0582L8.32043 8.97154L11.7207 4.94179C11.8996 4.72851 12 4.43999 12 4.13926C12 3.83852 11.8996 3.55 11.7207 3.33672C11.6314 3.23003 11.5252 3.14534 11.4081 3.08755C11.2911 3.02975 11.1655 3 11.0387 3C10.9119 3 10.7864 3.02975 10.6693 3.08755C10.5523 3.14534 10.446 3.23003 10.3567 3.33672L6.28412 8.16331C6.19409 8.26914 6.12264 8.39504 6.07387 8.53376C6.02511 8.67248 6 8.82126 6 8.97154C6 9.12182 6.02511 9.2706 6.07387 9.40932C6.12264 9.54804 6.19409 9.67394 6.28412 9.77977L10.3567 14.6633C10.446 14.77 10.5523 14.8547 10.6693 14.9125C10.7864 14.9702 10.9119 15 11.0387 15C11.1655 15 11.2911 14.9702 11.4081 14.9125C11.5252 14.8547 11.6314 14.77 11.7207 14.6633Z" fill="#252525"/>
</svg>
