<svg width="18" height="18" viewBox="0 0 18 18" fill="none" xmlns="http://www.w3.org/2000/svg">
<path d="M0.916945 6.26289C0.755226 6.34375 0.681398 6.52305 0.734132 6.69883C0.797413 6.90625 1.03648 7.2332 1.38101 7.58477C1.6271 7.83086 2.54468 8.67812 2.89976 8.9875C2.92085 9.00508 2.67476 9.27227 2.29155 9.65898C1.75718 10.1969 1.64468 10.3234 1.63062 10.4254C1.59194 10.6504 1.76069 10.8719 1.99273 10.9035C2.11226 10.9176 2.15093 10.9035 2.34429 10.7559C2.46382 10.668 2.79077 10.3551 3.06851 10.0633L3.57476 9.52891L3.99312 9.81367C5.31148 10.7066 6.64741 11.2621 7.9271 11.459C8.12046 11.4871 8.34194 11.5152 8.41929 11.5187L8.55991 11.5293L8.57749 12.5383L8.59507 13.5508L8.71108 13.6633C8.80952 13.7617 8.84819 13.7793 8.99937 13.7793C9.15054 13.7793 9.18921 13.7617 9.28765 13.6633L9.40366 13.5508L9.42124 12.5383L9.43882 11.5293L9.73413 11.5012C10.4794 11.4344 11.4287 11.1707 12.2654 10.7945C12.8314 10.5414 13.2919 10.2848 13.9177 9.86992L14.424 9.53242L14.9302 10.0633C15.208 10.3551 15.5314 10.668 15.6509 10.7559C15.8478 10.9035 15.8865 10.9176 16.006 10.9035C16.238 10.8719 16.4068 10.6504 16.3681 10.4254C16.3541 10.3234 16.2416 10.1969 15.7072 9.65898C15.3556 9.30742 15.0744 9.01211 15.0814 9.00508C15.4294 8.75898 16.5791 7.63398 17.022 7.10664C17.3419 6.73047 17.3736 6.53359 17.1521 6.32266C17.0642 6.23828 17.015 6.2207 16.8673 6.2207H16.688L16.4068 6.53711C14.2658 8.92773 11.9525 10.3586 9.74468 10.6504C7.18882 10.9879 4.26734 9.51484 1.59546 6.54414C1.34937 6.26641 1.30366 6.23125 1.1771 6.21719C1.08569 6.20664 0.994288 6.2207 0.916945 6.26289Z" fill="#252525" stroke="#252525" stroke-width="0.5"/>
</svg>
