<svg width="256" height="104" viewBox="0 0 256 104" fill="none" xmlns="http://www.w3.org/2000/svg">
<g clip-path="url(#clip0_416_15140)">
<path d="M87.1873 77.6892V77.6103C87.6746 77.5628 88.1436 77.4266 88.5959 77.202C89.0473 76.9742 89.418 76.6518 89.7089 76.2242C90.0024 75.8006 90.1476 75.2855 90.1476 74.6835C90.1476 74.1306 89.9984 73.6029 89.6985 73.0984C89.3995 72.5951 88.918 72.1785 88.2573 71.8508C87.5948 71.5243 86.7556 71.3613 85.7334 71.3613C84.3584 71.3613 83.1265 71.6507 82.0398 72.2314L82.0765 71.6294H81.4701L81.2434 74.8916H81.8495L81.8663 74.5363C81.8848 74.1531 82.058 73.756 82.3804 73.3429C82.7031 72.9271 83.1551 72.5824 83.7378 72.3046C84.3179 72.029 84.9763 71.8923 85.7123 71.8923C86.5164 71.8923 87.1315 72.1246 87.5583 72.5951C87.9837 73.0604 88.1951 73.6766 88.1951 74.4379C88.1951 75.2593 87.9753 75.9403 87.5323 76.479C87.0893 77.0177 86.3453 77.2895 85.2982 77.2895C84.6548 77.2895 84.1288 77.2521 83.728 77.1744V78.1041C84.2829 77.9135 84.843 77.8196 85.4112 77.8196C86.0893 77.8196 86.6584 77.9572 87.1171 78.2337C87.5748 78.5063 87.9157 78.8818 88.1355 79.356C88.3535 79.8262 88.464 80.3623 88.464 80.965C88.464 81.6641 88.3313 82.288 88.0641 82.8319C87.8007 83.3767 87.414 83.7994 86.9091 84.1086C86.4022 84.4135 85.8045 84.5658 85.1102 84.5658C84.2401 84.5658 83.5747 84.4109 83.1106 84.0994C82.6488 83.7899 82.4166 83.4599 82.4166 83.1101C82.4166 83.0038 82.4487 82.8722 82.5126 82.7165C82.5748 82.5613 82.6075 82.3851 82.6075 82.1947C82.6075 81.9097 82.5207 81.6603 82.3512 81.4496C82.1798 81.2402 81.9314 81.1349 81.6029 81.1349C81.2483 81.1349 80.973 81.2541 80.7776 81.4933C80.5832 81.7309 80.4849 82.0084 80.4849 82.3232C80.4849 82.7795 80.6764 83.2244 81.0633 83.6499C81.4482 84.0795 82.006 84.4279 82.7393 84.6954C83.4709 84.9606 84.3381 85.0953 85.3372 85.0953C86.5448 85.0953 87.539 84.8955 88.32 84.4936C89.099 84.0913 89.6632 83.5817 90.0088 82.9672C90.3532 82.3525 90.5261 81.7153 90.5261 81.0637C90.5261 80.0839 90.2072 79.2935 89.5655 78.6938C88.9244 78.0929 88.1318 77.7577 87.1873 77.6892ZM101.268 72.1583H102.35C102.541 72.1583 102.708 72.2168 102.85 72.3354C102.995 72.4537 103.065 72.6043 103.065 72.7843V73.0472L96.3408 82.4562V73.0094C96.3408 72.4428 96.5814 72.1583 97.0623 72.1583H98.1449V71.6294H92.7938V72.1583H93.8742C94.3565 72.1583 94.5968 72.4428 94.5968 73.0094V83.4556C94.5968 84.0237 94.3565 84.3041 93.8742 84.3041H92.7938V84.8336H98.1449V84.3041H97.0623C96.8087 84.3041 96.6256 84.2359 96.5134 84.102C96.398 83.9684 96.3408 83.8287 96.3408 83.6836V83.4006L103.065 73.953V83.4556C103.065 84.0237 102.827 84.3041 102.35 84.3041H101.268V84.8336H106.61V84.3041H105.532C105.051 84.3041 104.811 84.0237 104.811 83.4556V73.0094C104.811 72.4428 105.051 72.1583 105.532 72.1583H106.61V71.6294H101.268V72.1583ZM78.2098 82.3827C78.1031 82.9252 77.619 83.3821 76.7588 83.7513C75.897 84.1215 74.5255 84.3041 72.6372 84.3041H72.3746C71.8938 84.3041 71.652 84.0236 71.652 83.4556V78.1542H72.5079C73.5383 78.1542 74.2956 78.2069 74.7837 78.3105C75.2704 78.4182 75.5685 78.5406 75.6799 78.6866C75.7883 78.8314 75.8424 79.0105 75.8424 79.2299V79.7018H76.4485V76.0776H75.8424V76.5504C75.8424 76.775 75.7782 76.9619 75.6483 77.1124C75.5191 77.2593 75.21 77.3857 74.7184 77.479C74.2285 77.576 73.4908 77.6261 72.5079 77.6261H71.652V73.0094C71.652 72.4428 71.8938 72.1583 72.3746 72.1583H73.0342C74.6756 72.1583 75.8548 72.3112 76.574 72.6176C77.2929 72.9213 77.6792 73.2965 77.7347 73.7442L77.8128 74.3069H78.4183L78.191 71.6294H68.1039V72.1583H69.186C69.6677 72.1583 69.9077 72.4428 69.9077 73.0094V83.4556C69.9077 84.0237 69.6677 84.3041 69.186 84.3041H68.1039V84.8336H78.2838L78.909 81.9097H78.3035L78.2098 82.3827ZM63.7625 71.8817C62.9092 71.7152 62.0471 71.6294 61.1785 71.6294H56.3274V72.1584H57.4282C57.908 72.1584 58.148 72.4428 58.148 73.0095V83.4556C58.148 84.0237 57.908 84.3042 57.4282 84.3042H56.3488V84.8337H62.0766V84.3042H60.6134C60.1337 84.3042 59.8937 84.0237 59.8937 83.4556V79.5139C60.4966 79.6164 61.0723 79.6662 61.6192 79.6662C63.3325 79.6662 64.6725 79.3025 65.6334 78.5709C66.5958 77.8419 67.077 76.8732 67.077 75.6637C67.077 74.5062 66.7369 73.6265 66.0608 73.0297C65.3842 72.4348 64.6185 72.0498 63.7625 71.8817ZM64.606 77.3857C64.3342 77.9112 63.9137 78.3327 63.347 78.6564C62.7825 78.9754 62.0917 79.1366 61.2765 79.1366C60.7892 79.1366 60.326 79.0739 59.8937 78.9469V72.5756C60.4599 72.2968 61.0755 72.1583 61.7354 72.1583C62.2906 72.1583 62.7785 72.2453 63.1937 72.4166C63.6101 72.5923 63.9528 72.8396 64.2208 73.1572C64.4909 73.4771 64.6881 73.8468 64.8183 74.2672C64.9469 74.6887 65.0129 75.1554 65.0129 75.6668C65.0129 76.2841 64.8767 76.8562 64.606 77.3857ZM144.145 72.1584H145.225C145.704 72.1584 145.943 72.4428 145.943 73.0095V77.6866H139.256V73.0095C139.256 72.4428 139.493 72.1584 139.974 72.1584H141.057V71.6294H135.706V72.1584H136.789C137.269 72.1584 137.509 72.4428 137.509 73.0095V83.4556C137.509 84.0237 137.269 84.3042 136.789 84.3042H135.706V84.8337H141.057V84.3042H139.974C139.493 84.3042 139.256 84.0237 139.256 83.4556V78.2144H145.943V83.4556C145.943 84.0237 145.704 84.3042 145.225 84.3042H144.145V84.8337H149.486V84.3042H148.408C147.927 84.3042 147.685 84.0237 147.685 83.4556V73.0095C147.685 72.4428 147.927 72.1584 148.408 72.1584H149.486V71.6294H144.145V72.1584ZM150.215 74.5775H150.823V74.1451C150.823 73.7829 151.011 73.4529 151.387 73.1454C151.766 72.8396 152.231 72.5992 152.786 72.423C153.343 72.2453 153.862 72.1583 154.346 72.1583C154.929 72.1583 155.216 72.2787 155.216 72.516V83.4555C155.216 84.0236 154.977 84.3041 154.497 84.3041H153.416V84.8336H158.759V84.3041H157.677C157.199 84.3041 156.961 84.0236 156.961 83.4555V72.516C156.961 72.2787 157.251 72.1583 157.83 72.1583C158.308 72.1583 158.825 72.2453 159.382 72.423C159.939 72.5992 160.407 72.8422 160.785 73.1483C161.167 73.4552 161.355 73.7855 161.355 74.1451V74.5775H161.962V71.6294H150.215L150.215 74.5775ZM119.363 84.3041C118.882 84.3041 118.642 84.0237 118.642 83.4556V73.0094C118.642 72.4428 118.882 72.1583 119.363 72.1583H120.443V71.6294H110.779V72.1583H111.556C111.903 72.1583 112.187 72.2315 112.404 72.38C112.622 72.5277 112.728 72.8499 112.728 73.3504C112.728 74.1045 112.511 75.4163 112.073 77.2938C111.634 79.1668 111.129 80.7657 110.55 82.0793C110.218 82.8371 109.86 83.3822 109.476 83.7156C109.091 84.0507 108.66 84.2439 108.182 84.3041L107.937 87.7405H108.544L108.599 87.0576C108.663 86.3524 109.088 85.8045 109.868 85.4184C110.651 85.0294 111.454 84.8336 112.276 84.8336H115.232C116.009 84.8336 116.756 84.9404 117.474 85.15C118.19 85.3631 118.773 85.6378 119.222 85.9741C119.672 86.3075 119.904 86.6519 119.927 87.0037L119.988 87.7406H120.592L120.443 84.3041L119.363 84.3041ZM116.899 83.4556C116.899 84.0237 116.658 84.3041 116.176 84.3041H111.556C111.001 84.3041 110.723 84.102 110.723 83.7001C110.723 83.5515 110.814 83.2561 110.995 82.8014C111.176 82.3525 111.331 81.9558 111.459 81.6128C111.586 81.2691 111.792 80.6353 112.068 79.7039C112.473 78.3132 112.852 76.528 113.201 74.3489C113.302 73.7022 113.381 73.2597 113.432 73.034C113.485 72.8094 113.594 72.6095 113.759 72.4282C113.923 72.2485 114.17 72.1584 114.493 72.1584H116.201C116.666 72.1584 116.899 72.4428 116.899 73.0095V83.4556ZM132.947 82.3828C132.839 82.9252 132.356 83.3822 131.496 83.7513C130.634 84.1216 129.262 84.3041 127.376 84.3041H127.109C126.63 84.3041 126.389 84.0237 126.389 83.4556V78.1542H127.246C128.275 78.1542 129.034 78.2069 129.521 78.3106C130.008 78.4183 130.309 78.5406 130.417 78.6866C130.524 78.8314 130.579 79.0105 130.579 79.2299V79.7018H131.188V76.0777H130.579V76.5504C130.579 76.775 130.516 76.9619 130.387 77.1125C130.257 77.2593 129.946 77.3857 129.455 77.479C128.966 77.576 128.229 77.6262 127.246 77.6262H126.389V73.0095C126.389 72.4428 126.63 72.1583 127.109 72.1583H127.773C129.412 72.1583 130.592 72.3112 131.311 72.6176C132.029 72.9214 132.416 73.2965 132.47 73.7443L132.55 74.3069H133.156L132.929 71.6294H122.842V72.1583H123.924C124.404 72.1583 124.645 72.4428 124.645 73.0095V83.4556C124.645 84.0237 124.404 84.3042 123.924 84.3042H122.842V84.8337H133.021L133.647 81.9097H133.039L132.947 82.3828ZM232.62 72.1583H233.869C234.188 72.1583 234.431 72.2617 234.602 72.4736C234.769 72.6781 234.853 72.9738 234.853 73.3504C234.853 73.8574 234.778 74.6682 234.619 75.7794C234.46 76.8919 234.272 78.0071 234.051 79.1194C233.83 80.2351 233.624 81.0836 233.432 81.6652C232.866 83.4124 232.299 84.2845 231.746 84.2845C231.648 84.2845 231.566 84.2468 231.501 84.1731C231.436 84.0968 231.401 84.0024 231.401 83.8881C231.401 83.8394 231.418 83.7539 231.446 83.6445C231.469 83.5163 231.485 83.4242 231.485 83.366C231.485 83.1011 231.396 82.8722 231.221 82.6851C231.047 82.4971 230.795 82.4021 230.461 82.4021C230.138 82.4021 229.882 82.5115 229.693 82.734C229.507 82.9483 229.416 83.2307 229.416 83.5742C229.416 84.0237 229.59 84.3896 229.94 84.6753C230.286 84.9557 230.726 85.0953 231.253 85.0953C231.779 85.0953 232.24 84.9122 232.638 84.5445C233.035 84.1783 233.4 83.5662 233.733 82.7003C234.067 81.836 234.373 80.6817 234.656 79.2354C234.938 77.7908 235.212 75.9455 235.476 73.7037C235.524 73.3345 235.588 73.0446 235.665 72.8367C235.745 72.6303 235.914 72.4635 236.167 72.3429C236.419 72.2168 236.806 72.1583 237.33 72.1583H238.414C238.895 72.1583 239.136 72.4428 239.136 73.0095V83.4556C239.136 84.0237 238.895 84.3041 238.414 84.3041H237.33V84.8336H242.682V84.3041H241.599C241.117 84.3041 240.876 84.0237 240.876 83.4556V73.0095C240.876 72.4428 241.117 72.1583 241.599 72.1583H242.682V71.6294H232.62L232.62 72.1583ZM204.197 74.5775H204.805V74.1451C204.805 73.7829 204.995 73.4529 205.371 73.1454C205.749 72.8396 206.216 72.5992 206.77 72.423C207.325 72.2453 207.846 72.1583 208.331 72.1583C208.909 72.1583 209.2 72.2787 209.2 72.516V83.4555C209.2 84.0236 208.958 84.3041 208.476 84.3041H207.401V84.8336H212.744V84.3041H211.663C211.182 84.3041 210.942 84.0236 210.942 83.4555V72.516C210.942 72.2787 211.233 72.1583 211.812 72.1583C212.291 72.1583 212.807 72.2453 213.366 72.423C213.92 72.5992 214.389 72.8422 214.765 73.1483C215.148 73.4552 215.336 73.7854 215.336 74.1451V74.5775H215.941V71.6294H204.197L204.197 74.5775ZM227.466 82.3828C227.359 82.9252 226.875 83.3822 226.016 83.7513C225.156 84.1216 223.781 84.3041 221.891 84.3041H221.631C221.15 84.3041 220.91 84.0237 220.91 83.4556V78.1542H221.765C222.795 78.1542 223.554 78.2069 224.038 78.3106C224.528 78.4183 224.827 78.5406 224.936 78.6866C225.044 78.8314 225.098 79.0105 225.098 79.2299V79.7018H225.703V76.0777H225.098V76.5504C225.098 76.775 225.035 76.9619 224.908 77.1125C224.775 77.2593 224.467 77.3857 223.974 77.479C223.483 77.576 222.747 77.6262 221.765 77.6262H220.91V73.0095C220.91 72.4428 221.149 72.1583 221.631 72.1583H222.293C223.931 72.1583 225.112 72.3112 225.831 72.6176C226.548 72.9214 226.934 73.2965 226.992 73.7443L227.07 74.3069H227.676L227.45 71.6294H217.362V72.1583H218.444C218.925 72.1583 219.164 72.4428 219.164 73.0095V83.4556C219.164 84.0237 218.925 84.3042 218.444 84.3042H217.362V84.8337H227.541L228.166 81.9097H227.56L227.466 82.3828ZM254.918 78.8003C254.52 78.1767 253.935 77.6892 253.159 77.3411C252.386 76.9907 251.455 76.8156 250.38 76.8156C249.722 76.8156 248.989 76.8893 248.18 77.0402V73.0095C248.18 72.4428 248.419 72.1583 248.899 72.1583H249.984V71.6294H244.63V72.1583H245.712C246.194 72.1583 246.434 72.4428 246.434 73.0095V83.4556C246.434 84.0237 246.194 84.3042 245.712 84.3042H244.63V84.8337H250.281C250.781 84.8337 251.295 84.8026 251.823 84.7461C252.35 84.6842 252.904 84.5342 253.478 84.2872C254.053 84.0444 254.534 83.65 254.928 83.1078C255.319 82.5668 255.517 81.8518 255.517 80.965C255.517 80.1447 255.313 79.4217 254.918 78.8003ZM252.513 83.3902C251.904 84.0012 251.084 84.3041 250.057 84.3041C249.457 84.3041 248.833 84.1587 248.18 83.8725V77.5723C248.678 77.4704 249.237 77.4188 249.849 77.4188C250.771 77.4188 251.6 77.646 252.333 78.1015C253.066 78.5602 253.428 79.4548 253.428 80.7928C253.428 81.9186 253.123 82.7821 252.513 83.3902ZM210.969 57.7126C211.984 55.311 212.137 52.9848 211.43 50.7352C210.536 47.8752 208.711 46.0269 205.958 45.1977C203.74 44.5055 201.082 44.5386 197.982 45.2927C189.597 47.3324 182.139 52.3582 175.607 60.3725C172.069 64.697 169.482 69.2667 167.844 74.0901C166.309 78.6964 165.971 82.5089 166.827 85.5314C167.677 88.5195 169.433 90.4006 172.095 91.1742C174.185 91.8169 176.603 91.7521 179.348 90.9669C183.03 89.9188 186.91 87.7029 190.989 84.3255C194.965 81.0111 198.368 77.2441 201.193 73.0158C203.232 69.9825 204.859 66.5472 206.081 62.7094C208.326 61.7796 209.955 60.1125 210.969 57.7126ZM168.018 85.1858C167.322 82.5063 167.927 78.9947 169.835 74.6429C171.632 70.6283 174.356 66.2927 178.001 61.6376C184.829 52.9361 191.779 47.7237 198.854 46.0033C204.723 44.5752 208.454 46.246 210.052 51.0119C210.657 52.8653 210.628 54.8713 209.964 57.0334C209.248 59.3244 208.022 61.0068 206.278 62.0854C207.305 58.5663 207.602 55.9165 207.168 54.1368C206.853 52.8653 206.177 51.9157 205.133 51.284C204.09 50.6534 202.929 50.4181 201.656 50.5728C201.126 50.6257 200.571 50.7205 199.988 50.8618C197.289 51.5175 194.382 52.8981 191.269 55.0049C187.999 57.2605 185.097 59.9322 182.57 63.0088C178.227 68.2969 175.465 73.9669 174.285 80.0246C173.881 82.0085 173.888 83.8331 174.298 85.5039C175.054 88.5877 176.921 90.0578 179.898 89.9096C173.297 91.9786 169.336 90.4034 168.018 85.1858ZM199.82 71.9097C194.293 80.4068 188.358 86.1225 182.008 89.0504C178.215 89.9727 175.918 88.8011 175.117 85.5322C174.732 83.9736 174.764 82.2144 175.213 80.2596C176.249 75.6608 179.257 70.2941 184.241 64.158C190.078 56.9297 195.531 52.6972 200.6 51.4651C203.808 50.6834 205.727 51.5823 206.36 54.1596C206.867 56.2292 206.233 59.3072 204.454 63.3938C203.217 66.2339 201.673 69.0698 199.82 71.9097ZM46.9953 67.8522C51.9164 61.8474 56.1417 57.0188 59.6697 53.3701C64.4806 53.472 68.5157 53.4395 71.7749 53.2702C76.5237 52.999 80.5707 52.1665 83.9157 50.7822C87.799 49.1508 89.5511 47.1499 89.168 44.788C88.8646 43.0058 87.6735 42.1938 85.5961 42.3412C85.285 42.366 84.9932 42.4215 84.7214 42.5079C84.2434 42.647 84.0161 42.8543 84.0355 43.1319C84.041 43.2013 84.0933 43.2145 84.1951 43.1699C84.4669 43.0818 84.6887 43.0311 84.8622 43.0201C86.5845 42.7573 87.5706 43.3962 87.8222 44.9366C88.203 47.3011 86.6484 49.1295 83.157 50.4205C80.343 51.4556 76.5263 52.0782 71.704 52.2872C68.3722 52.4265 64.7336 52.4136 60.7893 52.2454C62.0515 50.9437 63.2585 50.0756 64.4097 49.6457C64.986 49.4306 65.2497 49.2386 65.2032 49.069C65.1876 48.8599 64.8067 48.8882 64.0612 49.1508C62.6359 49.6679 61.0732 50.6664 59.3712 52.1426C50.2143 50.6915 41.7251 50.2486 33.8993 50.8147C29.398 51.1406 25.3502 52.1781 21.7544 53.9298C17.2173 56.1624 14.7321 59.0645 14.2958 62.6305C14.1691 63.7494 14.4158 64.7534 15.0381 65.6437C13.1304 66.6828 11.5825 67.6442 10.3931 68.5259C3.42643 73.7086 0.13364 79.372 0.5139 85.5141C0.701283 88.5851 2.09566 90.7527 4.69416 92.0193C6.82477 93.0791 9.37525 93.4486 12.3456 93.1318C16.8364 92.6651 21.4033 91.0708 26.0413 88.3453C32.585 84.5423 38.7738 78.7241 44.6061 70.8837C45.436 69.8564 46.2321 68.8467 46.9953 67.8522ZM14.991 62.8381C15.3012 59.9404 17.4408 57.5509 21.412 55.6687C24.8071 54.0355 28.7902 53.0531 33.3606 52.7234C42.3281 52.0747 50.677 52.2515 58.408 53.2501C52.6147 58.7634 48.3122 63.2528 45.5023 66.7143C43.4278 65.4756 40.9678 64.9098 38.1212 65.0117C37.6484 63.7998 36.6413 62.8658 35.0985 62.2165C33.7001 61.6582 32.1166 61.427 30.3477 61.5203C25.4905 61.7316 20.5882 63.0057 15.6425 65.3405C15.0789 64.7572 14.8597 63.9236 14.991 62.8381ZM37.7184 66.6541C37.6793 68.4928 36.477 70.8492 34.111 73.7237C31.8705 76.4164 29.2454 78.841 26.236 81.0008C21.2082 84.6224 17.034 86.5547 13.7094 86.7951C12.5683 86.8778 11.5883 86.5821 10.7743 85.9135C9.95944 85.2449 9.57918 84.3379 9.63701 83.1905C9.74024 81.2778 11.008 79.0878 13.4382 76.6237C15.3791 74.6128 17.5528 72.8947 19.9546 71.4752C25.8927 67.9599 31.7543 65.9944 37.5365 65.5755C37.6672 65.9446 37.7288 66.3097 37.7184 66.6541ZM11.9818 92.4276C9.31915 92.6905 7.08589 92.3683 5.28088 91.4585C2.97127 90.343 1.71396 88.3897 1.5098 85.5996C1.34381 83.3218 2.26714 80.6999 4.27803 77.727C6.28777 74.7602 8.9117 72.1 12.1533 69.7514C18.4665 65.1692 24.5486 62.6662 30.4014 62.2424C34.0366 61.979 36.3494 62.9038 37.3386 65.0172C34.534 65.2199 32.1422 65.5833 30.1603 66.1087C27.124 66.9524 23.752 68.4113 20.0373 70.4804C17.3957 71.9555 14.9927 73.8417 12.8297 76.1486C10.3391 78.7558 9.0453 81.0665 8.9493 83.084C8.88395 84.5792 9.36802 85.7234 10.4012 86.5138C11.3211 87.2089 12.4922 87.5043 13.9121 87.4032C17.4772 87.1455 21.7908 85.1859 26.8493 81.5274C30.0565 79.2174 32.7131 76.7527 34.8185 74.1426C37.1857 71.2659 38.3791 68.7888 38.4016 66.7091C38.4164 66.4295 38.371 66.0523 38.266 65.5729C41.1577 65.6057 43.4243 66.1364 45.0667 67.1637C43.6455 68.6849 42.3098 70.1683 41.058 71.6102C29.5895 84.743 19.8974 91.6844 11.9818 92.4276ZM66.4052 58.3904C68.6671 56.4584 70.4643 55.586 71.8006 55.7657C71.9044 55.7567 72.3263 55.7962 73.0622 55.88C73.4804 55.8869 73.7178 55.8181 73.7782 55.6727C73.9037 55.4924 73.8719 55.3035 73.6834 55.1092C73.4957 54.912 73.2612 54.7933 72.9792 54.7452C71.8116 54.4821 70.2353 54.8221 68.2501 55.7605C64.8344 57.6047 60.1889 61.6821 54.3158 67.9979C52.4429 70.0059 50.4765 72.3827 48.4144 75.1333C44.1535 81.1246 42.0761 84.8625 42.184 86.346C42.2276 86.9302 42.4893 87.189 42.9722 87.1208C43.3143 87.0577 43.6908 86.722 44.0983 86.103C44.5653 85.3394 45.0476 84.5617 45.547 83.7621C48.4118 79.1526 51.5881 74.7484 55.0758 70.5435C59.5229 65.1974 63.2998 61.1474 66.4052 58.3904Z" fill="black"/>
<path d="M131.607 17.0345H131.6C129.224 17.04 127.1 18.152 127.1 22.1122V60.9656H136.103V22.1122C136.103 18.152 133.982 17.04 131.607 17.0345Z" fill="#252525"/>
<path d="M131.602 -1.80571e-05C116.36 -1.80571e-05 109.992 9.2938 109.992 23.9343V60.9656H118.996V23.31C118.996 12.4536 124.966 8.98745 131.602 8.96551C138.238 8.98739 144.208 12.4538 144.208 23.3102V60.9655H153.212V23.9342C153.212 5.29207 143.001 0.023905 131.602 -1.80571e-05Z" fill="#252525"/>
<path d="M79.379 27.7928L78.0283 23.7583L76.6779 27.7928H72.1758L75.7774 30.4826L74.4267 34.5171L78.0283 31.8273L81.6299 34.5171L80.2795 30.4826L83.8811 27.7928H79.379ZM183.826 27.7928L185.177 23.7583L186.527 27.7928H191.029L187.428 30.4826L188.778 34.5171L185.177 31.8273L181.575 34.5171L182.926 30.4826L179.324 27.7928H183.826ZM165.818 27.7928L167.168 23.7583L168.519 27.7928H173.021L169.419 30.4826L170.77 34.5171L167.168 31.8273L163.567 34.5171L164.917 30.4826L161.316 27.7928H165.818ZM97.3874 27.7928L96.0367 23.7583L94.6863 27.7928H90.1842L93.7858 30.4826L92.4351 34.5171L96.0367 31.8273L99.6386 34.5171L98.2879 30.4826L101.89 27.7928H97.3874Z" fill="black"/>
<path d="M109.619 97.687H111.965V97.9332H111.503C111.385 97.9332 111.326 97.9919 111.326 98.1097C111.326 98.1592 111.335 98.1978 111.352 98.2272L113.136 101.658C113.464 101.016 113.724 100.489 113.914 100.078C114.106 99.6671 114.252 99.3311 114.353 99.07C114.454 98.8082 114.519 98.6136 114.549 98.4849C114.579 98.3562 114.593 98.2491 114.593 98.1641C114.593 98.0101 114.508 97.9332 114.336 97.9332H113.882V97.687H115.81V97.9332H115.526C115.413 97.9977 115.305 98.0959 115.202 98.2278C115.098 98.3593 114.986 98.5396 114.866 98.7688C114.745 98.9977 114.552 99.3884 114.288 99.941C114.023 100.494 113.812 100.933 113.653 101.26C113.333 101.912 113.105 102.368 112.967 102.629C112.83 102.889 112.679 103.129 112.514 103.345C112.349 103.562 112.167 103.725 111.967 103.835C111.766 103.945 111.529 104 111.254 104C111.062 104 110.89 103.964 110.74 103.891C110.59 103.819 110.473 103.721 110.392 103.597C110.309 103.474 110.267 103.341 110.267 103.197C110.267 103.04 110.319 102.914 110.42 102.818C110.522 102.722 110.64 102.674 110.775 102.674C110.912 102.674 111.027 102.716 111.118 102.8C111.208 102.883 111.254 102.994 111.254 103.134C111.254 103.201 111.246 103.265 111.228 103.329C111.209 103.388 111.2 103.438 111.2 103.48C111.2 103.533 111.228 103.584 111.283 103.634C111.339 103.683 111.413 103.709 111.503 103.709C111.69 103.709 111.885 103.613 112.089 103.421C112.293 103.23 112.488 102.937 112.674 102.543L110.482 98.3841C110.327 98.0835 110.102 97.9332 109.806 97.9332H109.619L109.619 97.687Z" fill="black"/>
<path d="M130.68 97.3329H133.184V97.5814H132.677C132.453 97.5814 132.342 97.7138 132.342 97.9784V98.1898C132.458 98.1785 132.626 98.1728 132.847 98.1728C133.576 98.1728 134.153 98.3038 134.575 98.5658C134.997 98.8278 135.285 99.1428 135.439 99.5114C135.595 99.8799 135.672 100.25 135.672 100.623C135.672 101.267 135.516 101.767 135.205 102.125C134.893 102.483 134.52 102.724 134.086 102.849C133.653 102.974 133.21 103.037 132.758 103.037C132.634 103.037 132.495 103.031 132.342 103.02V103.231C132.342 103.496 132.453 103.628 132.677 103.628H133.184V103.877H130.68V103.628H131.185C131.411 103.628 131.524 103.496 131.524 103.231V103.02C131.368 103.031 131.228 103.037 131.105 103.037C130.652 103.037 130.21 102.974 129.777 102.849C129.344 102.724 128.972 102.483 128.661 102.125C128.348 101.767 128.193 101.267 128.193 100.623C128.193 100.25 128.271 99.8799 128.424 99.5114C128.578 99.1428 128.866 98.8278 129.288 98.5658C129.711 98.3038 130.286 98.1728 131.017 98.1728C131.236 98.1728 131.405 98.1785 131.524 98.1898V97.9784C131.524 97.7138 131.411 97.5814 131.185 97.5814H130.68L130.68 97.3329ZM131.524 102.772V98.4385C131.382 98.4267 131.275 98.4213 131.202 98.4213C130.85 98.4213 130.518 98.4924 130.209 98.6358C129.898 98.7792 129.646 99.0153 129.452 99.3441C129.258 99.6729 129.16 100.096 129.16 100.615C129.16 101.359 129.364 101.907 129.771 102.26C130.178 102.612 130.661 102.789 131.22 102.789C131.292 102.789 131.394 102.783 131.524 102.772ZM132.342 98.4385V102.772C132.471 102.783 132.572 102.789 132.643 102.789C132.996 102.789 133.328 102.716 133.639 102.572C133.95 102.427 134.206 102.191 134.404 101.865C134.603 101.538 134.703 101.122 134.703 100.615C134.703 100.096 134.605 99.6729 134.411 99.3441C134.216 99.0153 133.965 98.7792 133.656 98.6358C133.346 98.4924 133.014 98.4213 132.66 98.4213C132.589 98.4213 132.483 98.4267 132.342 98.4385Z" fill="black"/>
<path d="M151.775 101.463H149.758L149.554 102.011C149.371 102.508 149.264 102.807 149.231 102.909C149.197 103.01 149.181 103.115 149.181 103.223C149.181 103.335 149.204 103.431 149.252 103.51C149.3 103.589 149.362 103.628 149.439 103.628H149.794V103.877H147.99V103.628H148.16C148.309 103.628 148.48 103.478 148.676 103.178C148.871 102.877 149.126 102.305 149.439 101.463L150.887 97.5618H151.171L153.168 103.089C153.205 103.193 153.244 103.281 153.286 103.354C153.327 103.428 153.388 103.492 153.468 103.547C153.548 103.601 153.652 103.628 153.782 103.628H153.977V103.877H151.703V103.628H152.059C152.176 103.628 152.264 103.611 152.323 103.577C152.384 103.542 152.414 103.475 152.414 103.374C152.414 103.289 152.349 103.065 152.219 102.7L151.775 101.463ZM149.847 101.215H151.694L150.77 98.6668L149.847 101.215Z" fill="black"/>
</g>
<defs>
<clipPath id="clip0_416_15140">
<rect width="256" height="104" fill="white"/>
</clipPath>
</defs>
</svg>
