<svg width="19" height="19" viewBox="0 0 19 19" fill="none" xmlns="http://www.w3.org/2000/svg">
<path d="M16.9746 8.74789L9.6992 16.0233C8.80791 16.9146 7.59906 17.4153 6.33858 17.4153C5.0781 17.4153 3.86925 16.9146 2.97795 16.0233C2.08666 15.132 1.58594 13.9232 1.58594 12.6627C1.58594 11.4022 2.08666 10.1934 2.97795 9.30206L10.2534 2.02664C10.8476 1.43245 11.6535 1.09863 12.4938 1.09863C13.3341 1.09863 14.14 1.43245 14.7342 2.02664C15.3284 2.62084 15.6622 3.42674 15.6622 4.26706C15.6622 5.10738 15.3284 5.91328 14.7342 6.50748L7.45087 13.7829C7.15377 14.08 6.75082 14.2469 6.33066 14.2469C5.9105 14.2469 5.50755 14.08 5.21045 13.7829C4.91336 13.4858 4.74645 13.0828 4.74645 12.6627C4.74645 12.2425 4.91336 11.8396 5.21045 11.5425L11.9317 4.82914" stroke="#252525" stroke-linecap="round" stroke-linejoin="round"/>
</svg>
