<svg width="63" height="22" viewBox="0 0 63 22" fill="none" xmlns="http://www.w3.org/2000/svg">
<path d="M30.3238 3.92847V17.4267H27.5V3.92847H30.3238ZM33.9265 10.4612C34.3577 10.3077 34.7054 10.0564 34.928 9.70745C35.1506 9.35848 35.2758 8.89783 35.2758 8.32552C35.2758 7.54382 35.0532 6.97151 34.5942 6.59462C34.1491 6.21773 33.4257 6.0223 32.4659 6.0223H28.8771V3.92847H32.3407C34.3021 3.92847 35.7626 4.2914 36.7224 5.03122C37.6822 5.75708 38.1552 6.85984 38.1552 8.32552C38.1552 9.41431 37.9187 10.2798 37.4457 10.9358C36.9728 11.5919 36.3051 12.0665 35.4566 12.3596C34.6081 12.6528 33.5509 12.8063 32.3268 12.8063H28.8771V10.6846H32.3407C32.9528 10.6985 33.4814 10.6148 33.9265 10.4612Z" fill="#252525"/>
<path d="M49.5722 15.0412C49.5722 15.446 49.5861 15.8368 49.6 16.2277C49.6139 16.6185 49.6557 17.0233 49.6974 17.4282H46.9849C46.9571 17.3304 46.9154 17.1769 46.8737 16.9954C46.818 16.814 46.7902 16.6325 46.7624 16.451H46.665C46.4285 16.6325 46.1781 16.814 45.886 16.9815C45.5939 17.1629 45.2322 17.3025 44.801 17.4002C44.3698 17.5119 43.8412 17.5677 43.2292 17.5677C42.1442 17.5677 41.2818 17.3025 40.628 16.7721C39.9742 16.2416 39.6543 15.4879 39.6543 14.5247C39.6543 13.757 39.8769 13.1428 40.3081 12.6682C40.7393 12.1936 41.4209 11.8306 42.325 11.6212C43.2292 11.4119 44.4255 11.2862 45.8721 11.2862H46.7624V10.8954C46.7624 10.5604 46.6789 10.2812 46.4981 10.0579C46.3172 9.83451 46.0668 9.68096 45.7191 9.59721C45.3713 9.51346 44.968 9.47158 44.4672 9.47158C43.9525 9.47158 43.4378 9.51346 42.9093 9.59721C42.3807 9.68096 41.9077 9.79263 41.4904 9.93222C41.0731 10.0718 40.7254 10.2114 40.4611 10.351V8.32695C40.8923 8.10361 41.4904 7.90818 42.2555 7.75463C43.0205 7.58713 43.8969 7.51733 44.8984 7.51733C45.9556 7.51733 46.8319 7.61505 47.5135 7.83839C48.1951 8.04777 48.7098 8.4107 49.0575 8.91322C49.4053 9.41574 49.5722 10.0858 49.5722 10.9093V15.0412V15.0412ZM46.7763 12.9334H45.9417C45.1071 12.9334 44.4394 12.9753 43.9386 13.073C43.4378 13.1707 43.0762 13.3242 42.8536 13.5336C42.631 13.757 42.5198 14.0501 42.5198 14.427C42.5198 14.7062 42.5893 14.9574 42.7145 15.1529C42.8397 15.3483 43.0483 15.5018 43.3126 15.6135C43.5769 15.7252 43.9247 15.795 44.342 15.795C44.8984 15.795 45.3713 15.6972 45.7886 15.5158C46.192 15.3343 46.5259 15.0831 46.7902 14.762V12.9334H46.7763Z" fill="#252525"/>
<path d="M52.8246 20.1754V18.1514C53.0054 18.2631 53.2001 18.3608 53.4366 18.4166C53.6592 18.4864 53.9235 18.5143 54.2434 18.5143C54.5773 18.5143 54.8555 18.4724 55.078 18.3747C55.3006 18.277 55.4953 18.1235 55.6483 17.928C55.8014 17.7326 55.9405 17.4953 56.0796 17.2161L56.0239 18.0537L51.3779 7.6543H54.2991L57.8044 16.0994L56.8585 16.1971L60.183 7.6543H62.8538L58.9172 16.9928C58.6668 17.593 58.4026 18.0955 58.1244 18.5283C57.8322 18.961 57.5262 19.31 57.1784 19.6031C56.8307 19.8962 56.4412 20.1056 55.9961 20.2313C55.5649 20.3569 55.0363 20.4267 54.4521 20.4267C53.8817 20.4406 53.3393 20.3569 52.8246 20.1754Z" fill="#252525"/>
<rect width="22" height="22" rx="11" fill="#6E6E6E"/>
<path d="M12.5498 17.6111H14.8479V4.41113H11.5052C8.14346 4.41113 6.37713 6.13948 6.37713 8.68451C6.37713 10.7167 7.34576 11.9133 9.07411 13.1478L6.07324 17.6111H8.5613L11.904 12.616L10.7455 11.8373C9.34 10.8877 8.65626 10.147 8.65626 8.55156C8.65626 7.1461 9.64389 6.19646 11.5242 6.19646H12.5498V17.6111Z" fill="white"/>
</svg>
