<svg width="186" height="52" viewBox="0 0 186 52" fill="none" xmlns="http://www.w3.org/2000/svg">
<path d="M179.111 52H6.88889C3.10172 52 0 49.0734 0 45.5V6.5C0 2.92663 3.10172 2.74817e-06 6.88889 2.74817e-06H179.111C182.898 2.74817e-06 186 2.92663 186 6.5V45.5C186 49.0734 182.898 52 179.111 52Z" fill="white"/>
<path d="M179.111 1.04163C182.301 1.04163 184.896 3.4905 184.896 6.5V45.5C184.896 48.5095 182.301 50.9584 179.111 50.9584H6.88889C3.69933 50.9584 1.10394 48.5095 1.10394 45.5V6.5C1.10394 3.4905 3.69933 1.04163 6.88889 1.04163H179.111ZM179.111 2.74817e-06H6.88889C3.10172 2.74817e-06 0 2.92663 0 6.5V45.5C0 49.0734 3.10172 52 6.88889 52H179.111C182.898 52 186 49.0734 186 45.5V6.5C186 2.92663 182.898 2.74817e-06 179.111 2.74817e-06Z" fill="#A6A6A6"/>
<path d="M65.3308 13.3169C65.3308 14.4024 64.9863 15.2718 64.3078 15.9202C63.5276 16.6888 62.5115 17.0756 61.2663 17.0756C60.0763 17.0756 59.0602 16.6823 58.2266 15.9072C57.3913 15.1207 56.9745 14.1554 56.9745 13.0001C56.9745 11.8447 57.3913 10.8794 58.2266 10.0994C59.0602 9.31781 60.0763 8.92456 61.2663 8.92456C61.8588 8.92456 62.4237 9.03994 62.9627 9.25444C63.5 9.47056 63.9375 9.76306 64.2544 10.1238L63.5345 10.8096C62.9817 10.1937 62.2291 9.88981 61.2663 9.88981C60.3983 9.88981 59.6457 10.1758 59.0068 10.7527C58.3747 11.3312 58.0578 12.0803 58.0578 13.0001C58.0578 13.9198 58.3747 14.6754 59.0068 15.2539C59.6457 15.8243 60.3983 16.1168 61.2663 16.1168C62.1877 16.1168 62.9627 15.8243 63.5741 15.2474C63.9771 14.8656 64.2062 14.3391 64.2664 13.6663H61.2663V12.7271H65.2688C65.317 12.9302 65.3308 13.1268 65.3308 13.3169V13.3169Z" fill="#252525" stroke="#252525" stroke-width="0.16" stroke-miterlimit="10"/>
<path d="M71.6806 10.0604H67.921V12.5304H71.3103V13.4696H67.921V15.9396H71.6806V16.8968H66.8566V9.10327H71.6806V10.0604Z" fill="#252525" stroke="#252525" stroke-width="0.16" stroke-miterlimit="10"/>
<path d="M76.1618 16.8968H75.0975V10.0604H72.7914V9.10327H78.4696V10.0604H76.1618V16.8968V16.8968Z" fill="#252525" stroke="#252525" stroke-width="0.16" stroke-miterlimit="10"/>
<path d="M82.5788 16.8968V9.10327H83.6414V16.8968H82.5788Z" fill="#252525" stroke="#252525" stroke-width="0.16" stroke-miterlimit="10"/>
<path d="M88.3517 16.8968H87.296V10.0604H84.9813V9.10327H90.6664V10.0604H88.3517V16.8968Z" fill="#252525" stroke="#252525" stroke-width="0.16" stroke-miterlimit="10"/>
<path d="M101.416 15.8942C100.602 16.6823 99.5927 17.0756 98.3888 17.0756C97.1781 17.0756 96.1689 16.6823 95.3543 15.8942C94.5414 15.1077 94.1367 14.1424 94.1367 13.0001C94.1367 11.8577 94.5414 10.8924 95.3543 10.1059C96.1689 9.31781 97.1781 8.92456 98.3888 8.92456C99.5858 8.92456 100.595 9.31781 101.41 10.1124C102.229 10.9054 102.634 11.8642 102.634 13.0001C102.634 14.1424 102.229 15.1077 101.416 15.8942ZM96.1413 15.2409C96.7544 15.8243 97.5002 16.1168 98.3888 16.1168C99.2706 16.1168 100.023 15.8243 100.629 15.2409C101.241 14.6576 101.551 13.9084 101.551 13.0001C101.551 12.0917 101.241 11.3426 100.629 10.7592C100.023 10.1758 99.2706 9.88331 98.3888 9.88331C97.5002 9.88331 96.7544 10.1758 96.1413 10.7592C95.5299 11.3426 95.2199 12.0917 95.2199 13.0001C95.2199 13.9084 95.5299 14.6576 96.1413 15.2409V15.2409Z" fill="#252525" stroke="#252525" stroke-width="0.16" stroke-miterlimit="10"/>
<path d="M104.127 16.8968V9.10327H105.419L109.435 15.1645H109.482L109.435 13.6663V9.10327H110.498V16.8968H109.389L105.183 10.5365H105.136L105.183 12.0413V16.8968H104.127V16.8968Z" fill="#252525" stroke="#252525" stroke-width="0.16" stroke-miterlimit="10"/>
<path d="M93.8749 28.2783C90.6388 28.2783 87.9952 30.602 87.9952 33.8082C87.9952 36.9883 90.6388 39.3364 93.8749 39.3364C97.1178 39.3364 99.7614 36.9883 99.7614 33.8082C99.7614 30.602 97.1178 28.2783 93.8749 28.2783ZM93.8749 37.1589C92.0993 37.1589 90.5717 35.776 90.5717 33.8082C90.5717 31.8143 92.0993 30.4558 93.8749 30.4558C95.6505 30.4558 97.185 31.8143 97.185 33.8082C97.185 35.776 95.6505 37.1589 93.8749 37.1589V37.1589ZM81.046 28.2783C77.8031 28.2783 75.1664 30.602 75.1664 33.8082C75.1664 36.9883 77.8031 39.3364 81.046 39.3364C84.2873 39.3364 86.9257 36.9883 86.9257 33.8082C86.9257 30.602 84.2873 28.2783 81.046 28.2783ZM81.046 37.1589C79.2687 37.1589 77.7359 35.776 77.7359 33.8082C77.7359 31.8143 79.2687 30.4558 81.046 30.4558C82.8217 30.4558 84.3493 31.8143 84.3493 33.8082C84.3493 35.776 82.8217 37.1589 81.046 37.1589ZM65.7803 29.9732V32.3229H71.7271C71.5532 33.6359 71.0882 34.6012 70.3752 35.2739C69.5072 36.0864 68.1552 36.9883 65.7803 36.9883C62.1206 36.9883 59.2548 34.2014 59.2548 30.7483C59.2548 27.2952 62.1206 24.5083 65.7803 24.5083C67.7591 24.5083 69.1989 25.2379 70.2615 26.1837L72.0164 24.5278C70.5302 23.1888 68.5531 22.1602 65.7803 22.1602C60.7617 22.1602 56.544 26.013 56.544 30.7483C56.544 35.4835 60.7617 39.3364 65.7803 39.3364C68.4928 39.3364 70.5302 38.4979 72.1318 36.9249C73.7731 35.3763 74.2846 33.1988 74.2846 31.4405C74.2846 30.8945 74.2364 30.3924 74.1503 29.9732H65.7803ZM128.204 31.7948C127.72 30.5582 126.227 28.2783 123.185 28.2783C120.171 28.2783 117.662 30.5192 117.662 33.8082C117.662 36.9054 120.146 39.3364 123.475 39.3364C126.167 39.3364 127.72 37.7878 128.359 36.8859L126.361 35.6298C125.695 36.5495 124.787 37.1589 123.475 37.1589C122.171 37.1589 121.236 36.595 120.636 35.4835L128.474 32.4237L128.204 31.7948V31.7948ZM120.213 33.6359C120.146 31.5039 121.968 30.4119 123.273 30.4119C124.296 30.4119 125.164 30.8945 125.454 31.5852L120.213 33.6359V33.6359ZM113.842 39H116.419V22.75H113.842V39ZM109.623 29.51H109.537C108.958 28.8633 107.854 28.2783 106.456 28.2783C103.521 28.2783 100.838 30.7093 100.838 33.826C100.838 36.9249 103.521 39.3364 106.456 39.3364C107.854 39.3364 108.958 38.7465 109.537 38.0803H109.623V38.8733C109.623 40.9874 108.426 42.1233 106.495 42.1233C104.921 42.1233 103.945 41.0508 103.542 40.1489L101.301 41.0313C101.947 42.497 103.657 44.3008 106.495 44.3008C109.516 44.3008 112.065 42.6238 112.065 38.5434V28.6147H109.623V29.51V29.51ZM106.676 37.1589C104.901 37.1589 103.414 35.7565 103.414 33.826C103.414 31.8777 104.901 30.4558 106.676 30.4558C108.426 30.4558 109.805 31.8777 109.805 33.826C109.805 35.7565 108.426 37.1589 106.676 37.1589V37.1589ZM140.266 22.75H134.104V39H136.674V32.8429H140.266C143.12 32.8429 145.919 30.8945 145.919 27.7957C145.919 24.6984 143.113 22.75 140.266 22.75V22.75ZM140.334 30.5825H136.674V25.0104H140.334C142.252 25.0104 143.347 26.5135 143.347 27.7957C143.347 29.0534 142.252 30.5825 140.334 30.5825ZM156.218 28.2474C154.361 28.2474 152.43 29.0209 151.636 30.7353L153.917 31.6372C154.408 30.7353 155.31 30.4428 156.264 30.4428C157.597 30.4428 158.949 31.1984 158.97 32.5325V32.7032C158.505 32.4497 157.509 32.0743 156.285 32.0743C153.829 32.0743 151.326 33.3499 151.326 35.7305C151.326 37.908 153.338 39.3104 155.599 39.3104C157.328 39.3104 158.283 38.5743 158.882 37.7179H158.97V38.974H161.451V32.7405C161.451 29.8594 159.171 28.2474 156.218 28.2474ZM155.908 37.1524C155.067 37.1524 153.896 36.7592 153.896 35.776C153.896 34.5183 155.356 34.0357 156.621 34.0357C157.752 34.0357 158.283 34.2713 158.97 34.5817C158.768 36.0864 157.396 37.1524 155.908 37.1524V37.1524ZM170.493 28.6033L167.539 35.6477H167.452L164.398 28.6033H161.627L166.215 38.4475L163.597 43.9254H166.282L173.352 28.6033H170.493V28.6033ZM147.331 39H149.907V22.75H147.331V39Z" fill="#252525"/>
<path d="M14.3771 9.80044C13.9724 10.2002 13.7382 10.8226 13.7382 11.6286V40.3781C13.7382 41.1841 13.9724 41.8064 14.3771 42.2062L14.477 42.2939L31.5511 26.1902V25.8099L14.477 9.7062L14.3771 9.80044Z" fill="url(#paint0_linear_110_17452)"/>
<path d="M37.2361 31.5608L31.5511 26.1902V25.8099L37.243 20.4393L37.3705 20.5092L44.1113 24.128C46.035 25.155 46.035 26.845 44.1113 27.8785L37.3705 31.4909L37.2361 31.5608V31.5608Z" fill="url(#paint1_linear_110_17452)"/>
<path d="M37.3705 31.491L31.5511 26.0001L14.3771 42.2062C15.0161 42.84 16.058 42.9163 17.2429 42.2826L37.3705 31.491" fill="url(#paint2_linear_110_17452)"/>
<path d="M37.3705 20.5091L17.2429 9.7175C16.058 9.09025 15.0161 9.16663 14.3771 9.80038L31.5511 26L37.3705 20.5091Z" fill="url(#paint3_linear_110_17452)"/>
<defs>
<linearGradient id="paint0_linear_110_17452" x1="30.0351" y1="40.6775" x2="8.25479" y2="17.594" gradientUnits="userSpaceOnUse">
<stop stop-color="#00A0FF"/>
<stop offset="0.0066" stop-color="#00A1FF"/>
<stop offset="0.2601" stop-color="#00BEFF"/>
<stop offset="0.5122" stop-color="#00D2FF"/>
<stop offset="0.7604" stop-color="#00DFFF"/>
<stop offset="1" stop-color="#00E3FF"/>
</linearGradient>
<linearGradient id="paint1_linear_110_17452" x1="46.6163" y1="25.9982" x2="13.2783" y2="25.9982" gradientUnits="userSpaceOnUse">
<stop stop-color="#FFE000"/>
<stop offset="0.4087" stop-color="#FFBD00"/>
<stop offset="0.7754" stop-color="#FFA500"/>
<stop offset="1" stop-color="#FF9C00"/>
</linearGradient>
<linearGradient id="paint2_linear_110_17452" x1="34.2061" y1="23.0152" x2="4.6702" y2="-8.28785" gradientUnits="userSpaceOnUse">
<stop stop-color="#FF3A44"/>
<stop offset="1" stop-color="#C31162"/>
</linearGradient>
<linearGradient id="paint3_linear_110_17452" x1="10.0541" y1="51.7709" x2="23.2432" y2="37.7929" gradientUnits="userSpaceOnUse">
<stop stop-color="#32A071"/>
<stop offset="0.0685" stop-color="#2DA771"/>
<stop offset="0.4762" stop-color="#15CF74"/>
<stop offset="0.8009" stop-color="#06E775"/>
<stop offset="1" stop-color="#00F076"/>
</linearGradient>
</defs>
</svg>
