<svg width="45" height="45" viewBox="0 0 45 45" fill="none" xmlns="http://www.w3.org/2000/svg">
<circle cx="22.5" cy="22.5" r="22.5" fill="white"/>
<path d="M22.0034 17.4765L22.5 18.2088L22.9966 17.4765C23.7279 16.3981 24.8718 15.6 26.0861 15.6C28.1604 15.6 29.9 17.3916 29.9 19.6754V19.6769V19.6785V19.6801V19.6816V19.6832V19.6848V19.6863V19.6879V19.6894V19.691V19.6925V19.6941V19.6956V19.6972V19.6987V19.7003V19.7018V19.7034V19.7049V19.7064V19.708V19.7095V19.711V19.7125V19.7141V19.7156V19.7171V19.7186V19.7202V19.7217V19.7232V19.7247V19.7262V19.7277V19.7292V19.7307V19.7322V19.7337V19.7352V19.7367V19.7382V19.7397V19.7412V19.7427V19.7442V19.7457V19.7471V19.7486V19.7501V19.7516V19.7531V19.7546V19.756V19.7575V19.759V19.7604V19.7619V19.7634V19.7649V19.7663V19.7678V19.7692V19.7707V19.7722V19.7736V19.7751V19.7765V19.778V19.7794V19.7809V19.7824V19.7838V19.7852V19.7867V19.7881V19.7896V19.791V19.7925V19.7939V19.7954V19.7968V19.7982V19.7997V19.8011V19.8025V19.804V19.8054V19.8068V19.8083V19.8097V19.8111V19.8125V19.814V19.8154V19.8168V19.8182V19.8197V19.8211V19.8225V19.8239V19.8253V19.8268V19.8282V19.8296V19.831V19.8324V19.8338V19.8353V19.8367V19.8381V19.8395V19.8409V19.8423V19.8437V19.8451V19.8465V19.8479V19.8494V19.8508V19.8522V19.8536V19.855V19.8564V19.8578V19.8592V19.8606V19.862V19.8634V19.8648V19.8662V19.8676V19.869V19.8704V19.8718V19.8732V19.8746V19.876V19.8774V19.8788V19.8802V19.8816V19.883V19.8844V19.8857V19.8871V19.8885V19.8899V19.8913V19.8927V19.8941V19.8955V19.8969V19.8983V19.8997V19.9011V19.9025V19.9039V19.9053V19.9067V19.908V19.9094V19.9108V19.9122V19.9136V19.915V19.9164V19.9178V19.9192V19.9206V19.922V19.9234V19.9248V19.9262V19.9276V19.929V19.9303V19.9317V19.9331V19.9345V19.9359V19.9373V19.9387V19.9401V19.9415V19.9429V19.9443V19.9457V19.9471V19.9485V19.9499V19.9513V19.9527V19.9541V19.9555V19.9569V19.9583V19.9597V19.9611V19.9625V19.9639V19.9653V19.9667V19.9681V19.9695V19.9709V19.9723V19.9738V19.9752V19.9766V19.978V19.9794V19.9808V19.9822V19.9836V19.985V19.9865V19.9879V19.9893V19.9907V19.9921V19.9935V19.995V19.9964V19.9978V19.9992V20.0006V20.0021V20.0035V20.0049V20.0063V20.0078V20.0092V20.0106V20.0121V20.0135V20.0149V20.0163V20.0178V20.0192V20.0207V20.0221V20.0235V20.025V20.0264V20.0279V20.0293V20.0307V20.0322V20.0336V20.0351V20.0365V20.038V20.0394V20.0409V20.0423V20.0438V20.0453V20.0467V20.0482V20.0496V20.0511V20.0526V20.054V20.0555V20.057V20.0584V20.0599V20.0614V20.0629V20.0643V20.0658V20.0673V20.0688V20.0703V20.0717V20.0732V20.0747V20.0762V20.0777V20.0792V20.0807V20.0822V20.0837V20.0852V20.0867V20.0882V20.0897V20.0912V20.0927V20.0942V20.0957V20.0972V20.0987V20.1003V20.1018V20.1033V20.1048V20.1063V20.1079V20.1094V20.1109V20.1125V20.114V20.1155V20.1171V20.1186V20.1201V20.1217V20.1232V20.1248V20.1263V20.1279V20.1294V20.131V20.1326V20.1341V20.1357V20.1373V20.1388V20.1404V20.142V20.1435V20.1451V20.1467V20.1483V20.1499V20.1514V20.153V20.1546V20.1562V20.1578V20.1594V20.161V20.1626V20.1642V20.1658V20.1674V20.169V20.1707V20.1723V20.1739V20.1755V20.1771V20.1788V20.1804V20.182V20.1837V20.1853V20.187V20.1886V20.1902V20.1919V20.1935V20.1952V20.1969V20.1985V20.2002V20.2018V20.2035V20.2052V20.2069V20.2085V20.2102V20.2119V20.2136V20.2153V20.217V20.2187V20.2203V20.222V20.2237V20.2255V20.2272V20.2289V20.2306V20.2323V20.234V20.2357V20.2375V20.2392V20.2409V20.2427V20.2444V20.2462V20.2479V20.2496V20.2514V20.2532V20.2549V20.2567V20.2584V20.2602V20.262V20.2638V20.2655V20.2673V20.2691V20.2709V20.2727V20.2745V20.2763V20.2781V20.2799V20.2817V20.2835V20.2853V20.2871V20.2889V20.2908V20.2926V20.2944V20.2963V20.2981V20.2999V20.3018V20.3036V20.3055V20.3073V20.3092V20.3111V20.3129V20.3148V20.3167V20.3186V20.3204V20.3223V20.3242V20.3261V20.328V20.3299V20.3318V20.3337V20.3356V20.3376V20.3395V20.3414V20.3433V20.3453V20.3472V20.3491V20.3511V20.353V20.355V20.3569V20.3589V20.3609V20.3628V20.3648V20.3668V20.3687V20.3707V20.3727V20.3747V20.3767V20.3787V20.3807V20.3827V20.3847V20.3868V20.3888V20.3908V20.3928V20.3949V20.3969V20.3989V20.401V20.403V20.4051V20.4072V20.4092V20.4113V20.4134V20.4154V20.4175V20.4196V20.4217V20.4238V20.4259V20.428V20.4301V20.4322V20.4343V20.4364V20.4386V20.4407V20.4428V20.445V20.4471V20.4493V20.4514V20.4536V20.4557V20.4579V20.4601V20.4623V20.4644V20.4666V20.4688V20.471V20.4732V20.4754V20.4776V20.4798V20.4821V20.4843V20.4865V20.4888V20.491V20.4932V20.4955V20.4977V20.5C29.9 22.9759 28.0889 25.1959 26.1134 26.8605C25.1427 27.6784 24.169 28.3312 23.4365 28.78C23.071 29.004 22.7671 29.1762 22.5558 29.2917C22.538 29.3015 22.5209 29.3108 22.5044 29.3197C22.4873 29.3101 22.4694 29.3001 22.4508 29.2896C22.2392 29.1704 21.9349 28.9932 21.5689 28.7635C20.8356 28.3035 19.8608 27.637 18.889 26.8095C16.908 25.1228 15.1 22.9035 15.1 20.5L15.1 20.0651L15.1 19.6754C15.1 17.3916 16.8396 15.6 18.9139 15.6C20.1282 15.6 21.2721 16.3981 22.0034 17.4765Z" stroke="#40AB39" stroke-width="1.2"/>
</svg>
