<svg width="40" height="40" viewBox="0 0 40 40" fill="none" xmlns="http://www.w3.org/2000/svg">
<circle cx="20" cy="20" r="19.5" stroke="#40AB39"/>
<path d="M19.0034 14.4765L19.5 15.2088L19.9966 14.4765C20.7279 13.3981 21.8718 12.6 23.0861 12.6C25.1604 12.6 26.9 14.3916 26.9 16.6754V16.6769V16.6785V16.6801V16.6816V16.6832V16.6848V16.6863V16.6879V16.6894V16.691V16.6925V16.6941V16.6956V16.6972V16.6987V16.7003V16.7018V16.7034V16.7049V16.7064V16.708V16.7095V16.711V16.7125V16.7141V16.7156V16.7171V16.7186V16.7202V16.7217V16.7232V16.7247V16.7262V16.7277V16.7292V16.7307V16.7322V16.7337V16.7352V16.7367V16.7382V16.7397V16.7412V16.7427V16.7442V16.7457V16.7471V16.7486V16.7501V16.7516V16.7531V16.7546V16.756V16.7575V16.759V16.7604V16.7619V16.7634V16.7649V16.7663V16.7678V16.7692V16.7707V16.7722V16.7736V16.7751V16.7765V16.778V16.7794V16.7809V16.7824V16.7838V16.7852V16.7867V16.7881V16.7896V16.791V16.7925V16.7939V16.7954V16.7968V16.7982V16.7997V16.8011V16.8025V16.804V16.8054V16.8068V16.8083V16.8097V16.8111V16.8125V16.814V16.8154V16.8168V16.8182V16.8197V16.8211V16.8225V16.8239V16.8253V16.8268V16.8282V16.8296V16.831V16.8324V16.8338V16.8353V16.8367V16.8381V16.8395V16.8409V16.8423V16.8437V16.8451V16.8465V16.8479V16.8494V16.8508V16.8522V16.8536V16.855V16.8564V16.8578V16.8592V16.8606V16.862V16.8634V16.8648V16.8662V16.8676V16.869V16.8704V16.8718V16.8732V16.8746V16.876V16.8774V16.8788V16.8802V16.8816V16.883V16.8844V16.8857V16.8871V16.8885V16.8899V16.8913V16.8927V16.8941V16.8955V16.8969V16.8983V16.8997V16.9011V16.9025V16.9039V16.9053V16.9067V16.908V16.9094V16.9108V16.9122V16.9136V16.915V16.9164V16.9178V16.9192V16.9206V16.922V16.9234V16.9248V16.9262V16.9276V16.929V16.9303V16.9317V16.9331V16.9345V16.9359V16.9373V16.9387V16.9401V16.9415V16.9429V16.9443V16.9457V16.9471V16.9485V16.9499V16.9513V16.9527V16.9541V16.9555V16.9569V16.9583V16.9597V16.9611V16.9625V16.9639V16.9653V16.9667V16.9681V16.9695V16.9709V16.9723V16.9738V16.9752V16.9766V16.978V16.9794V16.9808V16.9822V16.9836V16.985V16.9865V16.9879V16.9893V16.9907V16.9921V16.9935V16.995V16.9964V16.9978V16.9992V17.0006V17.0021V17.0035V17.0049V17.0063V17.0078V17.0092V17.0106V17.0121V17.0135V17.0149V17.0163V17.0178V17.0192V17.0207V17.0221V17.0235V17.025V17.0264V17.0279V17.0293V17.0307V17.0322V17.0336V17.0351V17.0365V17.038V17.0394V17.0409V17.0423V17.0438V17.0453V17.0467V17.0482V17.0496V17.0511V17.0526V17.054V17.0555V17.057V17.0584V17.0599V17.0614V17.0629V17.0643V17.0658V17.0673V17.0688V17.0703V17.0717V17.0732V17.0747V17.0762V17.0777V17.0792V17.0807V17.0822V17.0837V17.0852V17.0867V17.0882V17.0897V17.0912V17.0927V17.0942V17.0957V17.0972V17.0987V17.1003V17.1018V17.1033V17.1048V17.1063V17.1079V17.1094V17.1109V17.1125V17.114V17.1155V17.1171V17.1186V17.1201V17.1217V17.1232V17.1248V17.1263V17.1279V17.1294V17.131V17.1326V17.1341V17.1357V17.1373V17.1388V17.1404V17.142V17.1435V17.1451V17.1467V17.1483V17.1499V17.1514V17.153V17.1546V17.1562V17.1578V17.1594V17.161V17.1626V17.1642V17.1658V17.1674V17.169V17.1707V17.1723V17.1739V17.1755V17.1771V17.1788V17.1804V17.182V17.1837V17.1853V17.187V17.1886V17.1902V17.1919V17.1935V17.1952V17.1969V17.1985V17.2002V17.2018V17.2035V17.2052V17.2069V17.2085V17.2102V17.2119V17.2136V17.2153V17.217V17.2187V17.2203V17.222V17.2237V17.2255V17.2272V17.2289V17.2306V17.2323V17.234V17.2357V17.2375V17.2392V17.2409V17.2427V17.2444V17.2462V17.2479V17.2496V17.2514V17.2532V17.2549V17.2567V17.2584V17.2602V17.262V17.2638V17.2655V17.2673V17.2691V17.2709V17.2727V17.2745V17.2763V17.2781V17.2799V17.2817V17.2835V17.2853V17.2871V17.2889V17.2908V17.2926V17.2944V17.2963V17.2981V17.2999V17.3018V17.3036V17.3055V17.3073V17.3092V17.3111V17.3129V17.3148V17.3167V17.3186V17.3204V17.3223V17.3242V17.3261V17.328V17.3299V17.3318V17.3337V17.3356V17.3376V17.3395V17.3414V17.3433V17.3453V17.3472V17.3491V17.3511V17.353V17.355V17.3569V17.3589V17.3609V17.3628V17.3648V17.3668V17.3687V17.3707V17.3727V17.3747V17.3767V17.3787V17.3807V17.3827V17.3847V17.3868V17.3888V17.3908V17.3928V17.3949V17.3969V17.3989V17.401V17.403V17.4051V17.4072V17.4092V17.4113V17.4134V17.4154V17.4175V17.4196V17.4217V17.4238V17.4259V17.428V17.4301V17.4322V17.4343V17.4364V17.4386V17.4407V17.4428V17.445V17.4471V17.4493V17.4514V17.4536V17.4557V17.4579V17.4601V17.4623V17.4644V17.4666V17.4688V17.471V17.4732V17.4754V17.4776V17.4798V17.4821V17.4843V17.4865V17.4888V17.491V17.4932V17.4955V17.4977V17.5C26.9 19.9759 25.0889 22.1959 23.1134 23.8605C22.1427 24.6784 21.169 25.3312 20.4365 25.78C20.071 26.004 19.7671 26.1762 19.5558 26.2917C19.538 26.3015 19.5209 26.3108 19.5044 26.3197C19.4873 26.3101 19.4694 26.3001 19.4508 26.2896C19.2392 26.1704 18.9349 25.9932 18.5689 25.7635C17.8356 25.3035 16.8608 24.637 15.889 23.8095C13.908 22.1228 12.1 19.9035 12.1 17.5L12.1 17.0651L12.1 16.6754C12.1 14.3916 13.8396 12.6 15.9139 12.6C17.1282 12.6 18.2721 13.3981 19.0034 14.4765Z" stroke="#40AB39" fill="none" stroke-width="1.2"/>
</svg>
