<svg width="222" height="66" viewBox="0 0 222 66" fill="none" xmlns="http://www.w3.org/2000/svg">
<g clip-path="url(#clip0_390_11481)">
<mask id="mask0_390_11481" style="mask-type:luminance" maskUnits="userSpaceOnUse" x="0" y="0" width="222" height="66">
<path d="M222 0.0124512H0V65.1749H222V0.0124512Z" fill="white"/>
</mask>
<g mask="url(#mask0_390_11481)">
<path fill-rule="evenodd" clip-rule="evenodd" d="M25.3931 0.0124512C39.4161 0.0124512 50.7862 14.6056 50.7862 32.543C50.7862 50.5817 39.4161 65.0736 25.3931 65.0736C11.3701 65.1749 0 50.5817 0 32.543C0 14.6056 11.3701 0.0124512 25.3931 0.0124512Z" fill="#252525"/>
<path fill-rule="evenodd" clip-rule="evenodd" d="M15.8237 31.935C18.1925 31.935 20.3717 32.8471 22.0773 34.2658C21.793 35.8873 21.6036 37.4074 21.414 39.0289C19.898 36.6981 17.3398 35.178 14.4973 35.178C9.85445 35.178 6.06448 39.2315 6.06448 44.1973C6.06448 44.5013 6.06448 44.8053 6.06448 45.1094C5.87497 44.2987 5.78022 43.5893 5.78022 42.7785C5.78022 36.7994 10.2335 31.935 15.8237 31.935ZM26.9096 61.02C26.4358 61.02 25.9621 61.1213 25.3935 61.1213C20.0875 61.1213 15.1605 58.5878 11.3705 54.3314C10.2335 50.3791 13.1708 46.0215 17.1502 46.0215C18.4768 46.0215 19.7085 46.5281 20.7508 47.3389C20.7508 45.6161 20.8455 43.8933 21.035 42.1705C20.1823 41.8665 19.2347 41.6638 18.2872 41.6638C12.5075 41.6638 7.86476 48.7576 11.4652 54.4328C7.39097 49.7711 4.73797 43.4879 3.97997 36.2927C3.97997 30.5162 8.33848 25.8546 13.834 25.8546C17.624 25.8546 20.8455 28.084 22.5511 31.4283C22.8353 29.7055 23.0248 28.084 23.2143 26.2599C21.1298 24.1318 18.382 22.8143 15.2553 22.8143C9.00176 22.8143 3.88522 28.2867 3.88522 34.9753C3.88522 35.3806 3.88522 35.786 3.97997 36.1913C3.88522 34.9753 3.79047 33.7591 3.79047 32.5431C3.79047 27.8814 4.64322 23.5237 6.06448 19.6727C7.58046 16.5312 10.1388 14.403 14.3078 14.403C18.4768 14.403 22.93 18.1526 23.4985 23.1183C23.6881 21.1928 23.7828 19.166 23.7828 17.1392C23.7828 17.0379 23.7828 16.9365 23.7828 16.7338V16.6325C21.8878 14.0989 18.9505 12.3761 15.729 12.3761C11.939 12.3761 8.43322 14.8084 6.72773 18.0513C8.33848 14.5043 10.423 11.4641 12.9812 9.1332C14.213 8.11984 15.8237 7.51177 17.5293 7.51177C22.7406 7.51177 25.204 12.0721 25.204 17.0379C25.204 35.3806 17.5293 49.5684 26.9096 61.02ZM25.3935 4.06616C30.4153 4.06616 35.058 6.29567 38.7533 10.1466C37.4269 8.93051 35.4371 8.32253 33.4473 8.32253C31.1733 8.32253 29.1836 9.23458 27.6675 10.7547C27.9518 11.4641 28.2361 12.1734 28.5203 12.9842C29.9416 10.7547 32.2156 9.33589 34.9633 9.33589C36.6688 9.33589 38.2796 9.94395 39.5114 10.9574C41.9748 13.6936 43.9646 17.1392 45.1964 21.0915C44.5331 19.47 43.4908 18.0513 42.0696 16.9365C38.0901 13.6936 32.5946 14.0989 28.9941 17.6459C28.9941 19.2673 28.9941 20.8888 28.8993 22.5103C29.1836 21.9022 29.4678 21.3955 29.8468 20.8888C32.8788 16.5312 38.6586 15.7204 42.7329 18.9633C44.3436 20.2808 45.4806 22.0036 45.9544 24.0304C46.6176 26.7666 46.9966 29.7055 46.9966 32.7457C46.9966 34.7726 46.8071 36.6981 46.5228 38.5222C46.3334 31.631 41.0273 26.1586 34.5843 26.1586C32.4051 26.1586 30.3206 26.7666 28.615 27.8814C28.615 28.5907 28.5203 29.3002 28.5203 30.0095C28.4255 31.1243 28.3308 32.239 28.3308 33.4552C30.2258 31.0229 33.1631 29.4015 36.3846 29.4015C41.5959 29.4015 45.9544 33.5565 46.6176 38.8263C46.0491 42.4745 44.9121 45.8188 43.3961 48.7576C43.3961 48.5549 43.3961 48.2509 43.3961 48.0483C43.3961 42.2719 39.0376 37.6101 33.6368 37.6101C31.5523 37.6101 29.6573 38.3195 28.1413 39.4342C28.0466 41.7651 28.0466 43.9946 28.2361 46.0215C29.5625 43.1839 32.3103 41.157 35.4371 41.157C39.6061 41.157 43.0171 44.5013 43.3961 48.859C41.3116 52.8113 38.5639 56.1556 35.2476 58.2837C31.7418 58.1824 28.615 55.6488 27.6675 52.1019C25.204 43.792 27.7623 28.5907 27.6675 17.3418C27.478 11.7681 24.8251 6.59969 18.9505 6.59969C16.6765 6.59969 14.7815 7.61311 13.1708 9.0319C16.6765 5.89031 20.8455 4.06616 25.3935 4.06616Z" fill="white"/>
<path fill-rule="evenodd" clip-rule="evenodd" d="M30.4152 12.5787C31.0784 12.5787 31.6469 13.1868 31.6469 13.8962C31.6469 14.6056 31.0784 15.2137 30.4152 15.2137C29.7519 15.2137 29.1834 14.6056 29.1834 13.8962C29.1834 13.1868 29.7519 12.5787 30.4152 12.5787ZM37.4266 11.0586C38.0899 11.0586 38.6585 11.6667 38.6585 12.376C38.6585 13.0855 38.0899 13.6935 37.4266 13.6935C36.7634 13.6935 36.1949 13.0855 36.1949 12.376C36.1949 11.6667 36.7634 11.0586 37.4266 11.0586ZM37.9952 18.9633C38.7532 19.1659 39.2269 20.078 39.0374 20.9901C38.8479 21.8008 37.9952 22.3075 37.1424 22.1048C36.3844 21.9022 35.9107 20.9901 36.1002 20.078C36.3844 19.2672 37.2372 18.7606 37.9952 18.9633ZM34.2999 20.078C34.9632 20.2807 35.3421 20.99 35.1526 21.6995C34.9632 22.4089 34.2999 22.8142 33.6367 22.6116C32.9734 22.4089 32.5944 21.6995 32.7839 20.9901C32.9734 20.2807 33.6367 19.8753 34.2999 20.078ZM41.4062 20.6861C42.0694 20.8887 42.4484 21.5981 42.2589 22.3075C42.0694 23.0169 41.4062 23.4223 40.743 23.2196C40.0797 23.0169 39.7007 22.3075 39.8902 21.5981C40.0797 20.8887 40.743 20.4834 41.4062 20.6861ZM44.154 23.0169C44.8172 23.2196 45.1962 23.929 45.0067 24.6383C44.8172 25.3477 44.154 25.7531 43.4907 25.5504C42.8275 25.3477 42.4484 24.6383 42.6379 23.929C42.8274 23.2196 43.4907 22.8142 44.154 23.0169ZM31.4574 22.1048C32.1206 22.3075 32.4997 23.0169 32.3101 23.7263C32.1206 24.4357 31.4574 24.841 30.7941 24.6383C30.1309 24.4357 29.7519 23.7263 29.9414 23.0169C30.1309 22.3075 30.7941 21.9022 31.4574 22.1048ZM37.8057 31.0229C38.5636 31.3269 38.9427 32.2389 38.6585 33.1511C38.3741 33.9617 37.5214 34.3671 36.6687 34.0631C35.9107 33.7591 35.5317 32.847 35.8159 31.9349C36.1949 31.1242 37.0477 30.7188 37.8057 31.0229ZM34.0156 31.7323C34.5842 32.0362 34.9632 32.7457 34.6789 33.3537C34.3946 33.9617 33.7314 34.3671 33.1629 34.0631C32.5944 33.7591 32.2154 33.0497 32.4997 32.4416C32.6892 31.8336 33.4472 31.4283 34.0156 31.7323ZM41.1219 33.0497C41.6904 33.3537 42.0694 34.0631 41.7851 34.6712C41.5009 35.2792 40.8377 35.6845 40.2692 35.3806C39.7007 35.0765 39.3217 34.3671 39.6059 33.7591C39.7954 33.151 40.4587 32.847 41.1219 33.0497ZM43.5854 35.6845C44.154 35.9886 44.5329 36.698 44.2487 37.306C43.9645 37.914 43.3012 38.3194 42.7327 38.0154C42.1642 37.7114 41.7852 37.002 42.0694 36.3939C42.2589 35.6845 42.9222 35.3806 43.5854 35.6845ZM30.9836 33.5564C31.5522 33.8604 31.9311 34.5698 31.6469 35.1779C31.3627 35.7859 30.6994 36.1913 30.1309 35.8872C29.5624 35.5832 29.1834 34.8738 29.4676 34.2658C29.6571 33.5564 30.4152 33.2524 30.9836 33.5564ZM18.6661 8.72781C17.8134 8.72781 17.1501 9.43718 17.1501 10.3492C17.1501 11.2613 17.8134 11.9707 18.6661 11.9707C19.5188 11.9707 20.1821 11.2613 20.1821 10.3492C20.0874 9.43718 19.4241 8.72781 18.6661 8.72781ZM21.9824 10.8559C21.3191 10.8559 20.7506 11.464 20.7506 12.1734C20.7506 12.8828 21.3191 13.4908 21.9824 13.4908C22.6456 13.4908 23.2141 12.8828 23.2141 12.1734C23.1194 11.3627 22.6456 10.8559 21.9824 10.8559ZM14.8761 9.33579C14.2128 9.33579 13.6444 9.94386 13.6444 10.6533C13.6444 11.3627 14.2128 11.9707 14.8761 11.9707C15.5394 11.9707 16.1078 11.3627 16.1078 10.6533C16.1078 9.84255 15.5394 9.33579 14.8761 9.33579ZM14.5919 16.3284C13.7391 16.4297 13.1706 17.2405 13.2653 18.1525C13.36 19.0646 14.1181 19.6726 14.9708 19.5713C15.8236 19.4699 16.3921 18.6593 16.2973 17.7471C16.2026 16.8351 15.4446 16.227 14.5919 16.3284ZM18.0976 17.9498C17.4343 18.0512 16.9606 18.6593 17.0553 19.3686C17.1501 20.078 17.7186 20.5847 18.3818 20.4834C19.0451 20.3821 19.5188 19.774 19.4241 19.0646C19.4241 18.3552 18.7609 17.8485 18.0976 17.9498ZM10.9913 17.4431C10.3281 17.5444 9.85431 18.1525 9.94905 18.8619C10.0438 19.5713 10.6123 20.078 11.2756 19.9767C11.9388 19.8753 12.4126 19.2672 12.3179 18.5579C12.223 17.8485 11.6546 17.3418 10.9913 17.4431ZM7.95929 19.3686C7.29608 19.4699 6.82231 20.078 6.91706 20.7874C7.01181 21.4968 7.58031 22.0035 8.24359 21.9022C8.9068 21.8008 9.38059 21.1927 9.28584 20.4834C9.28584 19.774 8.62257 19.2672 7.95929 19.3686ZM20.6558 20.382C19.9926 20.4834 19.5188 21.0914 19.6136 21.8008C19.7084 22.5102 20.2768 23.0169 20.9401 22.9155C21.6033 22.8142 22.0771 22.2062 21.9824 21.4968C21.8876 20.7874 21.3191 20.2807 20.6558 20.382ZM11.6546 27.2732C10.8966 27.6786 10.6123 28.5906 10.8966 29.4014C11.2756 30.2121 12.1283 30.5161 12.8863 30.2121C13.6444 29.8068 13.9286 28.8947 13.6444 28.084C13.36 27.2732 12.4126 26.8678 11.6546 27.2732ZM15.5394 27.6786C14.9708 27.9827 14.6866 28.7933 14.9708 29.4014C15.2551 30.0094 16.0131 30.3134 16.5816 30.0094C17.1501 29.7055 17.4343 28.8947 17.1501 28.2866C16.8659 27.6786 16.1078 27.3746 15.5394 27.6786ZM8.52782 29.5028C7.95929 29.8068 7.67506 30.6175 7.95929 31.2256C8.24359 31.8336 9.00154 32.1376 9.57008 31.8336C10.1385 31.5296 10.4228 30.7188 10.1385 30.1108C9.85431 29.5028 9.1911 29.1987 8.52782 29.5028ZM6.2538 32.3403C5.68531 32.6443 5.40105 33.3537 5.68531 33.9617C5.96956 34.5698 6.72756 34.8738 7.29608 34.5698C7.86454 34.2658 8.14885 33.4551 7.86454 32.847C7.58031 32.2389 6.82231 32.0362 6.2538 32.3403ZM18.6661 29.3001C18.0976 29.6041 17.8134 30.4148 18.0976 31.0229C18.3818 31.6309 19.1399 31.9349 19.7084 31.6309C20.2769 31.3269 20.5611 30.5161 20.2769 29.9081C19.9926 29.1987 19.2346 28.996 18.6661 29.3001ZM11.8441 37.5087C12.6968 37.306 13.4549 37.914 13.6444 38.7248C13.8338 39.6368 13.2653 40.4476 12.5074 40.6503C11.6546 40.853 10.8966 40.2449 10.7071 39.4342C10.5176 38.6235 11.0861 37.7114 11.8441 37.5087ZM9.00154 40.3463C9.66482 40.2449 10.3281 40.6503 10.4228 41.3596C10.5176 42.0691 10.1385 42.7785 9.47533 42.8798C8.81205 42.9811 8.14885 42.5758 8.05403 41.8664C7.95929 41.1569 8.33833 40.549 9.00154 40.3463ZM15.6341 37.306C16.2973 37.2047 16.9606 37.61 17.0553 38.3194C17.1501 39.0288 16.7711 39.7382 16.1078 39.8395C15.4446 39.9409 14.7813 39.5355 14.6866 38.8262C14.5919 38.1167 14.9708 37.4073 15.6341 37.306ZM17.0553 47.5415C17.9081 47.4402 18.6661 48.0482 18.7609 48.9603C18.8556 49.8724 18.2871 50.683 17.4343 50.7844C16.5816 50.8857 15.8236 50.2777 15.7289 49.3656C15.7289 48.4535 16.2973 47.6428 17.0553 47.5415ZM14.0233 50.1763C14.6866 50.075 15.2551 50.5817 15.3498 51.2911C15.4446 52.0005 14.9708 52.6085 14.3076 52.7099C13.6444 52.8112 13.0758 52.3045 12.9811 51.5952C12.9811 50.8857 13.36 50.1763 14.0233 50.1763ZM36.4791 43.1838C37.2372 43.4878 37.7109 44.3999 37.4266 45.2106C37.1424 46.0214 36.2896 46.5281 35.5317 46.2241C34.7737 45.92 34.2999 45.0079 34.5842 44.1972C34.8684 43.2851 35.7212 42.8798 36.4791 43.1838ZM32.6892 43.9946C33.3524 44.1973 33.6367 45.0079 33.4472 45.616C33.2576 46.3254 32.4997 46.6294 31.9311 46.4267C31.2679 46.2241 30.9836 45.4133 31.1731 44.8052C31.3627 44.0959 32.0259 43.7919 32.6892 43.9946ZM39.7955 45.1093C40.4587 45.312 40.743 46.1227 40.5534 46.7307C40.3639 47.4401 39.6059 47.7442 39.0374 47.5415C38.3741 47.3388 38.0899 46.528 38.2794 45.92C38.4689 45.2106 39.1322 44.8052 39.7955 45.1093ZM27.0041 5.48486C27.8569 5.48486 28.5201 6.19425 28.5201 7.10632C28.5201 8.01836 27.8569 8.72781 27.0041 8.72781C26.1514 8.72781 25.4881 8.01836 25.4881 7.10632C25.4881 6.19425 26.2461 5.48486 27.0041 5.48486ZM33.7314 10.4506C34.5842 10.4506 35.2474 11.16 35.2474 12.072C35.2474 12.9841 34.5842 13.6935 33.7314 13.6935C32.8786 13.6935 32.2154 12.9841 32.2154 12.072C32.2154 11.2613 32.8786 10.4506 33.7314 10.4506Z" fill="#252525"/>
<path fill-rule="evenodd" clip-rule="evenodd" d="M197.364 29.1987C197.744 28.6921 198.123 28.2867 198.596 27.78C199.07 27.3746 199.639 26.9693 200.207 26.5639C200.775 26.2599 201.439 25.9558 202.197 25.7531C202.955 25.5504 203.713 25.4491 204.471 25.4491C205.229 25.4491 205.987 25.5504 206.745 25.7531C207.503 25.9558 208.167 26.2599 208.734 26.6652C209.303 27.0706 209.872 27.5773 210.346 28.1853C210.819 28.7934 211.198 29.6041 211.388 30.4149C211.577 30.9215 211.672 31.4282 211.672 32.0363C211.767 32.6443 211.767 33.2524 211.767 34.0632V48.859H206.555V34.8738C206.555 34.2658 206.555 33.7591 206.461 33.2524C206.461 32.847 206.366 32.4417 206.176 32.1377C205.892 31.4282 205.513 30.9215 204.945 30.6176C204.376 30.3135 203.807 30.1108 203.05 30.1108C202.007 30.1108 201.06 30.4149 200.112 30.9215C199.165 31.4282 198.407 32.1377 197.649 33.151V48.7577H192.437V25.9558H196.701L197.364 29.1987ZM184.668 39.0289C184.194 38.9275 183.626 38.8262 182.962 38.7248C182.299 38.6235 181.636 38.5221 180.973 38.5221C179.741 38.5221 178.699 38.8262 177.941 39.3329C177.183 39.8396 176.804 40.6503 176.804 41.7651C176.804 42.2718 176.899 42.6771 177.088 43.0825C177.278 43.4879 177.467 43.7919 177.751 43.9946C178.035 44.1973 178.32 44.3999 178.794 44.6026C179.173 44.704 179.551 44.8053 180.026 44.8053C180.594 44.8053 181.068 44.704 181.542 44.6026C182.015 44.5013 182.395 44.2986 182.868 43.9946C183.247 43.7919 183.626 43.4879 183.91 43.1839C184.194 42.8798 184.478 42.6771 184.668 42.3731V39.0289ZM185.142 46.3254C184.763 46.6295 184.384 47.0348 184.005 47.3388C183.626 47.6428 183.152 48.0482 182.584 48.3523C182.11 48.6563 181.446 48.859 180.878 49.0616C180.215 49.2643 179.551 49.3656 178.794 49.3656C177.751 49.3656 176.804 49.163 175.951 48.859C175.099 48.555 174.34 48.0482 173.677 47.4401C173.014 46.8322 172.54 46.0214 172.161 45.1094C171.782 44.1972 171.592 43.1839 171.592 42.0691C171.592 40.853 171.782 39.7383 172.256 38.8262C172.635 37.8128 173.298 37.002 173.961 36.394C174.719 35.6846 175.572 35.1779 176.615 34.8738C177.657 34.5698 178.794 34.3672 180.026 34.3672C180.973 34.3672 181.826 34.4685 182.584 34.5698C183.342 34.6711 184.005 34.8738 184.574 34.9752V34.0632C184.574 33.5564 184.478 33.0497 184.289 32.543C184.1 32.0363 183.815 31.6309 183.436 31.2256C183.058 30.8202 182.584 30.5162 182.015 30.3135C181.446 30.1108 180.689 30.0095 179.836 30.0095C178.794 30.0095 177.751 30.1108 176.709 30.4149C175.667 30.6176 174.53 31.0229 173.298 31.5296V27.1719C174.34 26.6652 175.477 26.2599 176.709 26.0572C177.941 25.7531 179.173 25.6518 180.499 25.6518C182.015 25.6518 183.436 25.8545 184.574 26.2599C185.71 26.6652 186.753 27.2733 187.511 27.9827C188.269 28.6921 188.838 29.5028 189.311 30.5162C189.69 31.5296 189.879 32.543 189.879 33.6578V42.1704C189.879 43.6905 189.879 45.008 189.879 46.0214C189.879 47.1362 189.974 48.0482 189.974 48.859H185.237L185.142 46.3254ZM160.128 49.2643C158.991 49.2643 157.949 49.0616 157.001 48.555C156.054 48.1496 155.295 47.5415 154.727 46.9335H154.632C154.632 47.2375 154.632 47.6428 154.632 48.2509C154.632 48.859 154.632 49.467 154.632 50.0751V56.5609H149.421V25.9558H153.969L154.158 28.4894H154.253C154.917 27.5773 155.77 26.8679 156.717 26.2599C157.759 25.6518 158.896 25.3478 160.222 25.3478C161.36 25.3478 162.497 25.5504 163.633 26.0572C164.771 26.4626 165.718 27.1719 166.571 28.1853C167.424 29.0974 168.087 30.3135 168.656 31.8336C169.129 33.2524 169.413 34.9752 169.413 37.002C169.413 39.1302 169.129 40.9544 168.56 42.4745C167.992 43.9946 167.234 45.312 166.381 46.3254C165.434 47.3388 164.486 48.0482 163.349 48.555C162.497 49.0616 161.36 49.2643 160.128 49.2643ZM159.465 29.9081C158.517 29.9081 157.664 30.2122 156.906 30.6176C156.054 31.1242 155.39 31.7323 154.727 32.4417V42.5758C154.917 42.8798 155.201 43.0825 155.485 43.3866C155.77 43.6905 156.148 43.8932 156.527 44.0959C156.906 44.2986 157.286 44.5013 157.759 44.6026C158.233 44.704 158.706 44.8053 159.18 44.8053C159.938 44.8053 160.697 44.6026 161.36 44.2986C162.023 43.8932 162.497 43.3866 162.97 42.7785C163.349 42.0691 163.729 41.2584 163.918 40.3463C164.107 39.4342 164.202 38.4208 164.202 37.2047C164.202 35.9887 164.107 34.8738 163.823 33.9618C163.633 33.0497 163.255 32.239 162.876 31.6309C162.497 31.0229 161.928 30.5162 161.36 30.2122C160.886 30.0095 160.222 29.9081 159.465 29.9081ZM141.462 34.8738C141.462 34.3672 141.462 33.9618 141.462 33.5564C141.462 33.151 141.367 32.7457 141.272 32.4417C141.083 31.7323 140.799 31.2256 140.325 30.8202C139.851 30.4149 139.188 30.2122 138.335 30.2122C137.861 30.2122 137.388 30.3135 136.914 30.4149C136.44 30.5162 135.966 30.7189 135.493 31.0229C135.019 31.3269 134.545 31.6309 134.166 31.935C133.693 32.3404 133.313 32.7457 133.03 33.151V48.7577H127.818V34.8738C127.818 34.3672 127.818 33.9618 127.818 33.5564C127.818 33.151 127.723 32.7457 127.629 32.4417C127.439 31.7323 127.154 31.2256 126.681 30.8202C126.207 30.4149 125.544 30.2122 124.691 30.2122C124.218 30.2122 123.744 30.3135 123.27 30.4149C122.796 30.5162 122.323 30.7189 121.849 31.0229C121.375 31.3269 120.901 31.6309 120.522 31.935C120.048 32.3404 119.669 32.7457 119.385 33.151V48.7577H114.174V25.9558H118.438L118.911 29.0974H119.006C119.291 28.5907 119.669 28.1853 120.144 27.6786C120.617 27.2732 121.186 26.8679 121.754 26.4626C122.323 26.1585 122.986 25.8545 123.744 25.6518C124.407 25.4491 125.165 25.3478 126.018 25.3478C127.439 25.3478 128.67 25.6518 129.808 26.3612C130.945 27.0706 131.798 28.084 132.366 29.5028H132.461C132.84 28.8947 133.313 28.2867 133.787 27.78C134.261 27.2732 134.829 26.8679 135.493 26.4626C136.061 26.0572 136.725 25.8545 137.482 25.6518C138.146 25.4491 138.999 25.3478 139.756 25.3478C141.272 25.3478 142.504 25.7531 143.547 26.3612C144.589 27.0706 145.347 27.9827 145.916 29.0974C146.01 29.4014 146.199 29.7055 146.294 30.1108C146.389 30.4149 146.483 30.8202 146.579 31.3269C146.673 31.7323 146.673 32.239 146.768 32.7457C146.768 33.2524 146.768 33.8605 146.768 34.5698V48.6563H141.557V34.8738H141.462ZM101.572 49.2643C99.393 49.2643 97.6872 48.859 96.2664 48.1496C94.8449 47.3388 93.8029 46.3254 93.0445 45.008C92.6657 44.2986 92.3814 43.4879 92.1916 42.6771C92.0025 41.8664 91.9073 40.853 91.9073 39.8396V25.9558H97.1186V39.2316C97.1186 40.0422 97.2138 40.6503 97.3083 41.2584C97.4029 41.7651 97.5926 42.2718 97.7824 42.6771C98.1612 43.3866 98.6346 43.8932 99.2985 44.1972C99.9616 44.5013 100.719 44.704 101.572 44.704C102.52 44.704 103.277 44.5013 103.941 44.0959C104.604 43.6905 105.078 43.1839 105.457 42.3731C105.836 41.6637 105.931 40.6503 105.931 39.3329V25.9558H111.142V39.8396C111.142 41.6637 110.858 43.2852 110.289 44.5013C109.91 45.2107 109.531 45.92 108.963 46.4268C108.394 47.0348 107.825 47.5415 107.068 47.9469C106.309 48.3523 105.552 48.6563 104.604 48.859C103.657 49.163 102.709 49.2643 101.572 49.2643ZM67.9357 48.7577V17.3418H73.3366V31.6309H73.4312L84.5168 17.3418H91.1496L78.8322 32.847L92.0971 48.6563H85.18L73.3366 34.4685H73.2421V48.6563H67.9357V48.7577Z" fill="#252525"/>
</g>
</g>
<defs>
<clipPath id="clip0_390_11481">
<rect width="222" height="66" fill="white"/>
</clipPath>
</defs>
</svg>
