<svg width="138" height="35" viewBox="0 0 138 35" fill="none" xmlns="http://www.w3.org/2000/svg">
<path d="M0 13.9379V27.876H2.49463H4.98927V21.5884C4.98927 17.949 5.05163 15.3317 5.12959 15.3627C5.20755 15.3782 6.29895 16.5552 7.57745 17.9645C8.84036 19.3738 11.3818 22.1769 13.206 24.1901L16.5425 27.876H19.7544C22.7947 27.876 22.9506 27.8605 22.7323 27.5972C22.3893 27.1946 14.4221 18.3362 12.3017 15.9977C11.2726 14.8671 10.4463 13.8915 10.4463 13.8295C10.4463 13.7521 10.992 13.0707 11.6624 12.2963C13.9388 9.63262 21.5942 0.572892 21.7969 0.278645C21.9995 0.0153706 21.8748 -0.000116117 18.8968 -0.000116117H15.7941L11.4441 5.20342C9.05864 8.08395 6.67314 10.9335 6.15863 11.553C5.64411 12.1724 5.17636 12.6835 5.114 12.699C5.03604 12.699 4.98927 9.83395 4.98927 6.34944V-0.000116117H2.49463H0V13.9379Z" fill="white"/>
<path d="M53.0578 7.65032C51.639 8.11492 50.9841 8.50209 49.7836 9.6636C49.2379 10.1592 48.8013 10.5463 48.8013 10.5154C48.8013 10.4844 48.6922 9.86492 48.5674 9.13705C48.4427 8.40917 48.3336 7.80519 48.3336 7.77422C48.3336 7.75873 47.4293 7.74324 46.3067 7.74324H44.2798V17.8096V27.876H46.6965H49.1131V20.9534V14.0309L49.9083 13.272C50.3605 12.8384 51.1868 12.2809 51.8572 11.9711C54.0712 10.9335 55.911 11.1503 56.8621 12.5596L57.2987 13.2255L57.3454 20.5508L57.3922 27.876H59.8712H62.3659V20.845V13.814L63.1143 13.1636C64.0498 12.3583 65.8116 11.491 66.7627 11.3671C68.4777 11.1348 69.6003 11.6614 70.224 13.0087C70.5358 13.6747 70.5514 13.9844 70.5982 20.7831L70.6449 27.876H73.0616H75.4627V20.7056C75.4627 16.4778 75.4003 13.1326 75.2912 12.5441C74.7611 9.26094 72.3444 7.27864 68.8363 7.27864C66.3885 7.27864 64.268 8.17687 62.6465 9.88041C62.1164 10.4534 61.6643 10.8251 61.6331 10.7322C61.446 10.2056 60.2454 8.79634 59.6062 8.3782C57.8911 7.24767 55.2406 6.95342 53.0578 7.65032Z" fill="white"/>
<path d="M86.5014 7.57302C85.4412 7.91373 84.3186 8.59515 83.5858 9.35399C83.2896 9.66373 82.9778 9.91152 82.9154 9.91152C82.853 9.91152 82.7907 9.67922 82.7907 9.40045C82.7907 9.13718 82.7439 8.64161 82.6971 8.31638L82.588 7.74338H80.5143H78.425V21.3717V35H80.8417H83.2584V30.6637V26.3274L84.0847 26.9469C85.3321 27.9071 86.3299 28.2323 88.2477 28.3097C89.7133 28.3717 90.0251 28.3252 91.1009 27.969C93.5332 27.1482 95.1079 25.7389 96.3552 23.2611C96.9789 21.9912 97.2595 20.9381 97.4466 19.0951C98.0547 13.2566 95.4821 8.68807 90.9606 7.52656C89.6665 7.20134 87.624 7.21683 86.5014 7.57302ZM89.7444 11.5066C90.9294 12.1261 91.8025 13.427 92.2391 15.3009C92.5509 16.5708 92.4574 19.6527 92.0832 20.8297C90.867 24.6858 87.1563 25.7235 83.9288 23.1217L83.2584 22.5951V17.9801V13.3805L83.695 12.9779C85.2073 11.5996 86.3923 11.1195 88.0918 11.1969C88.7622 11.2279 89.4638 11.3673 89.7444 11.5066Z" fill="white"/>
<path d="M105.071 7.51104C104.432 7.63494 103.325 7.9137 102.623 8.13051L101.345 8.53317V10.4535V12.3739L102.249 12.0641C103.761 11.5376 104.946 11.2743 106.334 11.1504C110.091 10.8097 112.103 12.1261 112.103 14.9137C112.103 15.5486 112.056 15.6571 111.838 15.5796C109.951 15.0531 106.568 14.9447 104.977 15.3783C102.779 15.9513 101.079 17.2677 100.206 19.0332C99.723 20.0088 99.7074 20.1327 99.7074 21.9292V23.8031L100.331 25.0265C101.454 27.2101 103.138 28.1858 105.975 28.3097C107.285 28.3562 107.753 28.3252 108.626 28.0619C109.717 27.7212 110.855 27.0863 111.76 26.3119C112.399 25.7544 112.57 25.7544 112.57 26.2809C112.57 26.5287 112.617 26.9778 112.664 27.2876L112.773 27.8761H114.925H117.092L116.998 20.396C116.952 16.1526 116.842 12.6681 116.749 12.3119C116.219 10.2367 114.566 8.67255 111.993 7.80529C110.933 7.43361 110.481 7.37166 108.517 7.34069C107.02 7.30972 105.866 7.35618 105.071 7.51104ZM111.12 19.0641L112.103 19.2345V20.8141C112.103 21.6659 112.04 22.4557 111.978 22.5486C111.775 22.8584 110.356 23.865 109.779 24.0973C107.706 24.9646 105.601 24.5155 104.853 23.0597C104.541 22.4557 104.556 21.1084 104.899 20.4579C105.445 19.3584 106.552 18.9093 108.657 18.8938C109.468 18.8938 110.575 18.9712 111.12 19.0641Z" fill="white"/>
<path d="M128.941 7.52643C127.491 7.89811 126.213 8.62599 125.215 9.61714C124.701 10.1127 124.248 10.4844 124.217 10.4224C124.186 10.345 124.061 9.72555 123.952 9.01316L123.765 7.74325H121.754H119.742V17.8096V27.876H122.159H124.576V20.9379V13.9999L125.246 13.3339C127.382 11.1658 130.625 10.6393 132.262 12.2034C133.104 12.9932 133.151 13.4888 133.151 21.0154V27.876H135.568H138L137.953 19.9313L137.906 12.0021L137.408 10.9645C136.223 8.47112 134.18 7.27864 131.124 7.29413C130.391 7.29413 129.409 7.40254 128.941 7.52643Z" fill="white"/>
<path d="M23.1066 15.0532C23.169 22.2081 23.169 22.3939 23.512 23.3076C24.4786 25.8784 26.4899 27.52 29.3588 28.1395C30.1851 28.3098 31.0894 28.3563 32.7421 28.2944C34.7222 28.2324 35.1432 28.1705 36.1722 27.7988C38.854 26.8231 40.4287 25.1815 41.0835 22.6572C41.2706 21.9293 41.3174 20.4736 41.3174 14.759V7.74348H38.9007H36.4997L36.4529 14.5886L36.4061 21.4492L35.9851 22.332C35.2679 23.8652 33.662 24.624 31.6039 24.4072C29.6238 24.2059 28.4233 23.0908 28.0803 21.1705C27.9711 20.5665 27.9088 17.8408 27.9088 13.9691V7.74348H25.4765H23.0598L23.1066 15.0532Z" fill="white"/>
</svg>
