<svg width="239" height="66" viewBox="0 0 239 66" fill="none" xmlns="http://www.w3.org/2000/svg">
<g clip-path="url(#clip0_209_15345)">
<mask id="mask0_209_15345" style="mask-type:luminance" maskUnits="userSpaceOnUse" x="0" y="0" width="239" height="66">
<path d="M239 0.0124512H0V65.1749H239V0.0124512Z" fill="white"/>
</mask>
<g mask="url(#mask0_209_15345)">
<path fill-rule="evenodd" clip-rule="evenodd" d="M27.3376 0.0124512C42.4344 0.0124512 54.6752 14.6056 54.6752 32.543C54.6752 50.5817 42.4344 65.0736 27.3376 65.0736C12.2407 65.1749 0 50.5817 0 32.543C0 14.6056 12.2407 0.0124512 27.3376 0.0124512Z" fill="#252525"/>
<path fill-rule="evenodd" clip-rule="evenodd" d="M17.0358 31.935C19.5859 31.935 21.9321 32.8471 23.7682 34.2658C23.4622 35.8873 23.2582 37.4074 23.0541 39.0289C21.4221 36.6981 18.6679 35.178 15.6077 35.178C10.6094 35.178 6.5292 39.2315 6.5292 44.1973C6.5292 44.5013 6.5292 44.8053 6.5292 45.1094C6.32519 44.2987 6.22318 43.5893 6.22318 42.7785C6.22318 36.7994 11.0175 31.935 17.0358 31.935ZM28.9705 61.02C28.4605 61.02 27.9505 61.1213 27.3384 61.1213C21.6261 61.1213 16.3217 58.5878 12.2415 54.3314C11.0175 50.3791 14.1797 46.0215 18.4639 46.0215C19.892 46.0215 21.2181 46.5281 22.3401 47.3389C22.3401 45.6161 22.4421 43.8933 22.6461 42.1705C21.7281 41.8665 20.708 41.6638 19.6879 41.6638C13.4656 41.6638 8.46734 48.7576 12.3435 54.4328C7.95727 49.7711 5.10111 43.4879 4.28507 36.2927C4.28507 30.5162 8.97734 25.8546 14.8937 25.8546C18.9739 25.8546 22.4421 28.084 24.2783 31.4283C24.5843 29.7055 24.7883 28.084 24.9923 26.2599C22.7481 24.1318 19.79 22.8143 16.4238 22.8143C9.69141 22.8143 4.18306 28.2867 4.18306 34.9753C4.18306 35.3806 4.18306 35.786 4.28507 36.1913C4.18306 34.9753 4.08105 33.7591 4.08105 32.5431C4.08105 27.8814 4.99911 23.5237 6.5292 19.6727C8.16127 16.5312 10.9155 14.403 15.4037 14.403C19.892 14.403 24.6863 18.1526 25.2983 23.1183C25.5023 21.1928 25.6043 19.166 25.6043 17.1392C25.6043 17.0379 25.6043 16.9365 25.6043 16.7338V16.6325C23.5642 14.0989 20.402 12.3761 16.9338 12.3761C12.8535 12.3761 9.07934 14.8084 7.24324 18.0513C8.97734 14.5043 11.2215 11.4641 13.9756 9.1332C15.3017 8.11984 17.0358 7.51177 18.8719 7.51177C24.4823 7.51177 27.1344 12.0721 27.1344 17.0379C27.1344 35.3806 18.8719 49.5684 28.9705 61.02ZM27.3384 4.06616C32.7447 4.06616 37.743 6.29567 41.7213 10.1466C40.2932 8.93051 38.1511 8.32253 36.0089 8.32253C33.5608 8.32253 31.4187 9.23458 29.7865 10.7547C30.0926 11.4641 30.3986 12.1734 30.7046 12.9842C32.2347 10.7547 34.6829 9.33589 37.641 9.33589C39.4771 9.33589 41.2112 9.94395 42.5373 10.9574C45.1895 13.6936 47.3316 17.1392 48.6577 21.0915C47.9436 19.47 46.8215 18.0513 45.2915 16.9365C41.0072 13.6936 35.0909 14.0989 31.2147 17.6459C31.2147 19.2673 31.2147 20.8888 31.1127 22.5103C31.4187 21.9022 31.7247 21.3955 32.1327 20.8888C35.3969 16.5312 41.6193 15.7204 46.0055 18.9633C47.7396 20.2808 48.9637 22.0036 49.4737 24.0304C50.1877 26.7666 50.5958 29.7055 50.5958 32.7457C50.5958 34.7726 50.3918 36.6981 50.0857 38.5222C49.8817 31.631 44.1694 26.1586 37.233 26.1586C34.8869 26.1586 32.6427 26.7666 30.8066 27.8814C30.8066 28.5907 30.7046 29.3002 30.7046 30.0095C30.6026 31.1243 30.5006 32.239 30.5006 33.4552C32.5407 31.0229 35.7029 29.4015 39.1711 29.4015C44.7815 29.4015 49.4737 33.5565 50.1877 38.8263C49.5757 42.4745 48.3517 45.8188 46.7195 48.7576C46.7195 48.5549 46.7195 48.2509 46.7195 48.0483C46.7195 42.2719 42.0273 37.6101 36.2129 37.6101C33.9688 37.6101 31.9287 38.3195 30.2966 39.4342C30.1946 41.7651 30.1946 43.9946 30.3986 46.0215C31.8267 43.1839 34.7849 41.157 38.1511 41.157C42.6393 41.157 46.3115 44.5013 46.7195 48.859C44.4754 52.8113 41.5173 56.1556 37.9471 58.2837C34.1728 58.1824 30.8066 55.6488 29.7865 52.1019C27.1344 43.792 29.8885 28.5907 29.7865 17.3418C29.5825 11.7681 26.7264 6.59969 20.402 6.59969C17.9539 6.59969 15.9137 7.61311 14.1797 9.0319C17.9539 5.89031 22.4421 4.06616 27.3384 4.06616Z" fill="#EFEFEF"/>
<path fill-rule="evenodd" clip-rule="evenodd" d="M32.7446 12.5787C33.4586 12.5787 34.0707 13.1868 34.0707 13.8962C34.0707 14.6056 33.4586 15.2137 32.7446 15.2137C32.0305 15.2137 31.4185 14.6056 31.4185 13.8962C31.4185 13.1868 32.0305 12.5787 32.7446 12.5787ZM40.293 11.0586C41.0071 11.0586 41.6191 11.6667 41.6191 12.376C41.6191 13.0855 41.0071 13.6935 40.293 13.6935C39.579 13.6935 38.9669 13.0855 38.9669 12.376C38.9669 11.6667 39.579 11.0586 40.293 11.0586ZM40.9051 18.9633C41.7211 19.1659 42.2311 20.078 42.0271 20.9901C41.8231 21.8008 40.9051 22.3075 39.987 22.1048C39.1709 21.9022 38.6609 20.9901 38.8649 20.078C39.1709 19.2672 40.089 18.7606 40.9051 18.9633ZM36.9268 20.078C37.6409 20.2807 38.0489 20.99 37.8449 21.6995C37.6409 22.4089 36.9268 22.8142 36.2128 22.6116C35.4987 22.4089 35.0907 21.6995 35.2947 20.9901C35.4987 20.2807 36.2128 19.8753 36.9268 20.078ZM44.5773 20.6861C45.2913 20.8887 45.6993 21.5981 45.4953 22.3075C45.2913 23.0169 44.5773 23.4223 43.8633 23.2196C43.1492 23.0169 42.7412 22.3075 42.9452 21.5981C43.1492 20.8887 43.8633 20.4834 44.5773 20.6861ZM47.5355 23.0169C48.2495 23.2196 48.6575 23.929 48.4535 24.6383C48.2495 25.3477 47.5355 25.7531 46.8214 25.5504C46.1074 25.3477 45.6993 24.6383 45.9033 23.929C46.1073 23.2196 46.8214 22.8142 47.5355 23.0169ZM33.8667 22.1048C34.5807 22.3075 34.9887 23.0169 34.7847 23.7263C34.5807 24.4357 33.8667 24.841 33.1526 24.6383C32.4385 24.4357 32.0305 23.7263 32.2345 23.0169C32.4385 22.3075 33.1526 21.9022 33.8667 22.1048ZM40.7011 31.0229C41.5171 31.3269 41.9251 32.2389 41.6191 33.1511C41.3131 33.9617 40.395 34.3671 39.477 34.0631C38.6609 33.7591 38.2529 32.847 38.5589 31.9349C38.9669 31.1242 39.885 30.7188 40.7011 31.0229ZM36.6208 31.7323C37.2329 32.0362 37.6409 32.7457 37.3349 33.3537C37.0288 33.9617 36.3148 34.3671 35.7027 34.0631C35.0907 33.7591 34.6827 33.0497 34.9887 32.4416C35.1927 31.8336 36.0088 31.4283 36.6208 31.7323ZM44.2713 33.0497C44.8833 33.3537 45.2913 34.0631 44.9853 34.6712C44.6793 35.2792 43.9653 35.6845 43.3532 35.3806C42.7412 35.0765 42.3331 34.3671 42.6391 33.7591C42.8432 33.151 43.5572 32.847 44.2713 33.0497ZM46.9234 35.6845C47.5355 35.9886 47.9435 36.698 47.6375 37.306C47.3315 37.914 46.6174 38.3194 46.0053 38.0154C45.3933 37.7114 44.9853 37.002 45.2913 36.3939C45.4953 35.6845 46.2094 35.3806 46.9234 35.6845ZM33.3566 33.5564C33.9687 33.8604 34.3767 34.5698 34.0707 35.1779C33.7647 35.7859 33.0506 36.1913 32.4385 35.8872C31.8265 35.5832 31.4185 34.8738 31.7245 34.2658C31.9285 33.5564 32.7446 33.2524 33.3566 33.5564ZM20.0959 8.72781C19.1778 8.72781 18.4637 9.43718 18.4637 10.3492C18.4637 11.2613 19.1778 11.9707 20.0959 11.9707C21.0139 11.9707 21.7279 11.2613 21.7279 10.3492C21.6259 9.43718 20.9119 8.72781 20.0959 8.72781ZM23.6661 10.8559C22.952 10.8559 22.34 11.464 22.34 12.1734C22.34 12.8828 22.952 13.4908 23.6661 13.4908C24.3801 13.4908 24.9921 12.8828 24.9921 12.1734C24.8901 11.3627 24.3801 10.8559 23.6661 10.8559ZM16.0156 9.33579C15.3015 9.33579 14.6896 9.94386 14.6896 10.6533C14.6896 11.3627 15.3015 11.9707 16.0156 11.9707C16.7297 11.9707 17.3417 11.3627 17.3417 10.6533C17.3417 9.84255 16.7297 9.33579 16.0156 9.33579ZM15.7096 16.3284C14.7915 16.4297 14.1795 17.2405 14.2815 18.1525C14.3835 19.0646 15.1995 19.6726 16.1176 19.5713C17.0357 19.4699 17.6477 18.6593 17.5457 17.7471C17.4437 16.8351 16.6276 16.227 15.7096 16.3284ZM19.4838 17.9498C18.7697 18.0512 18.2597 18.6593 18.3617 19.3686C18.4637 20.078 19.0758 20.5847 19.7898 20.4834C20.5039 20.3821 21.0139 19.774 20.9119 19.0646C20.9119 18.3552 20.1979 17.8485 19.4838 17.9498ZM11.8333 17.4431C11.1194 17.5444 10.6093 18.1525 10.7113 18.8619C10.8133 19.5713 11.4254 20.078 12.1394 19.9767C12.8534 19.8753 13.3635 19.2672 13.2615 18.5579C13.1594 17.8485 12.5474 17.3418 11.8333 17.4431ZM8.56915 19.3686C7.85515 19.4699 7.3451 20.078 7.44711 20.7874C7.54912 21.4968 8.16115 22.0035 8.87522 21.9022C9.58921 21.8008 10.0993 21.1927 9.99729 20.4834C9.99729 19.774 9.28322 19.2672 8.56915 19.3686ZM22.2379 20.382C21.5239 20.4834 21.0139 21.0914 21.1159 21.8008C21.218 22.5102 21.8299 23.0169 22.544 22.9155C23.258 22.8142 23.7681 22.2062 23.6661 21.4968C23.5641 20.7874 22.952 20.2807 22.2379 20.382ZM12.5474 27.2732C11.7313 27.6786 11.4254 28.5906 11.7313 29.4014C12.1394 30.2121 13.0574 30.5161 13.8735 30.2121C14.6896 29.8068 14.9955 28.8947 14.6896 28.084C14.3835 27.2732 13.3635 26.8678 12.5474 27.2732ZM16.7297 27.6786C16.1176 27.9827 15.8116 28.7933 16.1176 29.4014C16.4236 30.0094 17.2397 30.3134 17.8518 30.0094C18.4637 29.7055 18.7697 28.8947 18.4637 28.2866C18.1577 27.6786 17.3417 27.3746 16.7297 27.6786ZM9.18122 29.5028C8.56915 29.8068 8.26315 30.6175 8.56915 31.2256C8.87522 31.8336 9.69121 32.1376 10.3033 31.8336C10.9153 31.5296 11.2214 30.7188 10.9153 30.1108C10.6093 29.5028 9.89529 29.1987 9.18122 29.5028ZM6.73306 32.3403C6.12103 32.6443 5.81501 33.3537 6.12103 33.9617C6.42705 34.5698 7.2431 34.8738 7.85515 34.5698C8.46715 34.2658 8.77322 33.4551 8.46715 32.847C8.16115 32.2389 7.3451 32.0362 6.73306 32.3403ZM20.0959 29.3001C19.4838 29.6041 19.1778 30.4148 19.4838 31.0229C19.7898 31.6309 20.6059 31.9349 21.218 31.6309C21.8299 31.3269 22.1359 30.5161 21.8299 29.9081C21.5239 29.1987 20.7079 28.996 20.0959 29.3001ZM12.7514 37.5087C13.6695 37.306 14.4856 37.914 14.6896 38.7248C14.8935 39.6368 14.2815 40.4476 13.4655 40.6503C12.5474 40.853 11.7313 40.2449 11.5273 39.4342C11.3234 38.6235 11.9353 37.7114 12.7514 37.5087ZM9.69121 40.3463C10.4053 40.2449 11.1194 40.6503 11.2214 41.3596C11.3234 42.0691 10.9153 42.7785 10.2013 42.8798C9.48721 42.9811 8.77322 42.5758 8.67114 41.8664C8.56915 41.1569 8.97722 40.549 9.69121 40.3463ZM16.8317 37.306C17.5457 37.2047 18.2597 37.61 18.3617 38.3194C18.4637 39.0288 18.0558 39.7382 17.3417 39.8395C16.6276 39.9409 15.9136 39.5355 15.8116 38.8262C15.7096 38.1167 16.1176 37.4073 16.8317 37.306ZM18.3617 47.5415C19.2798 47.4402 20.0959 48.0482 20.1979 48.9603C20.2999 49.8724 19.6878 50.683 18.7697 50.7844C17.8518 50.8857 17.0357 50.2777 16.9337 49.3656C16.9337 48.4535 17.5457 47.6428 18.3617 47.5415ZM15.0975 50.1763C15.8116 50.075 16.4236 50.5817 16.5256 51.2911C16.6276 52.0005 16.1176 52.6085 15.4035 52.7099C14.6896 52.8112 14.0775 52.3045 13.9755 51.5952C13.9755 50.8857 14.3835 50.1763 15.0975 50.1763ZM39.2729 43.1838C40.089 43.4878 40.5991 44.3999 40.293 45.2106C39.987 46.0214 39.0689 46.5281 38.2529 46.2241C37.4369 45.92 36.9268 45.0079 37.2329 44.1972C37.5389 43.2851 38.4569 42.8798 39.2729 43.1838ZM35.1927 43.9946C35.9067 44.1973 36.2128 45.0079 36.0088 45.616C35.8047 46.3254 34.9887 46.6294 34.3767 46.4267C33.6627 46.2241 33.3566 45.4133 33.5606 44.8052C33.7647 44.0959 34.4787 43.7919 35.1927 43.9946ZM42.8432 45.1093C43.5572 45.312 43.8633 46.1227 43.6592 46.7307C43.4552 47.4401 42.6391 47.7442 42.0271 47.5415C41.3131 47.3388 41.0071 46.528 41.2111 45.92C41.4151 45.2106 42.1291 44.8052 42.8432 45.1093ZM29.0723 5.48486C29.9904 5.48486 30.7045 6.19425 30.7045 7.10632C30.7045 8.01836 29.9904 8.72781 29.0723 8.72781C28.1543 8.72781 27.4403 8.01836 27.4403 7.10632C27.4403 6.19425 28.2563 5.48486 29.0723 5.48486ZM36.3148 10.4506C37.2329 10.4506 37.9469 11.16 37.9469 12.072C37.9469 12.9841 37.2329 13.6935 36.3148 13.6935C35.3967 13.6935 34.6827 12.9841 34.6827 12.072C34.6827 11.2613 35.3967 10.4506 36.3148 10.4506Z" fill="#252525"/>
<path fill-rule="evenodd" clip-rule="evenodd" d="M212.478 29.1987C212.886 28.6921 213.294 28.2867 213.804 27.78C214.314 27.3746 214.926 26.9693 215.538 26.5639C216.15 26.2599 216.864 25.9558 217.68 25.7531C218.497 25.5504 219.312 25.4491 220.129 25.4491C220.944 25.4491 221.76 25.5504 222.577 25.7531C223.392 25.9558 224.107 26.2599 224.718 26.6652C225.33 27.0706 225.943 27.5773 226.453 28.1853C226.963 28.7934 227.37 29.6041 227.575 30.4149C227.779 30.9215 227.881 31.4282 227.881 32.0363C227.983 32.6443 227.983 33.2524 227.983 34.0632V48.859H222.372V34.8738C222.372 34.2658 222.372 33.7591 222.27 33.2524C222.27 32.847 222.169 32.4417 221.964 32.1377C221.658 31.4282 221.25 30.9215 220.638 30.6176C220.026 30.3135 219.414 30.1108 218.598 30.1108C217.476 30.1108 216.456 30.4149 215.436 30.9215C214.416 31.4282 213.6 32.1377 212.784 33.151V48.7577H207.173V25.9558H211.764L212.478 29.1987ZM198.809 39.0289C198.299 38.9275 197.687 38.8262 196.973 38.7248C196.259 38.6235 195.545 38.5221 194.831 38.5221C193.505 38.5221 192.382 38.8262 191.567 39.3329C190.751 39.8396 190.342 40.6503 190.342 41.7651C190.342 42.2718 190.445 42.6771 190.648 43.0825C190.853 43.4879 191.056 43.7919 191.362 43.9946C191.668 44.1973 191.975 44.3999 192.485 44.6026C192.893 44.704 193.301 44.8053 193.811 44.8053C194.423 44.8053 194.933 44.704 195.443 44.6026C195.953 44.5013 196.361 44.2986 196.871 43.9946C197.279 43.7919 197.687 43.4879 197.993 43.1839C198.299 42.8798 198.605 42.6771 198.809 42.3731V39.0289ZM199.319 46.3254C198.911 46.6295 198.503 47.0348 198.095 47.3388C197.687 47.6428 197.177 48.0482 196.565 48.3523C196.055 48.6563 195.341 48.859 194.729 49.0616C194.014 49.2643 193.301 49.3656 192.485 49.3656C191.362 49.3656 190.342 49.163 189.425 48.859C188.507 48.555 187.69 48.0482 186.976 47.4401C186.262 46.8322 185.752 46.0214 185.344 45.1094C184.936 44.1972 184.732 43.1839 184.732 42.0691C184.732 40.853 184.936 39.7383 185.446 38.8262C185.855 37.8128 186.568 37.002 187.282 36.394C188.098 35.6846 189.016 35.1779 190.139 34.8738C191.261 34.5698 192.485 34.3672 193.811 34.3672C194.831 34.3672 195.749 34.4685 196.565 34.5698C197.381 34.6711 198.095 34.8738 198.707 34.9752V34.0632C198.707 33.5564 198.605 33.0497 198.401 32.543C198.197 32.0363 197.891 31.6309 197.483 31.2256C197.075 30.8202 196.565 30.5162 195.953 30.3135C195.341 30.1108 194.525 30.0095 193.607 30.0095C192.485 30.0095 191.362 30.1108 190.241 30.4149C189.119 30.6176 187.895 31.0229 186.568 31.5296V27.1719C187.69 26.6652 188.915 26.2599 190.241 26.0572C191.567 25.7531 192.893 25.6518 194.321 25.6518C195.953 25.6518 197.483 25.8545 198.707 26.2599C199.931 26.6652 201.053 27.2733 201.869 27.9827C202.686 28.6921 203.298 29.5028 203.807 30.5162C204.215 31.5296 204.419 32.543 204.419 33.6578V42.1704C204.419 43.6905 204.419 45.008 204.419 46.0214C204.419 47.1362 204.521 48.0482 204.521 48.859H199.421L199.319 46.3254ZM172.39 49.2643C171.165 49.2643 170.044 49.0616 169.024 48.555C168.004 48.1496 167.187 47.5415 166.575 46.9335H166.473C166.473 47.2375 166.473 47.6428 166.473 48.2509C166.473 48.859 166.473 49.467 166.473 50.0751V56.5609H160.863V25.9558H165.759L165.963 28.4894H166.065C166.779 27.5773 167.698 26.8679 168.717 26.2599C169.839 25.6518 171.064 25.3478 172.491 25.3478C173.716 25.3478 174.94 25.5504 176.164 26.0572C177.388 26.4626 178.408 27.1719 179.326 28.1853C180.244 29.0974 180.958 30.3135 181.57 31.8336C182.08 33.2524 182.386 34.9752 182.386 37.002C182.386 39.1302 182.08 40.9544 181.468 42.4745C180.856 43.9946 180.04 45.312 179.122 46.3254C178.102 47.3388 177.082 48.0482 175.857 48.555C174.94 49.0616 173.716 49.2643 172.39 49.2643ZM171.676 29.9081C170.656 29.9081 169.737 30.2122 168.921 30.6176C168.004 31.1242 167.289 31.7323 166.575 32.4417V42.5758C166.779 42.8798 167.085 43.0825 167.391 43.3866C167.698 43.6905 168.105 43.8932 168.513 44.0959C168.921 44.2986 169.33 44.5013 169.839 44.6026C170.35 44.704 170.859 44.8053 171.37 44.8053C172.185 44.8053 173.002 44.6026 173.716 44.2986C174.43 43.8932 174.94 43.3866 175.45 42.7785C175.857 42.0691 176.266 41.2584 176.47 40.3463C176.674 39.4342 176.776 38.4208 176.776 37.2047C176.776 35.9887 176.674 34.8738 176.368 33.9618C176.163 33.0497 175.756 32.239 175.348 31.6309C174.94 31.0229 174.328 30.5162 173.716 30.2122C173.205 30.0095 172.491 29.9081 171.676 29.9081ZM152.294 34.8738C152.294 34.3672 152.294 33.9618 152.294 33.5564C152.294 33.151 152.193 32.7457 152.09 32.4417C151.887 31.7323 151.58 31.2256 151.07 30.8202C150.56 30.4149 149.847 30.2122 148.928 30.2122C148.418 30.2122 147.908 30.3135 147.398 30.4149C146.888 30.5162 146.378 30.7189 145.868 31.0229C145.358 31.3269 144.848 31.6309 144.44 31.935C143.93 32.3404 143.521 32.7457 143.216 33.151V48.7577H137.606V34.8738C137.606 34.3672 137.606 33.9618 137.606 33.5564C137.606 33.151 137.503 32.7457 137.402 32.4417C137.197 31.7323 136.891 31.2256 136.382 30.8202C135.871 30.4149 135.157 30.2122 134.239 30.2122C133.729 30.2122 133.219 30.3135 132.709 30.4149C132.199 30.5162 131.689 30.7189 131.179 31.0229C130.669 31.3269 130.159 31.6309 129.751 31.935C129.241 32.3404 128.833 32.7457 128.527 33.151V48.7577H122.917V25.9558H127.507L128.017 29.0974H128.119C128.425 28.5907 128.833 28.1853 129.343 27.6786C129.853 27.2732 130.465 26.8679 131.077 26.4626C131.689 26.1585 132.403 25.8545 133.219 25.6518C133.933 25.4491 134.749 25.3478 135.668 25.3478C137.197 25.3478 138.523 25.6518 139.748 26.3612C140.972 27.0706 141.89 28.084 142.502 29.5028H142.604C143.012 28.8947 143.522 28.2867 144.032 27.78C144.542 27.2732 145.154 26.8679 145.868 26.4626C146.48 26.0572 147.194 25.8545 148.01 25.6518C148.724 25.4491 149.642 25.3478 150.458 25.3478C152.09 25.3478 153.416 25.7531 154.539 26.3612C155.66 27.0706 156.477 27.9827 157.089 29.0974C157.191 29.4014 157.394 29.7055 157.497 30.1108C157.599 30.4149 157.7 30.8202 157.803 31.3269C157.905 31.7323 157.905 32.239 158.006 32.7457C158.006 33.2524 158.006 33.8605 158.006 34.5698V48.6563H152.396V34.8738H152.294ZM109.35 49.2643C107.004 49.2643 105.167 48.859 103.638 48.1496C102.107 47.3388 100.986 46.3254 100.169 45.008C99.7614 44.2986 99.4553 43.4879 99.251 42.6771C99.0475 41.8664 98.9449 40.853 98.9449 39.8396V25.9558H104.555V39.2316C104.555 40.0422 104.658 40.6503 104.76 41.2584C104.861 41.7651 105.066 42.2718 105.27 42.6771C105.678 43.3866 106.187 43.8932 106.902 44.1972C107.616 44.5013 108.432 44.704 109.35 44.704C110.37 44.704 111.186 44.5013 111.9 44.0959C112.614 43.6905 113.124 43.1839 113.532 42.3731C113.94 41.6637 114.042 40.6503 114.042 39.3329V25.9558H119.652V39.8396C119.652 41.6637 119.346 43.2852 118.734 44.5013C118.326 45.2107 117.918 45.92 117.306 46.4268C116.694 47.0348 116.082 47.5415 115.266 47.9469C114.45 48.3523 113.634 48.6563 112.614 48.859C111.594 49.163 110.574 49.2643 109.35 49.2643ZM73.1377 48.7577V17.3418H78.9522V31.6309H79.054L90.9885 17.3418H98.1292L84.8686 32.847L99.1492 48.6563H91.7024L78.9522 34.4685H78.8504V48.6563H73.1377V48.7577Z" fill="#252525"/>
<path d="M232.676 21.598C232.981 21.598 233.287 21.598 233.492 21.598C233.696 21.598 233.899 21.4966 234.104 21.4966C234.41 21.3953 234.613 21.1926 234.716 20.99C234.818 20.7873 234.919 20.5846 234.919 20.2806C234.919 20.0779 234.919 19.8752 234.818 19.6725C234.716 19.4698 234.613 19.3685 234.307 19.2672C234.206 19.1658 234.002 19.1658 233.798 19.1658C233.593 19.1658 233.287 19.1658 232.981 19.1658H231.961V21.598H232.676ZM236.45 20.3819C236.45 20.99 236.246 21.3953 235.939 21.8007C235.634 22.2061 235.124 22.5101 234.512 22.7128L236.96 26.057H235.226L232.981 22.9154H231.961V26.057H230.432V18.051H232.879C233.287 18.051 233.696 18.051 234.002 18.1524C234.307 18.1524 234.613 18.2537 234.919 18.3551C235.43 18.5578 235.736 18.7605 236.042 19.1658C236.246 19.3685 236.45 19.7738 236.45 20.3819Z" fill="#252525"/>
<path fill-rule="evenodd" clip-rule="evenodd" d="M236.246 18.6593C237.164 19.5713 237.674 20.6861 237.674 22.0036C237.674 23.2196 237.164 24.4357 236.246 25.3478C235.328 26.2599 234.206 26.7666 232.88 26.7666C231.655 26.7666 230.432 26.2599 229.513 25.3478C228.595 24.4357 228.086 23.321 228.086 22.0036C228.086 20.7875 228.595 19.5713 229.513 18.6593C230.432 17.7472 231.553 17.2405 232.88 17.2405C234.206 17.3418 235.328 17.8485 236.246 18.6593ZM232.88 16.0244C231.247 16.0244 229.718 16.6325 228.595 17.7472C227.473 18.862 226.861 20.3821 226.861 22.0036C226.861 23.625 227.473 25.1451 228.595 26.2599C229.718 27.3746 231.247 27.9827 232.88 27.9827C234.512 27.9827 236.042 27.3746 237.164 26.2599C238.286 25.1451 238.898 23.625 238.898 22.0036C238.898 20.3821 238.286 18.862 237.164 17.7472C236.042 16.6325 234.512 16.0244 232.88 16.0244Z" fill="#252525"/>
</g>
</g>
<defs>
<clipPath id="clip0_209_15345">
<rect width="239" height="66" fill="white"/>
</clipPath>
</defs>
</svg>
