<svg width="239" height="66" viewBox="0 0 239 66" fill="none" xmlns="http://www.w3.org/2000/svg">
<g clip-path="url(#clip0_882_33943)">
<mask id="mask0_882_33943" style="mask-type:luminance" maskUnits="userSpaceOnUse" x="0" y="0" width="239" height="66">
<path d="M239 0.0124512H0V65.1749H239V0.0124512Z" fill="white"/>
</mask>
<g mask="url(#mask0_882_33943)">
<path fill-rule="evenodd" clip-rule="evenodd" d="M27.3376 0.0124512C42.4344 0.0124512 54.6752 14.6056 54.6752 32.543C54.6752 50.5817 42.4344 65.0736 27.3376 65.0736C12.2407 65.1749 0 50.5817 0 32.543C0 14.6056 12.2407 0.0124512 27.3376 0.0124512Z" fill="#252525"/>
<path fill-rule="evenodd" clip-rule="evenodd" d="M17.0353 31.9349C19.5854 31.9349 21.9316 32.847 23.7677 34.2657C23.4617 35.8872 23.2577 37.4073 23.0536 39.0288C21.4216 36.698 18.6675 35.1778 15.6073 35.1778C10.6089 35.1778 6.52871 39.2314 6.52871 44.1972C6.52871 44.5012 6.52871 44.8052 6.52871 45.1093C6.3247 44.2986 6.22269 43.5892 6.22269 42.7784C6.22269 36.7993 11.017 31.9349 17.0353 31.9349ZM28.9701 61.0198C28.46 61.0198 27.95 61.1212 27.3379 61.1212C21.6256 61.1212 16.3212 58.5877 12.2411 54.3313C11.017 50.379 14.1792 46.0214 18.4634 46.0214C19.8915 46.0214 21.2176 46.528 22.3396 47.3388C22.3396 45.616 22.4416 43.8932 22.6456 42.1704C21.7276 41.8664 20.7075 41.6637 19.6874 41.6637C13.4651 41.6637 8.46686 48.7575 12.3431 54.4327C7.95678 49.771 5.10063 43.4878 4.28458 36.2926C4.28458 30.5161 8.97685 25.8545 14.8932 25.8545C18.9734 25.8545 22.4416 28.0839 24.2778 31.4282C24.5838 29.7054 24.7878 28.0839 24.9918 26.2598C22.7476 24.1317 19.7895 22.8142 16.4233 22.8142C9.69092 22.8142 4.18257 28.2866 4.18257 34.9752C4.18257 35.3805 4.18257 35.7859 4.28458 36.1912C4.18257 34.9752 4.08057 33.759 4.08057 32.543C4.08057 27.8813 4.99862 23.5236 6.52871 19.6726C8.16078 16.5311 10.915 14.4029 15.4033 14.4029C19.8915 14.4029 24.6858 18.1525 25.2978 23.1182C25.5019 21.1927 25.6038 19.1659 25.6038 17.1391C25.6038 17.0377 25.6038 16.9364 25.6038 16.7337V16.6324C23.5637 14.0988 20.4015 12.376 16.9333 12.376C12.853 12.376 9.07885 14.8083 7.24275 18.0512C8.97685 14.5042 11.221 11.464 13.9751 9.13309C15.3013 8.11973 17.0353 7.51166 18.8715 7.51166C24.4818 7.51166 27.1339 12.072 27.1339 17.0377C27.1339 35.3805 18.8715 49.5683 28.9701 61.0198ZM27.3379 4.06606C32.7442 4.06606 37.7425 6.29556 41.7208 10.1465C40.2927 8.93041 38.1506 8.32242 36.0084 8.32242C33.5603 8.32242 31.4182 9.23448 29.786 10.7546C30.0921 11.464 30.3981 12.1733 30.7041 12.9841C32.2342 10.7546 34.6824 9.33578 37.6405 9.33578C39.4766 9.33578 41.2107 9.94384 42.5368 10.9573C45.189 13.6934 47.3311 17.1391 48.6572 21.0914C47.9431 19.4699 46.821 18.0512 45.291 16.9364C41.0067 13.6934 35.0904 14.0988 31.2142 17.6458C31.2142 19.2672 31.2142 20.8887 31.1122 22.5102C31.4182 21.9021 31.7242 21.3954 32.1322 20.8887C35.3964 16.5311 41.6188 15.7203 46.005 18.9632C47.7391 20.2807 48.9632 22.0035 49.4732 24.0303C50.1872 26.7665 50.5953 29.7054 50.5953 32.7456C50.5953 34.7725 50.3913 36.698 50.0852 38.5221C49.8812 31.6309 44.1689 26.1585 37.2325 26.1585C34.8864 26.1585 32.6422 26.7665 30.8061 27.8813C30.8061 28.5906 30.7041 29.3001 30.7041 30.0094C30.6021 31.1242 30.5001 32.2389 30.5001 33.455C32.5402 31.0228 35.7024 29.4014 39.1706 29.4014C44.781 29.4014 49.4732 33.5564 50.1872 38.8261C49.5752 42.4744 48.3512 45.8187 46.719 48.7575C46.719 48.5548 46.719 48.2508 46.719 48.0482C46.719 42.2718 42.0268 37.61 36.2124 37.61C33.9683 37.61 31.9282 38.3194 30.2961 39.4341C30.1941 41.765 30.1941 43.9945 30.3981 46.0214C31.8262 43.1838 34.7844 41.1569 38.1506 41.1569C42.6388 41.1569 46.311 44.5012 46.719 48.8589C44.4749 52.8112 41.5168 56.1555 37.9466 58.2836C34.1723 58.1823 30.8061 55.6487 29.786 52.1018C27.1339 43.7919 29.888 28.5906 29.786 17.3417C29.582 11.768 26.7259 6.59959 20.4015 6.59959C17.9534 6.59959 15.9132 7.613 14.1792 9.03179C17.9534 5.8902 22.4416 4.06606 27.3379 4.06606Z" fill="#EFEFEF"/>
<path fill-rule="evenodd" clip-rule="evenodd" d="M32.7441 12.5787C33.4581 12.5787 34.0702 13.1868 34.0702 13.8963C34.0702 14.6056 33.4581 15.2137 32.7441 15.2137C32.0301 15.2137 31.4181 14.6056 31.4181 13.8963C31.4181 13.1868 32.0301 12.5787 32.7441 12.5787ZM40.2925 11.0586C41.0066 11.0586 41.6187 11.6667 41.6187 12.3761C41.6187 13.0855 41.0066 13.6936 40.2925 13.6936C39.5785 13.6936 38.9665 13.0855 38.9665 12.3761C38.9665 11.6667 39.5785 11.0586 40.2925 11.0586ZM40.9046 18.9633C41.7207 19.166 42.2307 20.078 42.0267 20.9901C41.8227 21.8008 40.9046 22.3075 39.9865 22.1048C39.1705 21.9022 38.6605 20.9901 38.8645 20.078C39.1704 19.2673 40.0885 18.7606 40.9046 18.9633ZM36.9263 20.078C37.6404 20.2807 38.0484 20.9901 37.8444 21.6995C37.6404 22.4089 36.9263 22.8143 36.2123 22.6116C35.4983 22.4089 35.0903 21.6995 35.2943 20.9901C35.4983 20.2807 36.2123 19.8753 36.9263 20.078ZM44.5768 20.6861C45.2909 20.8888 45.6989 21.5981 45.4949 22.3075C45.2909 23.017 44.5768 23.4223 43.8628 23.2196C43.1487 23.017 42.7407 22.3075 42.9447 21.5981C43.1487 20.8888 43.8628 20.4834 44.5768 20.6861ZM47.535 23.017C48.249 23.2196 48.6571 23.929 48.4531 24.6384C48.249 25.3477 47.535 25.7531 46.8209 25.5504C46.1069 25.3477 45.6988 24.6384 45.9028 23.929C46.1068 23.2196 46.8209 22.8143 47.535 23.017ZM33.8662 22.1048C34.5802 22.3075 34.9883 23.017 34.7842 23.7263C34.5802 24.4357 33.8662 24.8411 33.1521 24.6384C32.4381 24.4357 32.0301 23.7263 32.2341 23.017C32.4381 22.3075 33.1521 21.9022 33.8662 22.1048ZM40.7006 31.0229C41.5166 31.3269 41.9247 32.239 41.6187 33.1511C41.3126 33.9618 40.3945 34.3671 39.4765 34.0632C38.6605 33.7591 38.2525 32.847 38.5585 31.935C38.9664 31.1242 39.8845 30.7188 40.7006 31.0229ZM36.6203 31.7323C37.2324 32.0363 37.6404 32.7457 37.3344 33.3537C37.0283 33.9618 36.3143 34.3671 35.7022 34.0632C35.0903 33.7591 34.6822 33.0497 34.9883 32.4417C35.1923 31.8336 36.0083 31.4283 36.6203 31.7323ZM44.2708 33.0497C44.8828 33.3537 45.2909 34.0632 44.9848 34.6712C44.6788 35.2792 43.9648 35.6846 43.3527 35.3806C42.7407 35.0765 42.3326 34.3671 42.6386 33.7591C42.8427 33.151 43.5567 32.847 44.2708 33.0497ZM46.9229 35.6846C47.535 35.9886 47.943 36.698 47.637 37.3061C47.331 37.9141 46.6169 38.3194 46.0048 38.0154C45.3929 37.7114 44.9849 37.002 45.2909 36.3939C45.4949 35.6846 46.2089 35.3806 46.9229 35.6846ZM33.3561 33.5564C33.9682 33.8605 34.3762 34.5698 34.0702 35.1779C33.7642 35.786 33.0501 36.1913 32.4381 35.8873C31.8261 35.5833 31.4181 34.8738 31.7241 34.2658C31.9281 33.5564 32.7441 33.2524 33.3561 33.5564ZM20.0954 8.72784C19.1773 8.72784 18.4633 9.43721 18.4633 10.3493C18.4633 11.2613 19.1773 11.9708 20.0954 11.9708C21.0134 11.9708 21.7275 11.2613 21.7275 10.3493C21.6255 9.43721 20.9114 8.72784 20.0954 8.72784ZM23.6656 10.8559C22.9515 10.8559 22.3395 11.464 22.3395 12.1734C22.3395 12.8828 22.9515 13.4909 23.6656 13.4909C24.3796 13.4909 24.9917 12.8828 24.9917 12.1734C24.8897 11.3627 24.3796 10.8559 23.6656 10.8559ZM16.0151 9.33582C15.3011 9.33582 14.6891 9.94389 14.6891 10.6533C14.6891 11.3627 15.3011 11.9708 16.0151 11.9708C16.7292 11.9708 17.3412 11.3627 17.3412 10.6533C17.3412 9.84258 16.7292 9.33582 16.0151 9.33582ZM15.7091 16.3284C14.7911 16.4297 14.179 17.2405 14.281 18.1525C14.383 19.0646 15.1991 19.6727 16.1171 19.5713C17.0352 19.47 17.6472 18.6593 17.5452 17.7472C17.4432 16.8351 16.6271 16.227 15.7091 16.3284ZM19.4833 17.9498C18.7693 18.0512 18.2593 18.6593 18.3613 19.3687C18.4633 20.078 19.0753 20.5847 19.7893 20.4834C20.5034 20.3821 21.0134 19.774 20.9114 19.0646C20.9114 18.3552 20.1974 17.8485 19.4833 17.9498ZM11.8329 17.4432C11.1189 17.5445 10.6088 18.1525 10.7108 18.8619C10.8128 19.5713 11.4249 20.078 12.1389 19.9767C12.8529 19.8753 13.363 19.2673 13.261 18.5579C13.1589 17.8485 12.5469 17.3418 11.8329 17.4432ZM8.56866 19.3687C7.85466 19.47 7.34462 20.078 7.44662 20.7874C7.54863 21.4968 8.16066 22.0035 8.87473 21.9022C9.58872 21.8008 10.0988 21.1928 9.9968 20.4834C9.9968 19.774 9.28273 19.2673 8.56866 19.3687ZM22.2375 20.382C21.5235 20.4834 21.0134 21.0915 21.1154 21.8008C21.2175 22.5102 21.8295 23.017 22.5435 22.9156C23.2575 22.8143 23.7676 22.2062 23.6656 21.4968C23.5636 20.7874 22.9515 20.2807 22.2375 20.382ZM12.5469 27.2732C11.7309 27.6786 11.4249 28.5907 11.7309 29.4014C12.1389 30.2122 13.0569 30.5162 13.873 30.2122C14.6891 29.8068 14.9951 28.8947 14.6891 28.084C14.383 27.2732 13.363 26.8679 12.5469 27.2732ZM16.7292 27.6786C16.1171 27.9827 15.8111 28.7934 16.1171 29.4014C16.4231 30.0095 17.2392 30.3135 17.8513 30.0095C18.4633 29.7055 18.7693 28.8947 18.4633 28.2867C18.1573 27.6786 17.3412 27.3746 16.7292 27.6786ZM9.18073 29.5028C8.56866 29.8068 8.26266 30.6175 8.56866 31.2256C8.87473 31.8336 9.69072 32.1377 10.3028 31.8336C10.9148 31.5296 11.2209 30.7188 10.9148 30.1108C10.6088 29.5028 9.8948 29.1987 9.18073 29.5028ZM6.73257 32.3403C6.12054 32.6443 5.81452 33.3537 6.12054 33.9618C6.42656 34.5698 7.24261 34.8738 7.85466 34.5698C8.46666 34.2658 8.77273 33.4551 8.46666 32.847C8.16066 32.239 7.34461 32.0363 6.73257 32.3403ZM20.0954 29.3001C19.4833 29.6041 19.1773 30.4149 19.4833 31.0229C19.7893 31.6309 20.6054 31.935 21.2175 31.6309C21.8295 31.3269 22.1355 30.5162 21.8295 29.9082C21.5235 29.1987 20.7074 28.996 20.0954 29.3001ZM12.7509 37.5088C13.669 37.3061 14.4851 37.9141 14.6891 38.7248C14.8931 39.6369 14.281 40.4476 13.465 40.6503C12.5469 40.853 11.7309 40.2449 11.5269 39.4343C11.3229 38.6235 11.9349 37.7114 12.7509 37.5088ZM9.69072 40.3463C10.4048 40.2449 11.1189 40.6503 11.2209 41.3597C11.3229 42.0691 10.9148 42.7785 10.2008 42.8798C9.48673 42.9812 8.77273 42.5758 8.67066 41.8664C8.56866 41.157 8.97673 40.549 9.69072 40.3463ZM16.8312 37.3061C17.5452 37.2047 18.2593 37.6101 18.3613 38.3194C18.4633 39.0289 18.0553 39.7382 17.3412 39.8396C16.6271 39.9409 15.9131 39.5356 15.8111 38.8262C15.7091 38.1167 16.1171 37.4074 16.8312 37.3061ZM18.3613 47.5415C19.2793 47.4402 20.0954 48.0482 20.1974 48.9603C20.2994 49.8724 19.6873 50.6831 18.7693 50.7844C17.8513 50.8857 17.0352 50.2778 16.9332 49.3656C16.9332 48.4536 17.5452 47.6428 18.3613 47.5415ZM15.0971 50.1764C15.8111 50.0751 16.4231 50.5818 16.5251 51.2911C16.6271 52.0006 16.1171 52.6086 15.4031 52.7099C14.6891 52.8112 14.077 52.3046 13.975 51.5952C13.975 50.8857 14.383 50.1764 15.0971 50.1764ZM39.2724 43.1839C40.0885 43.4878 40.5986 44.3999 40.2925 45.2107C39.9865 46.0214 39.0685 46.5281 38.2525 46.2241C37.4364 45.92 36.9263 45.008 37.2324 44.1972C37.5384 43.2852 38.4565 42.8798 39.2724 43.1839ZM35.1923 43.9946C35.9062 44.1973 36.2123 45.008 36.0083 45.616C35.8043 46.3254 34.9883 46.6295 34.3762 46.4268C33.6622 46.2241 33.3561 45.4133 33.5601 44.8053C33.7642 44.0959 34.4782 43.7919 35.1923 43.9946ZM42.8427 45.1093C43.5567 45.312 43.8628 46.1227 43.6587 46.7308C43.4547 47.4401 42.6386 47.7442 42.0267 47.5415C41.3126 47.3388 41.0066 46.5281 41.2106 45.92C41.4146 45.2107 42.1287 44.8053 42.8427 45.1093ZM29.0719 5.48489C29.9899 5.48489 30.704 6.19428 30.704 7.10635C30.704 8.01839 29.9899 8.72784 29.0719 8.72784C28.1539 8.72784 27.4398 8.01839 27.4398 7.10635C27.4398 6.19428 28.2559 5.48489 29.0719 5.48489ZM36.3143 10.4506C37.2324 10.4506 37.9464 11.16 37.9464 12.0721C37.9464 12.9841 37.2324 13.6936 36.3143 13.6936C35.3963 13.6936 34.6822 12.9841 34.6822 12.0721C34.6822 11.2613 35.3963 10.4506 36.3143 10.4506Z" fill="#252525"/>
<path fill-rule="evenodd" clip-rule="evenodd" d="M212.478 29.1987C212.887 28.692 213.295 28.2866 213.804 27.7799C214.315 27.3746 214.927 26.9692 215.539 26.5638C216.15 26.2598 216.865 25.9557 217.681 25.7531C218.497 25.5504 219.313 25.4491 220.129 25.4491C220.945 25.4491 221.761 25.5504 222.577 25.7531C223.393 25.9557 224.107 26.2598 224.719 26.6651C225.331 27.0705 225.943 27.5772 226.453 28.1852C226.963 28.7933 227.371 29.604 227.575 30.4148C227.779 30.9215 227.881 31.4281 227.881 32.0362C227.983 32.6443 227.983 33.2523 227.983 34.0631V48.8589H222.373V34.8738C222.373 34.2658 222.373 33.759 222.271 33.2523C222.271 32.847 222.169 32.4416 221.965 32.1376C221.659 31.4281 221.251 30.9215 220.639 30.6175C220.027 30.3134 219.415 30.1107 218.599 30.1107C217.476 30.1107 216.456 30.4148 215.436 30.9215C214.416 31.4281 213.601 32.1376 212.784 33.151V48.7576H207.174V25.9557H211.764L212.478 29.1987ZM198.81 39.0288C198.299 38.9274 197.688 38.8261 196.973 38.7247C196.259 38.6234 195.545 38.5221 194.831 38.5221C193.505 38.5221 192.383 38.8261 191.567 39.3328C190.751 39.8395 190.343 40.6502 190.343 41.765C190.343 42.2717 190.445 42.677 190.649 43.0824C190.853 43.4878 191.057 43.7918 191.363 43.9945C191.669 44.1972 191.975 44.3998 192.485 44.6025C192.893 44.7039 193.301 44.8052 193.811 44.8052C194.424 44.8052 194.933 44.7039 195.444 44.6025C195.953 44.5012 196.362 44.2985 196.871 43.9945C197.279 43.7918 197.688 43.4878 197.993 43.1838C198.299 42.8797 198.605 42.677 198.81 42.373V39.0288ZM199.319 46.3253C198.911 46.6294 198.504 47.0348 198.096 47.3388C197.688 47.6428 197.177 48.0481 196.565 48.3522C196.056 48.6562 195.341 48.8589 194.73 49.0616C194.015 49.2643 193.301 49.3656 192.485 49.3656C191.363 49.3656 190.343 49.1629 189.425 48.8589C188.507 48.5549 187.691 48.0481 186.977 47.4401C186.263 46.8321 185.753 46.0213 185.345 45.1093C184.937 44.1971 184.733 43.1838 184.733 42.069C184.733 40.8529 184.937 39.7382 185.446 38.8261C185.855 37.8127 186.569 37.0019 187.283 36.3939C188.099 35.6845 189.017 35.1778 190.139 34.8738C191.261 34.5698 192.485 34.3671 193.811 34.3671C194.831 34.3671 195.75 34.4685 196.565 34.5698C197.382 34.6711 198.096 34.8738 198.708 34.9751V34.0631C198.708 33.5563 198.605 33.0497 198.402 32.543C198.197 32.0362 197.891 31.6308 197.484 31.2255C197.076 30.8202 196.565 30.5161 195.953 30.3134C195.341 30.1107 194.525 30.0094 193.607 30.0094C192.485 30.0094 191.363 30.1107 190.241 30.4148C189.119 30.6175 187.895 31.0229 186.569 31.5295V27.1719C187.691 26.6651 188.915 26.2598 190.241 26.0571C191.567 25.7531 192.893 25.6518 194.321 25.6518C195.953 25.6518 197.484 25.8544 198.708 26.2598C199.931 26.6651 201.054 27.2732 201.87 27.9826C202.686 28.692 203.298 29.5027 203.808 30.5161C204.216 31.5295 204.42 32.543 204.42 33.6577V42.1704C204.42 43.6905 204.42 45.0079 204.42 46.0213C204.42 47.1361 204.522 48.0481 204.522 48.8589H199.422L199.319 46.3253ZM172.39 49.2643C171.166 49.2643 170.044 49.0616 169.024 48.5549C168.004 48.1495 167.188 47.5415 166.575 46.9334H166.474C166.474 47.2375 166.474 47.6428 166.474 48.2508C166.474 48.8589 166.474 49.4669 166.474 50.075V56.5609H160.863V25.9557H165.76L165.963 28.4893H166.066C166.78 27.5772 167.698 26.8678 168.718 26.2598C169.84 25.6518 171.064 25.3477 172.492 25.3477C173.716 25.3477 174.94 25.5504 176.164 26.0571C177.388 26.4625 178.408 27.1719 179.326 28.1852C180.245 29.0974 180.959 30.3134 181.571 31.8335C182.08 33.2523 182.386 34.9751 182.386 37.0019C182.386 39.1301 182.08 40.9543 181.468 42.4744C180.857 43.9945 180.04 45.312 179.122 46.3253C178.102 47.3388 177.082 48.0481 175.858 48.5549C174.94 49.0616 173.716 49.2643 172.39 49.2643ZM171.676 29.908C170.656 29.908 169.738 30.2121 168.922 30.6175C168.004 31.1242 167.289 31.7322 166.575 32.4416V42.5757C166.78 42.8797 167.086 43.0824 167.392 43.3865C167.698 43.6905 168.106 43.8932 168.514 44.0958C168.922 44.2985 169.33 44.5012 169.84 44.6025C170.35 44.7039 170.86 44.8052 171.37 44.8052C172.186 44.8052 173.002 44.6025 173.716 44.2985C174.43 43.8932 174.94 43.3865 175.45 42.7784C175.858 42.069 176.267 41.2583 176.47 40.3462C176.674 39.4341 176.776 38.4207 176.776 37.2046C176.776 35.9886 176.674 34.8738 176.368 33.9617C176.164 33.0496 175.756 32.2389 175.348 31.6308C174.94 31.0229 174.328 30.5161 173.716 30.2121C173.206 30.0094 172.492 29.908 171.676 29.908ZM152.295 34.8738C152.295 34.3671 152.295 33.9617 152.295 33.5563C152.295 33.151 152.193 32.7457 152.091 32.4416C151.887 31.7322 151.581 31.2255 151.071 30.8202C150.561 30.4148 149.847 30.2121 148.929 30.2121C148.418 30.2121 147.909 30.3134 147.398 30.4148C146.889 30.5161 146.378 30.7188 145.869 31.0229C145.358 31.3268 144.848 31.6308 144.44 31.9349C143.931 32.3403 143.522 32.7457 143.217 33.151V48.7576H137.606V34.8738C137.606 34.3671 137.606 33.9617 137.606 33.5563C137.606 33.151 137.504 32.7457 137.402 32.4416C137.198 31.7322 136.892 31.2255 136.382 30.8202C135.872 30.4148 135.158 30.2121 134.24 30.2121C133.73 30.2121 133.22 30.3134 132.71 30.4148C132.2 30.5161 131.69 30.7188 131.18 31.0229C130.67 31.3268 130.16 31.6308 129.752 31.9349C129.241 32.3403 128.834 32.7457 128.527 33.151V48.7576H122.917V25.9557H127.507L128.017 29.0974H128.12C128.426 28.5906 128.834 28.1852 129.344 27.6785C129.854 27.2732 130.466 26.8678 131.078 26.4625C131.69 26.1584 132.404 25.8544 133.22 25.6518C133.933 25.4491 134.75 25.3477 135.668 25.3477C137.198 25.3477 138.524 25.6517 139.748 26.3611C140.972 27.0705 141.891 28.0839 142.502 29.5027H142.605C143.012 28.8947 143.522 28.2866 144.032 27.7799C144.543 27.2732 145.154 26.8678 145.869 26.4625C146.48 26.0571 147.195 25.8544 148.011 25.6518C148.724 25.4491 149.643 25.3477 150.458 25.3477C152.091 25.3477 153.417 25.7531 154.539 26.3611C155.661 27.0705 156.477 27.9826 157.089 29.0974C157.191 29.4014 157.395 29.7054 157.497 30.1107C157.599 30.4148 157.701 30.8202 157.803 31.3268C157.905 31.7322 157.905 32.2389 158.007 32.7457C158.007 33.2523 158.007 33.8604 158.007 34.5698V48.6562H152.397V34.8738H152.295ZM109.35 49.2643C107.004 49.2643 105.168 48.8589 103.638 48.1495C102.108 47.3388 100.986 46.3253 100.17 45.0079C99.7619 44.2985 99.4558 43.4878 99.2515 42.677C99.0479 41.8664 98.9454 40.8529 98.9454 39.8395V25.9557H104.556V39.2315C104.556 40.0422 104.658 40.6502 104.76 41.2583C104.862 41.765 105.066 42.2717 105.27 42.677C105.678 43.3865 106.188 43.8932 106.903 44.1971C107.616 44.5012 108.432 44.7039 109.35 44.7039C110.37 44.7039 111.186 44.5012 111.901 44.0958C112.615 43.6905 113.124 43.1838 113.533 42.373C113.941 41.6637 114.042 40.6502 114.042 39.3328V25.9557H119.653V39.8395C119.653 41.6637 119.347 43.2851 118.735 44.5012C118.327 45.2106 117.919 45.92 117.307 46.4267C116.695 47.0348 116.082 47.5415 115.267 47.9468C114.45 48.3522 113.635 48.6562 112.615 48.8589C111.595 49.1629 110.575 49.2643 109.35 49.2643ZM73.1382 48.7576V17.3417H78.9527V31.6308H79.0544L90.989 17.3417H98.1297L84.8691 32.847L99.1497 48.6562H91.7029L78.9527 34.4685H78.8509V48.6562H73.1382V48.7576Z" fill="#252525"/>
</g>
</g>
<defs>
<clipPath id="clip0_882_33943">
<rect width="239" height="66" fill="white"/>
</clipPath>
</defs>
</svg>
