<svg width="222" height="66" viewBox="0 0 222 66" fill="none" xmlns="http://www.w3.org/2000/svg">
<g clip-path="url(#clip0_390_11481)">
<mask id="mask0_390_11481" style="mask-type:luminance" maskUnits="userSpaceOnUse" x="0" y="0" width="222" height="66">
<path d="M222 0.0124512H0V65.1749H222V0.0124512Z" fill="white"/>
</mask>
<g mask="url(#mask0_390_11481)">
<path fill-rule="evenodd" clip-rule="evenodd" d="M25.3931 0.0124512C39.4161 0.0124512 50.7862 14.6056 50.7862 32.543C50.7862 50.5817 39.4161 65.0736 25.3931 65.0736C11.3701 65.1749 0 50.5817 0 32.543C0 14.6056 11.3701 0.0124512 25.3931 0.0124512Z" fill="#3D1308"/>
<path fill-rule="evenodd" clip-rule="evenodd" d="M15.8233 31.935C18.1921 31.935 20.3713 32.8471 22.0768 34.2658C21.7926 35.8873 21.6031 37.4074 21.4136 39.0289C19.8976 36.6981 17.3394 35.178 14.4968 35.178C9.85403 35.178 6.06405 39.2315 6.06405 44.1973C6.06405 44.5013 6.06405 44.8053 6.06405 45.1094C5.87455 44.2987 5.7798 43.5893 5.7798 42.7785C5.7798 36.7994 10.2331 31.935 15.8233 31.935ZM26.9091 61.02C26.4354 61.02 25.9616 61.1213 25.3931 61.1213C20.0871 61.1213 15.16 58.5878 11.3701 54.3314C10.2331 50.3791 13.1703 46.0215 17.1498 46.0215C18.4764 46.0215 19.7081 46.5281 20.7504 47.3389C20.7504 45.6161 20.8451 43.8933 21.0346 42.1705C20.1818 41.8665 19.2343 41.6638 18.2868 41.6638C12.5071 41.6638 7.86433 48.7576 11.4648 54.4328C7.39054 49.7711 4.73754 43.4879 3.97954 36.2927C3.97954 30.5162 8.33805 25.8546 13.8336 25.8546C17.6236 25.8546 20.8451 28.084 22.5506 31.4283C22.8349 29.7055 23.0244 28.084 23.2138 26.2599C21.1293 24.1318 18.3816 22.8143 15.2549 22.8143C9.00133 22.8143 3.88479 28.2867 3.88479 34.9753C3.88479 35.3806 3.88479 35.786 3.97954 36.1913C3.88479 34.9753 3.79004 33.7591 3.79004 32.5431C3.79004 27.8814 4.64279 23.5237 6.06405 19.6727C7.58003 16.5312 10.1383 14.403 14.3073 14.403C18.4764 14.403 22.9296 18.1526 23.4981 23.1183C23.6876 21.1928 23.7824 19.166 23.7824 17.1392C23.7824 17.0379 23.7824 16.9365 23.7824 16.7338V16.6325C21.8874 14.0989 18.9501 12.3761 15.7286 12.3761C11.9385 12.3761 8.4328 14.8084 6.7273 18.0513C8.33805 14.5043 10.4226 11.4641 12.9808 9.1332C14.2126 8.11984 15.8233 7.51177 17.5289 7.51177C22.7401 7.51177 25.2036 12.0721 25.2036 17.0379C25.2036 35.3806 17.5289 49.5684 26.9091 61.02ZM25.3931 4.06616C30.4149 4.06616 35.0576 6.29567 38.7529 10.1466C37.4264 8.93051 35.4367 8.32253 33.4469 8.32253C31.1729 8.32253 29.1831 9.23458 27.6671 10.7547C27.9514 11.4641 28.2356 12.1734 28.5199 12.9842C29.9412 10.7547 32.2152 9.33589 34.9629 9.33589C36.6684 9.33589 38.2791 9.94395 39.5109 10.9574C41.9744 13.6936 43.9642 17.1392 45.1959 21.0915C44.5326 19.47 43.4904 18.0513 42.0692 16.9365C38.0896 13.6936 32.5941 14.0989 28.9937 17.6459C28.9937 19.2673 28.9937 20.8888 28.8989 22.5103C29.1831 21.9022 29.4674 21.3955 29.8463 20.8888C32.8784 16.5312 38.6582 15.7204 42.7324 18.9633C44.3432 20.2808 45.4802 22.0036 45.954 24.0304C46.6172 26.7666 46.9962 29.7055 46.9962 32.7457C46.9962 34.7726 46.8067 36.6981 46.5224 38.5222C46.3329 31.631 41.0269 26.1586 34.5839 26.1586C32.4046 26.1586 30.3201 26.7666 28.6146 27.8814C28.6146 28.5907 28.5199 29.3002 28.5199 30.0095C28.4251 31.1243 28.3304 32.239 28.3304 33.4552C30.2254 31.0229 33.1627 29.4015 36.3842 29.4015C41.5954 29.4015 45.954 33.5565 46.6172 38.8263C46.0487 42.4745 44.9117 45.8188 43.3956 48.7576C43.3956 48.5549 43.3956 48.2509 43.3956 48.0483C43.3956 42.2719 39.0371 37.6101 33.6364 37.6101C31.5519 37.6101 29.6569 38.3195 28.1409 39.4342C28.0461 41.7651 28.0461 43.9946 28.2356 46.0215C29.5621 43.1839 32.3099 41.157 35.4367 41.157C39.6057 41.157 43.0167 44.5013 43.3956 48.859C41.3111 52.8113 38.5634 56.1556 35.2472 58.2837C31.7414 58.1824 28.6146 55.6488 27.6671 52.1019C25.2036 43.792 27.7618 28.5907 27.6671 17.3418C27.4776 11.7681 24.8246 6.59969 18.9501 6.59969C16.6761 6.59969 14.7811 7.61311 13.1703 9.0319C16.6761 5.89031 20.8451 4.06616 25.3931 4.06616Z" fill="white"/>
<path fill-rule="evenodd" clip-rule="evenodd" d="M30.4156 12.5787C31.0788 12.5787 31.6473 13.1868 31.6473 13.8962C31.6473 14.6056 31.0788 15.2137 30.4156 15.2137C29.7523 15.2137 29.1838 14.6056 29.1838 13.8962C29.1838 13.1868 29.7523 12.5787 30.4156 12.5787ZM37.4271 11.0586C38.0903 11.0586 38.6589 11.6667 38.6589 12.376C38.6589 13.0855 38.0903 13.6935 37.4271 13.6935C36.7639 13.6935 36.1953 13.0855 36.1953 12.376C36.1953 11.6667 36.7639 11.0586 37.4271 11.0586ZM37.9956 18.9633C38.7536 19.1659 39.2273 20.078 39.0379 20.9901C38.8484 21.8008 37.9956 22.3075 37.1428 22.1048C36.3848 21.9022 35.9111 20.9901 36.1006 20.078C36.3848 19.2672 37.2376 18.7606 37.9956 18.9633ZM34.3003 20.078C34.9636 20.2807 35.3426 20.99 35.1531 21.6995C34.9636 22.4089 34.3003 22.8142 33.6371 22.6116C32.9738 22.4089 32.5948 21.6995 32.7843 20.9901C32.9738 20.2807 33.6371 19.8753 34.3003 20.078ZM41.4066 20.6861C42.0699 20.8887 42.4488 21.5981 42.2594 22.3075C42.0699 23.0169 41.4066 23.4223 40.7434 23.2196C40.0801 23.0169 39.7011 22.3075 39.8906 21.5981C40.0801 20.8887 40.7434 20.4834 41.4066 20.6861ZM44.1544 23.0169C44.8176 23.2196 45.1966 23.929 45.0071 24.6383C44.8176 25.3477 44.1544 25.7531 43.4911 25.5504C42.8279 25.3477 42.4488 24.6383 42.6383 23.929C42.8278 23.2196 43.4911 22.8142 44.1544 23.0169ZM31.4578 22.1048C32.121 22.3075 32.5001 23.0169 32.3105 23.7263C32.121 24.4357 31.4578 24.841 30.7946 24.6383C30.1313 24.4357 29.7523 23.7263 29.9418 23.0169C30.1313 22.3075 30.7946 21.9022 31.4578 22.1048ZM37.8061 31.0229C38.5641 31.3269 38.9431 32.2389 38.6589 33.1511C38.3746 33.9617 37.5218 34.3671 36.6691 34.0631C35.9111 33.7591 35.5321 32.847 35.8163 31.9349C36.1953 31.1242 37.0481 30.7188 37.8061 31.0229ZM34.0161 31.7323C34.5846 32.0362 34.9636 32.7457 34.6793 33.3537C34.395 33.9617 33.7318 34.3671 33.1633 34.0631C32.5948 33.7591 32.2158 33.0497 32.5001 32.4416C32.6896 31.8336 33.4476 31.4283 34.0161 31.7323ZM41.1224 33.0497C41.6908 33.3537 42.0699 34.0631 41.7856 34.6712C41.5013 35.2792 40.8381 35.6845 40.2696 35.3806C39.7011 35.0765 39.3221 34.3671 39.6063 33.7591C39.7959 33.151 40.4591 32.847 41.1224 33.0497ZM43.5858 35.6845C44.1544 35.9886 44.5334 36.698 44.2491 37.306C43.9649 37.914 43.3016 38.3194 42.7331 38.0154C42.1646 37.7114 41.7856 37.002 42.0699 36.3939C42.2594 35.6845 42.9226 35.3806 43.5858 35.6845ZM30.9841 33.5564C31.5526 33.8604 31.9316 34.5698 31.6473 35.1779C31.3631 35.7859 30.6998 36.1913 30.1313 35.8872C29.5628 35.5832 29.1838 34.8738 29.4681 34.2658C29.6576 33.5564 30.4156 33.2524 30.9841 33.5564ZM18.6666 8.72781C17.8138 8.72781 17.1505 9.43718 17.1505 10.3492C17.1505 11.2613 17.8138 11.9707 18.6666 11.9707C19.5193 11.9707 20.1825 11.2613 20.1825 10.3492C20.0878 9.43718 19.4245 8.72781 18.6666 8.72781ZM21.9828 10.8559C21.3195 10.8559 20.7511 11.464 20.7511 12.1734C20.7511 12.8828 21.3195 13.4908 21.9828 13.4908C22.646 13.4908 23.2146 12.8828 23.2146 12.1734C23.1198 11.3627 22.646 10.8559 21.9828 10.8559ZM14.8765 9.33579C14.2132 9.33579 13.6448 9.94386 13.6448 10.6533C13.6448 11.3627 14.2132 11.9707 14.8765 11.9707C15.5398 11.9707 16.1083 11.3627 16.1083 10.6533C16.1083 9.84255 15.5398 9.33579 14.8765 9.33579ZM14.5923 16.3284C13.7395 16.4297 13.171 17.2405 13.2657 18.1525C13.3605 19.0646 14.1185 19.6726 14.9713 19.5713C15.824 19.4699 16.3925 18.6593 16.2977 17.7471C16.203 16.8351 15.445 16.227 14.5923 16.3284ZM18.098 17.9498C17.4347 18.0512 16.961 18.6593 17.0558 19.3686C17.1505 20.078 17.719 20.5847 18.3823 20.4834C19.0455 20.3821 19.5193 19.774 19.4245 19.0646C19.4245 18.3552 18.7613 17.8485 18.098 17.9498ZM10.9917 17.4431C10.3285 17.5444 9.85474 18.1525 9.94948 18.8619C10.0442 19.5713 10.6128 20.078 11.276 19.9767C11.9392 19.8753 12.413 19.2672 12.3183 18.5579C12.2235 17.8485 11.655 17.3418 10.9917 17.4431ZM7.95971 19.3686C7.29651 19.4699 6.82274 20.078 6.91749 20.7874C7.01224 21.4968 7.58074 22.0035 8.24402 21.9022C8.90723 21.8008 9.38102 21.1927 9.28627 20.4834C9.28627 19.774 8.62299 19.2672 7.95971 19.3686ZM20.6563 20.382C19.993 20.4834 19.5193 21.0914 19.614 21.8008C19.7088 22.5102 20.2773 23.0169 20.9406 22.9155C21.6038 22.8142 22.0776 22.2062 21.9828 21.4968C21.8881 20.7874 21.3195 20.2807 20.6563 20.382ZM11.655 27.2732C10.897 27.6786 10.6128 28.5906 10.897 29.4014C11.276 30.2121 12.1287 30.5161 12.8868 30.2121C13.6448 29.8068 13.929 28.8947 13.6448 28.084C13.3605 27.2732 12.413 26.8678 11.655 27.2732ZM15.5398 27.6786C14.9713 27.9827 14.687 28.7933 14.9713 29.4014C15.2555 30.0094 16.0135 30.3134 16.5821 30.0094C17.1505 29.7055 17.4347 28.8947 17.1505 28.2866C16.8663 27.6786 16.1083 27.3746 15.5398 27.6786ZM8.52825 29.5028C7.95971 29.8068 7.67548 30.6175 7.95971 31.2256C8.24402 31.8336 9.00197 32.1376 9.5705 31.8336C10.139 31.5296 10.4233 30.7188 10.139 30.1108C9.85474 29.5028 9.19153 29.1987 8.52825 29.5028ZM6.25423 32.3403C5.68573 32.6443 5.40148 33.3537 5.68573 33.9617C5.96999 34.5698 6.72799 34.8738 7.29651 34.5698C7.86497 34.2658 8.14927 33.4551 7.86497 32.847C7.58074 32.2389 6.82274 32.0362 6.25423 32.3403ZM18.6666 29.3001C18.098 29.6041 17.8138 30.4148 18.098 31.0229C18.3823 31.6309 19.1403 31.9349 19.7088 31.6309C20.2773 31.3269 20.5615 30.5161 20.2773 29.9081C19.993 29.1987 19.235 28.996 18.6666 29.3001ZM11.8445 37.5087C12.6973 37.306 13.4553 37.914 13.6448 38.7248C13.8343 39.6368 13.2657 40.4476 12.5078 40.6503C11.655 40.853 10.897 40.2449 10.7075 39.4342C10.518 38.6235 11.0865 37.7114 11.8445 37.5087ZM9.00197 40.3463C9.66525 40.2449 10.3285 40.6503 10.4233 41.3596C10.518 42.0691 10.139 42.7785 9.47576 42.8798C8.81248 42.9811 8.14927 42.5758 8.05446 41.8664C7.95971 41.1569 8.33876 40.549 9.00197 40.3463ZM15.6345 37.306C16.2977 37.2047 16.961 37.61 17.0558 38.3194C17.1505 39.0288 16.7715 39.7382 16.1083 39.8395C15.445 39.9409 14.7818 39.5355 14.687 38.8262C14.5923 38.1167 14.9713 37.4073 15.6345 37.306ZM17.0558 47.5415C17.9085 47.4402 18.6666 48.0482 18.7613 48.9603C18.856 49.8724 18.2875 50.683 17.4347 50.7844C16.5821 50.8857 15.824 50.2777 15.7293 49.3656C15.7293 48.4535 16.2977 47.6428 17.0558 47.5415ZM14.0238 50.1763C14.687 50.075 15.2555 50.5817 15.3502 51.2911C15.445 52.0005 14.9713 52.6085 14.308 52.7099C13.6448 52.8112 13.0762 52.3045 12.9815 51.5952C12.9815 50.8857 13.3605 50.1763 14.0238 50.1763ZM36.4796 43.1838C37.2376 43.4878 37.7114 44.3999 37.4271 45.2106C37.1428 46.0214 36.2901 46.5281 35.5321 46.2241C34.7741 45.92 34.3003 45.0079 34.5846 44.1972C34.8688 43.2851 35.7216 42.8798 36.4796 43.1838ZM32.6896 43.9946C33.3528 44.1973 33.6371 45.0079 33.4476 45.616C33.258 46.3254 32.5001 46.6294 31.9316 46.4267C31.2684 46.2241 30.9841 45.4133 31.1735 44.8052C31.3631 44.0959 32.0263 43.7919 32.6896 43.9946ZM39.7959 45.1093C40.4591 45.312 40.7434 46.1227 40.5538 46.7307C40.3643 47.4401 39.6063 47.7442 39.0379 47.5415C38.3746 47.3388 38.0903 46.528 38.2798 45.92C38.4693 45.2106 39.1326 44.8052 39.7959 45.1093ZM27.0045 5.48486C27.8573 5.48486 28.5206 6.19425 28.5206 7.10632C28.5206 8.01836 27.8573 8.72781 27.0045 8.72781C26.1518 8.72781 25.4885 8.01836 25.4885 7.10632C25.4885 6.19425 26.2466 5.48486 27.0045 5.48486ZM33.7318 10.4506C34.5846 10.4506 35.2478 11.16 35.2478 12.072C35.2478 12.9841 34.5846 13.6935 33.7318 13.6935C32.8791 13.6935 32.2158 12.9841 32.2158 12.072C32.2158 11.2613 32.8791 10.4506 33.7318 10.4506Z" fill="#3D1308"/>
<path fill-rule="evenodd" clip-rule="evenodd" d="M197.364 29.1987C197.744 28.6921 198.123 28.2867 198.596 27.78C199.07 27.3746 199.639 26.9693 200.207 26.5639C200.775 26.2599 201.439 25.9558 202.197 25.7531C202.955 25.5504 203.713 25.4491 204.471 25.4491C205.229 25.4491 205.986 25.5504 206.745 25.7531C207.503 25.9558 208.166 26.2599 208.734 26.6652C209.303 27.0706 209.871 27.5773 210.346 28.1853C210.819 28.7934 211.198 29.6041 211.388 30.4149C211.577 30.9215 211.672 31.4282 211.672 32.0363C211.766 32.6443 211.766 33.2524 211.766 34.0632V48.859H206.555V34.8738C206.555 34.2658 206.555 33.7591 206.461 33.2524C206.461 32.847 206.366 32.4417 206.176 32.1377C205.892 31.4282 205.513 30.9215 204.944 30.6176C204.376 30.3135 203.807 30.1108 203.05 30.1108C202.007 30.1108 201.059 30.4149 200.112 30.9215C199.165 31.4282 198.407 32.1377 197.649 33.151V48.7577H192.437V25.9558H196.701L197.364 29.1987ZM184.668 39.0289C184.194 38.9275 183.626 38.8262 182.962 38.7248C182.299 38.6235 181.636 38.5221 180.973 38.5221C179.741 38.5221 178.698 38.8262 177.941 39.3329C177.183 39.8396 176.803 40.6503 176.803 41.7651C176.803 42.2718 176.899 42.6771 177.088 43.0825C177.278 43.4879 177.467 43.7919 177.751 43.9946C178.035 44.1973 178.32 44.3999 178.794 44.6026C179.172 44.704 179.551 44.8053 180.025 44.8053C180.594 44.8053 181.067 44.704 181.541 44.6026C182.015 44.5013 182.394 44.2986 182.868 43.9946C183.247 43.7919 183.626 43.4879 183.91 43.1839C184.194 42.8798 184.478 42.6771 184.668 42.3731V39.0289ZM185.141 46.3254C184.763 46.6295 184.384 47.0348 184.005 47.3388C183.626 47.6428 183.152 48.0482 182.583 48.3523C182.11 48.6563 181.446 48.859 180.878 49.0616C180.214 49.2643 179.551 49.3656 178.794 49.3656C177.751 49.3656 176.803 49.163 175.951 48.859C175.098 48.555 174.34 48.0482 173.677 47.4401C173.014 46.8322 172.54 46.0214 172.161 45.1094C171.782 44.1972 171.592 43.1839 171.592 42.0691C171.592 40.853 171.782 39.7383 172.255 38.8262C172.635 37.8128 173.298 37.002 173.961 36.394C174.719 35.6846 175.572 35.1779 176.614 34.8738C177.656 34.5698 178.794 34.3672 180.025 34.3672C180.973 34.3672 181.826 34.4685 182.583 34.5698C183.342 34.6711 184.005 34.8738 184.573 34.9752V34.0632C184.573 33.5564 184.478 33.0497 184.289 32.543C184.099 32.0363 183.815 31.6309 183.436 31.2256C183.057 30.8202 182.583 30.5162 182.015 30.3135C181.446 30.1108 180.688 30.0095 179.836 30.0095C178.794 30.0095 177.751 30.1108 176.709 30.4149C175.667 30.6176 174.53 31.0229 173.298 31.5296V27.1719C174.34 26.6652 175.477 26.2599 176.709 26.0572C177.941 25.7531 179.172 25.6518 180.499 25.6518C182.015 25.6518 183.436 25.8545 184.573 26.2599C185.71 26.6652 186.753 27.2733 187.51 27.9827C188.269 28.6921 188.837 29.5028 189.311 30.5162C189.69 31.5296 189.879 32.543 189.879 33.6578V42.1704C189.879 43.6905 189.879 45.008 189.879 46.0214C189.879 47.1362 189.974 48.0482 189.974 48.859H185.237L185.141 46.3254ZM160.128 49.2643C158.991 49.2643 157.949 49.0616 157.001 48.555C156.054 48.1496 155.295 47.5415 154.727 46.9335H154.632C154.632 47.2375 154.632 47.6428 154.632 48.2509C154.632 48.859 154.632 49.467 154.632 50.0751V56.5609H149.421V25.9558H153.969L154.158 28.4894H154.253C154.916 27.5773 155.769 26.8679 156.717 26.2599C157.759 25.6518 158.896 25.3478 160.222 25.3478C161.359 25.3478 162.497 25.5504 163.633 26.0572C164.77 26.4626 165.718 27.1719 166.571 28.1853C167.424 29.0974 168.087 30.3135 168.655 31.8336C169.129 33.2524 169.413 34.9752 169.413 37.002C169.413 39.1302 169.129 40.9544 168.56 42.4745C167.992 43.9946 167.234 45.312 166.381 46.3254C165.434 47.3388 164.486 48.0482 163.349 48.555C162.497 49.0616 161.359 49.2643 160.128 49.2643ZM159.465 29.9081C158.517 29.9081 157.664 30.2122 156.906 30.6176C156.054 31.1242 155.39 31.7323 154.727 32.4417V42.5758C154.916 42.8798 155.201 43.0825 155.485 43.3866C155.769 43.6905 156.148 43.8932 156.527 44.0959C156.906 44.2986 157.285 44.5013 157.759 44.6026C158.233 44.704 158.706 44.8053 159.18 44.8053C159.938 44.8053 160.696 44.6026 161.359 44.2986C162.023 43.8932 162.497 43.3866 162.97 42.7785C163.349 42.0691 163.728 41.2584 163.917 40.3463C164.107 39.4342 164.202 38.4208 164.202 37.2047C164.202 35.9887 164.107 34.8738 163.823 33.9618C163.633 33.0497 163.254 32.239 162.875 31.6309C162.497 31.0229 161.928 30.5162 161.359 30.2122C160.885 30.0095 160.222 29.9081 159.465 29.9081ZM141.462 34.8738C141.462 34.3672 141.462 33.9618 141.462 33.5564C141.462 33.151 141.367 32.7457 141.272 32.4417C141.083 31.7323 140.799 31.2256 140.325 30.8202C139.851 30.4149 139.188 30.2122 138.335 30.2122C137.861 30.2122 137.388 30.3135 136.914 30.4149C136.44 30.5162 135.966 30.7189 135.493 31.0229C135.019 31.3269 134.545 31.6309 134.166 31.935C133.693 32.3404 133.313 32.7457 133.029 33.151V48.7577H127.818V34.8738C127.818 34.3672 127.818 33.9618 127.818 33.5564C127.818 33.151 127.723 32.7457 127.628 32.4417C127.439 31.7323 127.154 31.2256 126.681 30.8202C126.207 30.4149 125.544 30.2122 124.691 30.2122C124.217 30.2122 123.743 30.3135 123.27 30.4149C122.796 30.5162 122.323 30.7189 121.848 31.0229C121.375 31.3269 120.901 31.6309 120.522 31.935C120.048 32.3404 119.669 32.7457 119.385 33.151V48.7577H114.174V25.9558H118.438L118.911 29.0974H119.006C119.29 28.5907 119.669 28.1853 120.143 27.6786C120.617 27.2732 121.185 26.8679 121.754 26.4626C122.323 26.1585 122.986 25.8545 123.743 25.6518C124.406 25.4491 125.165 25.3478 126.018 25.3478C127.439 25.3478 128.67 25.6518 129.808 26.3612C130.945 27.0706 131.798 28.084 132.366 29.5028H132.461C132.84 28.8947 133.313 28.2867 133.787 27.78C134.261 27.2732 134.829 26.8679 135.493 26.4626C136.061 26.0572 136.725 25.8545 137.482 25.6518C138.145 25.4491 138.998 25.3478 139.756 25.3478C141.272 25.3478 142.504 25.7531 143.546 26.3612C144.588 27.0706 145.347 27.9827 145.915 29.0974C146.01 29.4014 146.199 29.7055 146.294 30.1108C146.389 30.4149 146.483 30.8202 146.579 31.3269C146.673 31.7323 146.673 32.239 146.768 32.7457C146.768 33.2524 146.768 33.8605 146.768 34.5698V48.6563H141.556V34.8738H141.462ZM101.572 49.2643C99.3928 49.2643 97.687 48.859 96.2662 48.1496C94.8447 47.3388 93.8027 46.3254 93.0443 45.008C92.6655 44.2986 92.3812 43.4879 92.1914 42.6771C92.0023 41.8664 91.9071 40.853 91.9071 39.8396V25.9558H97.1184V39.2316C97.1184 40.0422 97.2136 40.6503 97.3082 41.2584C97.4027 41.7651 97.5925 42.2718 97.7822 42.6771C98.1611 43.3866 98.6344 43.8932 99.2983 44.1972C99.9614 44.5013 100.719 44.704 101.572 44.704C102.519 44.704 103.277 44.5013 103.941 44.0959C104.604 43.6905 105.077 43.1839 105.457 42.3731C105.836 41.6637 105.93 40.6503 105.93 39.3329V25.9558H111.142V39.8396C111.142 41.6637 110.857 43.2852 110.289 44.5013C109.91 45.2107 109.531 45.92 108.962 46.4268C108.394 47.0348 107.825 47.5415 107.068 47.9469C106.309 48.3523 105.552 48.6563 104.604 48.859C103.657 49.163 102.709 49.2643 101.572 49.2643ZM67.9355 48.7577V17.3418H73.3365V31.6309H73.431L84.5167 17.3418H91.1494L78.832 32.847L92.0969 48.6563H85.1798L73.3365 34.4685H73.2419V48.6563H67.9355V48.7577Z" fill="#3D1308"/>
</g>
</g>
<defs>
<clipPath id="clip0_390_11481">
<rect width="222" height="66" fill="white"/>
</clipPath>
</defs>
</svg>
