<svg width="20" height="22" viewBox="0 0 20 22" fill="none" xmlns="http://www.w3.org/2000/svg">
<path fill-rule="evenodd" clip-rule="evenodd" d="M17.1768 20.0883V18.0883C17.1768 16.4315 15.8336 15.0883 14.1768 15.0883H6.17676C4.5199 15.0883 3.17676 16.4315 3.17676 18.0883V20.0883C3.17676 20.4456 2.98621 20.7757 2.67676 20.9543C2.36731 21.133 1.98621 21.133 1.67676 20.9543C1.36731 20.7757 1.17676 20.4456 1.17676 20.0883V18.0883C1.17676 15.3269 3.41528 13.0883 6.17676 13.0883H14.1768C16.9382 13.0883 19.1768 15.3269 19.1768 18.0883V20.0883C19.1768 20.4456 18.9862 20.7757 18.6768 20.9543C18.3673 21.133 17.9862 21.133 17.6768 20.9543C17.3673 20.7757 17.1768 20.4456 17.1768 20.0883V20.0883ZM5.1768 6.08837C5.1768 3.3269 7.41532 1.08838 10.1768 1.08838C12.9382 1.08838 15.1768 3.3269 15.1768 6.08837C15.1768 8.84971 12.9383 11.0884 10.1768 11.0884C7.41532 11.0884 5.1768 8.84984 5.1768 6.08837V6.08837ZM7.17669 6.08837C7.17669 7.74523 8.51983 9.08836 10.1767 9.08836C11.8336 9.08836 13.1767 7.74523 13.1767 6.08837C13.1767 4.43152 11.8336 3.08838 10.1767 3.08838C8.51983 3.08838 7.17669 4.43152 7.17669 6.08837V6.08837Z" fill="#252525"/>
</svg>
