<svg width="125" height="159" viewBox="0 0 125 159" fill="none" xmlns="http://www.w3.org/2000/svg">
<path fill-rule="evenodd" clip-rule="evenodd" d="M62.5 0C97.0149 0 125 35.6633 125 79.4992C125 123.583 97.0149 158.999 62.5 158.999C27.9851 159.246 0 123.583 0 79.4992C0 35.6633 27.9851 0 62.5 0Z" fill="#3D1308"/>
<path fill-rule="evenodd" clip-rule="evenodd" d="M38.9469 78.0132C44.7771 78.0132 50.1408 80.2421 54.3387 83.7093C53.6391 87.672 53.1727 91.3869 52.7061 95.3494C48.9749 89.6533 42.6783 85.9384 35.682 85.9384C24.2546 85.9384 14.9264 95.8447 14.9264 107.98C14.9264 108.723 14.9264 109.466 14.9264 110.209C14.4599 108.228 14.2267 106.494 14.2267 104.513C14.2267 89.9009 25.1876 78.0132 38.9469 78.0132ZM66.2324 149.092C65.0663 149.092 63.9003 149.34 62.501 149.34C49.4413 149.34 37.3143 143.148 27.9861 132.746C25.1876 123.088 32.4171 112.438 42.2117 112.438C45.4768 112.438 48.5085 113.676 51.0738 115.658C51.0738 111.448 51.307 107.237 51.7734 103.027C49.6745 102.284 47.3424 101.789 45.0102 101.789C30.7846 101.789 19.3574 119.125 28.2193 132.994C18.1913 121.602 11.6614 106.247 9.79577 88.6627C9.79577 74.5459 20.5234 63.1536 34.0495 63.1536C43.3779 63.1536 51.307 68.6021 55.5048 76.7748C56.2044 72.5645 56.6708 68.6021 57.1372 64.144C52.0066 58.9433 45.2436 55.7237 37.5477 55.7237C22.1559 55.7237 9.56256 69.0974 9.56256 85.4431C9.56256 86.4337 9.56256 87.4244 9.79577 88.4149C9.56256 85.4431 9.32935 82.4711 9.32935 79.4992C9.32935 68.1067 11.4282 57.4573 14.9264 48.0461C18.6577 40.3687 24.9544 35.1678 35.2156 35.1678C45.4768 35.1678 56.4376 44.3312 57.8368 56.4666C58.3033 51.761 58.5365 46.8079 58.5365 41.8545C58.5365 41.607 58.5365 41.3592 58.5365 40.8639V40.6163C53.8723 34.4247 46.6428 30.2144 38.7137 30.2144C29.3852 30.2144 20.7566 36.1585 16.5588 44.0836C20.5234 35.4154 25.654 27.9855 31.9505 22.2893C34.9824 19.8128 38.9469 18.3268 43.1447 18.3268C55.9712 18.3268 62.0346 29.4715 62.0346 41.607C62.0346 86.4337 43.1447 121.106 66.2324 149.092ZM62.501 9.90625C74.8611 9.90625 86.2883 15.3548 95.3835 24.7659C92.1186 21.7939 87.2212 20.3081 82.3238 20.3081C76.7268 20.3081 71.8294 22.537 68.098 26.2519C68.7977 27.9855 69.4973 29.7191 70.1969 31.7004C73.6951 26.2519 79.2921 22.7846 86.0551 22.7846C90.2529 22.7846 94.2174 24.2706 97.2492 26.7473C103.313 33.434 108.21 41.8545 111.242 51.5135C109.609 47.5508 107.044 44.0836 103.546 41.3592C93.751 33.434 80.2249 34.4247 71.363 43.093C71.363 47.0555 71.363 51.0181 71.1298 54.9806C71.8294 53.4946 72.529 52.2564 73.4618 51.0181C80.9245 40.3687 95.1503 38.3874 105.178 46.3125C109.143 49.5321 111.941 53.7424 113.107 58.6955C114.74 65.3825 115.673 72.5646 115.673 79.9944C115.673 84.9477 115.206 89.6533 114.507 94.1112C114.04 77.2701 100.98 63.8965 85.1223 63.8965C79.7585 63.8965 74.6279 65.3825 70.4301 68.1067C70.4301 69.8403 70.1969 71.5741 70.1969 73.3076C69.9637 76.0319 69.7305 78.7561 69.7305 81.7282C74.3947 75.7841 81.6242 71.8216 89.5533 71.8216C102.38 71.8216 113.107 81.9757 114.74 94.8543C113.341 103.77 110.542 111.943 106.811 119.125C106.811 118.63 106.811 117.887 106.811 117.391C106.811 103.275 96.0831 91.8822 82.7902 91.8822C77.6596 91.8822 72.9954 93.6158 69.2641 96.3401C69.0309 102.036 69.0309 107.485 69.4973 112.438C72.7622 105.504 79.5253 100.55 87.2212 100.55C97.4824 100.55 105.878 108.723 106.811 119.373C101.68 129.031 94.9171 137.204 86.7548 142.405C78.126 142.158 70.4301 135.966 68.098 127.298C62.0346 106.99 68.3312 69.8403 68.098 42.3499C67.6316 28.7286 61.1018 16.0978 46.6428 16.0978C41.0458 16.0978 36.3816 18.5744 32.4171 22.0417C41.0458 14.3642 51.307 9.90625 62.501 9.90625Z" fill="white"/>
<path fill-rule="evenodd" clip-rule="evenodd" d="M74.8608 30.71C76.4932 30.71 77.8925 32.196 77.8925 33.9298C77.8925 35.6633 76.4932 37.1494 74.8608 37.1494C73.2283 37.1494 71.8291 35.6633 71.8291 33.9298C71.8291 32.196 73.2283 30.71 74.8608 30.71ZM92.1182 26.9951C93.7507 26.9951 95.15 28.4811 95.15 30.2147C95.15 31.9484 93.7507 33.4344 92.1182 33.4344C90.4858 33.4344 89.0865 31.9484 89.0865 30.2147C89.0865 28.4811 90.4858 26.9951 92.1182 26.9951ZM93.5175 46.3128C95.3832 46.8081 96.5492 49.037 96.0828 51.2659C95.6164 53.2473 93.5175 54.4855 91.4186 53.9902C89.5529 53.495 88.3869 51.2659 88.8533 49.037C89.5529 47.0557 91.6518 45.8174 93.5175 46.3128ZM84.4223 49.037C86.0548 49.5323 86.9876 51.2659 86.5212 52.9997C86.0548 54.7333 84.4223 55.7239 82.7899 55.2286C81.1574 54.7333 80.2246 52.9997 80.691 51.2659C81.1574 49.5324 82.7899 48.5417 84.4223 49.037ZM101.913 50.523C103.546 51.0184 104.478 52.7519 104.012 54.4855C103.546 56.2193 101.913 57.21 100.281 56.7146C98.6481 56.2193 97.7154 54.4855 98.1817 52.7519C98.6481 51.0184 100.281 50.0277 101.913 50.523ZM108.676 56.2193C110.308 56.7146 111.241 58.4482 110.775 60.1818C110.308 61.9153 108.676 62.906 107.044 62.4107C105.411 61.9154 104.478 60.1818 104.945 58.4482C105.411 56.7146 107.044 55.7239 108.676 56.2193ZM77.4261 53.9902C79.0585 54.4855 79.9914 56.2193 79.5249 57.9529C79.0585 59.6864 77.4261 60.6771 75.7936 60.1818C74.1611 59.6864 73.2283 57.9529 73.6947 56.2193C74.1611 54.4855 75.7936 53.495 77.4261 53.9902ZM93.0511 75.7845C94.9167 76.5274 95.8496 78.7564 95.15 80.9855C94.4503 82.9666 92.3514 83.9573 90.2526 83.2144C88.3869 82.4713 87.4541 80.2424 88.1537 78.0135C89.0865 76.0321 91.1854 75.0414 93.0511 75.7845ZM83.7227 77.5181C85.122 78.261 86.0548 79.9948 85.3552 81.4806C84.6555 82.9666 83.0231 83.9573 81.6238 83.2144C80.2246 82.4713 79.2917 80.7377 79.9914 79.2517C80.4578 77.7657 82.3235 76.7752 83.7227 77.5181ZM101.213 80.7377C102.613 81.4806 103.546 83.2144 102.846 84.7004C102.146 86.1862 100.514 87.1769 99.1145 86.434C97.7154 85.6909 96.7824 83.9573 97.482 82.4713C97.9485 80.9853 99.5809 80.2424 101.213 80.7377ZM107.277 87.1769C108.676 87.92 109.609 89.6535 108.909 91.1396C108.21 92.6254 106.577 93.616 105.178 92.8731C103.779 92.1302 102.846 90.3965 103.546 88.9105C104.012 87.1769 105.644 86.434 107.277 87.1769ZM76.26 81.976C77.6593 82.719 78.5921 84.4526 77.8925 85.9386C77.1929 87.4246 75.5604 88.4153 74.1611 87.6722C72.7619 86.9293 71.8291 85.1955 72.5287 83.7097C72.9951 81.976 74.8608 81.233 76.26 81.976ZM45.9429 21.299C43.844 21.299 42.2115 23.0326 42.2115 25.2615C42.2115 27.4904 43.844 29.2242 45.9429 29.2242C48.0417 29.2242 49.6742 27.4904 49.6742 25.2615C49.441 23.0326 47.8085 21.299 45.9429 21.299ZM54.1052 26.4997C52.4727 26.4997 51.0735 27.9857 51.0735 29.7195C51.0735 31.4531 52.4727 32.9391 54.1052 32.9391C55.7376 32.9391 57.1369 31.4531 57.1369 29.7195C56.9037 27.7382 55.7376 26.4997 54.1052 26.4997ZM36.6145 22.7848C34.982 22.7848 33.5828 24.2708 33.5828 26.0046C33.5828 27.7382 34.982 29.2242 36.6145 29.2242C38.247 29.2242 39.6462 27.7382 39.6462 26.0046C39.6462 24.0233 38.247 22.7848 36.6145 22.7848ZM35.9149 39.8736C33.816 40.1212 32.4167 42.1025 32.6499 44.3314C32.8831 46.5603 34.7488 48.0463 36.8477 47.7988C38.9466 47.551 40.3458 45.5699 40.1126 43.3408C39.8794 41.1118 38.0137 39.6258 35.9149 39.8736ZM44.5436 43.8361C42.9111 44.0839 41.7451 45.5699 41.9783 47.3034C42.2115 49.037 43.6108 50.2753 45.2432 50.0277C46.8757 49.7801 48.0417 48.2941 47.8085 46.5603C47.8085 44.8268 46.1761 43.5885 44.5436 43.8361ZM27.0529 42.5978C25.4205 42.8454 24.2544 44.3314 24.4876 46.065C24.7208 47.7988 26.1201 49.037 27.7526 48.7894C29.385 48.5417 30.5511 47.0557 30.3179 45.3221C30.0846 43.5885 28.6854 42.3501 27.0529 42.5978ZM19.5902 47.3034C17.9578 47.551 16.7917 49.037 17.0249 50.7706C17.2582 52.5044 18.6574 53.7426 20.2899 53.495C21.9223 53.2473 23.0884 51.7613 22.8552 50.0277C22.8552 48.2941 21.2227 47.0557 19.5902 47.3034ZM50.8402 49.7799C49.2078 50.0277 48.0417 51.5137 48.2749 53.2473C48.5082 54.9808 49.9074 56.2193 51.5399 55.9715C53.1723 55.7239 54.3384 54.2379 54.1052 52.5044C53.872 50.7706 52.4727 49.5324 50.8402 49.7799ZM28.6854 66.6209C26.8197 67.6116 26.1201 69.8405 26.8197 71.8219C27.7526 73.8032 29.8514 74.5461 31.7171 73.8032C33.5828 72.8125 34.2824 70.5836 33.5828 68.6023C32.8831 66.6209 30.5511 65.6303 28.6854 66.6209ZM38.247 67.6116C36.8477 68.3547 36.1481 70.3359 36.8477 71.8219C37.5473 73.3079 39.413 74.0508 40.8123 73.3079C42.2115 72.565 42.9111 70.5836 42.2115 69.0976C41.5119 67.6116 39.6462 66.8687 38.247 67.6116ZM20.9895 72.0696C19.5902 72.8125 18.8906 74.7939 19.5902 76.2799C20.2899 77.7657 22.1555 78.5088 23.5548 77.7657C24.954 77.0228 25.6537 75.0414 24.954 73.5554C24.2544 72.0696 22.622 71.3265 20.9895 72.0696ZM15.3925 79.0041C13.9932 79.747 13.2936 81.4806 13.9932 82.9666C14.6929 84.4526 16.5585 85.1955 17.9578 84.4526C19.357 83.7097 20.0567 81.7284 19.357 80.2424C18.6574 78.7564 16.7917 78.261 15.3925 79.0041ZM45.9429 71.5743C44.5436 72.3172 43.844 74.2985 44.5436 75.7845C45.2432 77.2704 47.1089 78.0135 48.5082 77.2704C49.9074 76.5275 50.607 74.5461 49.9074 73.0603C49.2078 71.3265 47.3421 70.8312 45.9429 71.5743ZM29.1518 91.6349C31.2507 91.1396 33.1164 92.6254 33.5828 94.6067C34.0492 96.8356 32.6499 98.817 30.7843 99.3123C28.6854 99.8076 26.8197 98.3216 26.3533 96.3405C25.8869 94.3591 27.2861 92.1302 29.1518 91.6349ZM22.1555 98.5694C23.788 98.3216 25.4205 99.3123 25.6537 101.046C25.8869 102.78 24.954 104.513 23.3216 104.761C21.6891 105.009 20.0567 104.018 19.8234 102.284C19.5902 100.551 20.5231 99.0647 22.1555 98.5694ZM38.4802 91.1396C40.1126 90.8918 41.7451 91.8825 41.9783 93.616C42.2115 95.3498 41.2787 97.0834 39.6462 97.331C38.0137 97.5787 36.3813 96.5881 36.1481 94.8545C35.9149 93.1207 36.8477 91.3871 38.4802 91.1396ZM41.9783 116.153C44.0772 115.906 45.9429 117.392 46.1761 119.621C46.4093 121.85 45.01 123.831 42.9111 124.078C40.8123 124.326 38.9466 122.84 38.7134 120.611C38.7134 118.382 40.1126 116.401 41.9783 116.153ZM34.5156 122.592C36.1481 122.345 37.5473 123.583 37.7805 125.317C38.0137 127.05 36.8477 128.536 35.2152 128.784C33.5828 129.032 32.1835 127.793 31.9503 126.06C31.9503 124.326 32.8831 122.592 34.5156 122.592ZM89.7861 105.504C91.6518 106.247 92.8179 108.476 92.1182 110.457C91.4186 112.438 89.3197 113.677 87.4541 112.934C85.5884 112.191 84.4223 109.962 85.122 107.98C85.8216 105.751 87.9205 104.761 89.7861 105.504ZM80.4578 107.485C82.0902 107.981 82.7899 109.962 82.3235 111.448C81.857 113.181 79.9914 113.924 78.5921 113.429C76.9598 112.934 76.26 110.952 76.7264 109.466C77.1929 107.733 78.8253 106.99 80.4578 107.485ZM97.9486 110.209C99.5809 110.705 100.281 112.686 99.8141 114.172C99.3477 115.906 97.482 116.649 96.0828 116.153C94.4503 115.658 93.7507 113.677 94.2171 112.191C94.6835 110.457 96.316 109.466 97.9486 110.209ZM66.4652 13.3738C68.5641 13.3738 70.1966 15.1074 70.1966 17.3363C70.1966 19.5652 68.5641 21.299 66.4652 21.299C64.3664 21.299 62.7339 19.5652 62.7339 17.3363C62.7339 15.1074 64.5996 13.3738 66.4652 13.3738ZM83.0231 25.5093C85.122 25.5093 86.7544 27.2428 86.7544 29.4718C86.7544 31.7007 85.122 33.4344 83.0231 33.4344C80.9242 33.4344 79.2917 31.7007 79.2917 29.4718C79.2917 27.4904 80.9242 25.5093 83.0231 25.5093Z" fill="#3D1308"/>
</svg>
