<svg width="30" height="30" viewBox="0 0 30 30" fill="none" xmlns="http://www.w3.org/2000/svg">
<circle cx="15" cy="15" r="15" fill="#252525"/>
<path d="M24.5414 9.81264C24.6812 9.34381 24.5414 9 23.8807 9H21.6919C21.135 9 20.8805 9.29743 20.7407 9.6241C20.7407 9.6241 19.6279 12.3655 18.0509 14.143C17.5419 14.6602 17.3093 14.8236 17.0319 14.8236C16.8931 14.8236 16.6915 14.6602 16.6915 14.1914V9.81264C16.6915 9.25004 16.5308 9 16.0667 9H12.6273C12.28 9 12.0704 9.26012 12.0704 9.50815C12.0704 10.0405 12.8589 10.1635 12.9397 11.6638V14.9183C12.9397 15.6312 12.813 15.7612 12.5335 15.7612C11.7919 15.7612 9.98741 13.0097 8.91647 9.86002C8.70787 9.24803 8.49728 9.00101 7.93835 9.00101H5.75056C5.12476 9.00101 5 9.29844 5 9.62511C5 10.2119 5.74157 13.1156 8.45436 16.956C10.2629 19.5784 12.809 21 15.1285 21C16.5189 21 16.6905 20.6844 16.6905 20.14V18.1578C16.6905 17.5266 16.8233 17.3996 17.2634 17.3996C17.5868 17.3996 18.1437 17.5649 19.4422 18.8283C20.9254 20.3265 21.1709 20.999 22.0043 20.999H24.1921C24.8169 20.999 25.1293 20.6834 24.9497 20.0603C24.753 19.4403 24.0444 18.5379 23.1042 17.4702C22.5932 16.8612 21.8296 16.2058 21.5971 15.8782C21.2727 15.4557 21.3665 15.2692 21.5971 14.8941C21.5971 14.8941 24.264 11.1022 24.5414 9.81264Z" fill="#EFEFEF"/>
</svg>
