<svg width="50" height="50" viewBox="0 0 50 50" fill="none" xmlns="http://www.w3.org/2000/svg">
<circle cx="25" cy="25" r="25" fill="white"/>
<path d="M39.3122 16.4221C39.5218 15.6017 39.3122 15 38.3211 15H35.0379C34.2025 15 33.8207 15.5205 33.6111 16.0922C33.6111 16.0922 31.9418 20.8896 29.5764 24.0003C28.8128 24.9054 28.464 25.1912 28.0478 25.1912C27.8397 25.1912 27.5373 24.9054 27.5373 24.0849V16.4221C27.5373 15.4376 27.2963 15 26.6001 15H21.441C20.92 15 20.6056 15.4552 20.6056 15.8893C20.6056 16.8209 21.7883 17.0361 21.9096 19.6616V25.3571C21.9096 26.6045 21.7195 26.8321 21.3003 26.8321C20.1879 26.8321 17.4811 22.0171 15.8747 16.505C15.5618 15.434 15.2459 15.0018 14.4075 15.0018H11.1258C10.1871 15.0018 10 15.5223 10 16.0939C10 17.1208 11.1124 22.2023 15.1815 28.923C17.8943 33.5122 21.7135 36 25.1928 36C27.2783 36 27.5358 35.4477 27.5358 34.495V31.0261C27.5358 29.9216 27.7349 29.6993 28.3951 29.6993C28.8802 29.6993 29.7156 29.9887 31.6634 32.1995C33.8881 34.8214 34.2564 35.9982 35.5065 35.9982H38.7882C39.7254 35.9982 40.194 35.446 39.9245 34.3556C39.6295 33.2705 38.5666 31.6913 37.1563 29.8228C36.3898 28.7571 35.2445 27.6102 34.8956 27.0368C34.4091 26.2975 34.5498 25.9711 34.8956 25.3147C34.8956 25.3147 38.896 18.6788 39.3122 16.4221Z" fill="#40AB39"/>
</svg>
