<svg width="50" height="50" viewBox="0 0 50 50" fill="none" xmlns="http://www.w3.org/2000/svg">
<circle cx="25" cy="25" r="25" fill="white"/>
<path d="M25.0012 12.5C31.905 12.5 37.5012 18.0963 37.5012 25C37.5012 31.9037 31.905 37.5 25.0012 37.5C22.7922 37.5036 20.6221 36.919 18.7137 35.8063L12.5062 37.5L14.1962 31.29C13.0826 29.3811 12.4975 27.21 12.5012 25C12.5012 18.0963 18.0975 12.5 25.0012 12.5ZM20.7412 19.125L20.4912 19.135C20.3294 19.1449 20.1712 19.1874 20.0262 19.26C19.8906 19.3368 19.7669 19.4328 19.6587 19.545C19.5087 19.6863 19.4237 19.8087 19.3325 19.9275C18.8701 20.5286 18.6212 21.2666 18.625 22.025C18.6275 22.6375 18.7875 23.2338 19.0375 23.7913C19.5487 24.9187 20.39 26.1125 21.5 27.2188C21.7675 27.485 22.03 27.7525 22.3125 28.0013C23.6917 29.2156 25.3353 30.0913 27.1125 30.5588L27.8225 30.6675C28.0537 30.68 28.285 30.6625 28.5175 30.6512C28.8815 30.6325 29.237 30.5339 29.5587 30.3625C29.7224 30.2782 29.8822 30.1864 30.0375 30.0875C30.0375 30.0875 30.0912 30.0525 30.1937 29.975C30.3625 29.85 30.4662 29.7612 30.6062 29.615C30.71 29.5075 30.8 29.3813 30.8687 29.2375C30.9662 29.0338 31.0637 28.645 31.1037 28.3212C31.1337 28.0737 31.125 27.9388 31.1212 27.855C31.1162 27.7213 31.005 27.5825 30.8837 27.5238L30.1562 27.1975C30.1562 27.1975 29.0687 26.7238 28.4037 26.4213C28.3342 26.3909 28.2596 26.3735 28.1837 26.37C28.0982 26.3612 28.0118 26.3708 27.9303 26.3982C27.8488 26.4256 27.7741 26.4701 27.7112 26.5287C27.705 26.5262 27.6212 26.5975 26.7175 27.6925C26.6656 27.7622 26.5942 27.8149 26.5122 27.8438C26.4303 27.8728 26.3416 27.8767 26.2575 27.855C26.1761 27.8332 26.0963 27.8056 26.0187 27.7725C25.8637 27.7075 25.81 27.6825 25.7037 27.6375C24.9863 27.3244 24.3221 26.9014 23.735 26.3838C23.5775 26.2463 23.4312 26.0962 23.2812 25.9513C22.7895 25.4803 22.3609 24.9475 22.0062 24.3663L21.9325 24.2475C21.8795 24.1677 21.8367 24.0816 21.805 23.9913C21.7575 23.8075 21.8812 23.66 21.8812 23.66C21.8812 23.66 22.185 23.3275 22.3262 23.1475C22.4637 22.9725 22.58 22.8025 22.655 22.6813C22.8025 22.4438 22.8487 22.2 22.7712 22.0113C22.4212 21.1562 22.0587 20.305 21.6862 19.46C21.6125 19.2925 21.3937 19.1725 21.195 19.1487C21.1275 19.1412 21.06 19.1337 20.9925 19.1287C20.8246 19.1204 20.6564 19.1221 20.4887 19.1337L20.74 19.1237L20.7412 19.125Z" fill="#40AB39"/>
</svg>
