<svg width="30" height="30" viewBox="0 0 30 30" fill="none" xmlns="http://www.w3.org/2000/svg">
<circle cx="15" cy="15" r="15" fill="#252525"/>
<path d="M15.0008 6.66663C19.6033 6.66663 23.3342 10.3975 23.3342 15C23.3342 19.6025 19.6033 23.3333 15.0008 23.3333C13.5281 23.3357 12.0814 22.9459 10.8092 22.2041L6.67083 23.3333L7.79749 19.1933C7.05507 17.9207 6.66503 16.4733 6.66749 15C6.66749 10.3975 10.3983 6.66663 15.0008 6.66663ZM12.1608 11.0833L11.9942 11.09C11.8863 11.0965 11.7808 11.1249 11.6842 11.1733C11.5938 11.2245 11.5112 11.2885 11.4392 11.3633C11.3392 11.4575 11.2825 11.5391 11.2217 11.6183C10.9134 12.019 10.7475 12.5111 10.75 13.0166C10.7517 13.425 10.8583 13.8225 11.025 14.1941C11.3658 14.9458 11.9267 15.7416 12.6667 16.4791C12.845 16.6566 13.02 16.835 13.2083 17.0008C14.1278 17.8103 15.2235 18.3942 16.4083 18.7058L16.8817 18.7783C17.0358 18.7866 17.19 18.775 17.345 18.7675C17.5877 18.7549 17.8247 18.6892 18.0392 18.575C18.1483 18.5187 18.2548 18.4576 18.3583 18.3916C18.3583 18.3916 18.3942 18.3683 18.4625 18.3166C18.575 18.2333 18.6442 18.1741 18.7375 18.0766C18.8067 18.005 18.8667 17.9208 18.9125 17.825C18.9775 17.6891 19.0425 17.43 19.0692 17.2141C19.0892 17.0491 19.0833 16.9591 19.0808 16.9033C19.0775 16.8141 19.0033 16.7216 18.9225 16.6825L18.4375 16.465C18.4375 16.465 17.7125 16.1491 17.2692 15.9475C17.2228 15.9272 17.1731 15.9156 17.1225 15.9133C17.0655 15.9074 17.0079 15.9139 16.9535 15.9321C16.8992 15.9504 16.8494 15.98 16.8075 16.0191C16.8033 16.0175 16.7475 16.065 16.145 16.795C16.1104 16.8414 16.0628 16.8765 16.0082 16.8958C15.9535 16.9151 15.8944 16.9177 15.8383 16.9033C15.784 16.8887 15.7309 16.8704 15.6792 16.8483C15.5758 16.805 15.54 16.7883 15.4692 16.7583C14.9909 16.5496 14.5481 16.2676 14.1567 15.9225C14.0517 15.8308 13.9542 15.7308 13.8542 15.6341C13.5263 15.3202 13.2406 14.965 13.0042 14.5775L12.955 14.4983C12.9197 14.4451 12.8911 14.3877 12.87 14.3275C12.8383 14.205 12.9208 14.1066 12.9208 14.1066C12.9208 14.1066 13.1233 13.885 13.2175 13.765C13.3092 13.6483 13.3867 13.535 13.4367 13.4541C13.535 13.2958 13.5658 13.1333 13.5142 13.0075C13.2808 12.4375 13.0392 11.87 12.7908 11.3066C12.7417 11.195 12.5958 11.115 12.4633 11.0991C12.4183 11.0941 12.3733 11.0891 12.3283 11.0858C12.2164 11.0802 12.1043 11.0813 11.9925 11.0891L12.16 11.0825L12.1608 11.0833Z" fill="#EFEFEF"/>
</svg>
